SplineFontDB: 1.0
FontName: DejaVuSerifCondensed
FullName: DejaVu Serif Condensed
FamilyName: DejaVu Serif Condensed
Weight: Book
Copyright: Copyright (c) 2003 by Bitstream, Inc. All Rights Reserved.\nDejaVu changes are in public domain\n
Version: 1.7
ItalicAngle: 0
UnderlinePosition: -213
UnderlineWidth: 133
Ascent: 1556
Descent: 492
Order2: 1
NeedsXUIDChange: 1
FSType: 4
PfmFamily: 17
TTFWeight: 400
TTFWidth: 5
Panose: 2 6 6 6 5 6 5 2 2 4
LineGap: 410
VLineGap: 0
OS2TypoAscent: 1556
OS2TypoDescent: -492
OS2TypoLinegap: 0
OS2WinAscent: 1901
OS2WinAOffset: 0
OS2WinDescent: 483
OS2WinDOffset: 0
HheadAscent: 1901
HheadAOffset: 0
HheadDescent: -483
HheadDOffset: 0
ScriptLang: 2
 1 latn 1 dflt 
 1 DFLT 1 dflt 
TtfTable: prep 1374
\,q1Gi5bg!`Y/Hn`$>N*A-9e9"N2Pf_[Q^b_']E'A-9Xq"2J1E^O63s$Nn!K"1l#W"hHGk\J,.U
1'>#b"1J12[Jg97rWBJ*"0o(#"gRn+YX\f!rWB<O"0MP)X:>?5WXK'3'Eb?D"0"$XW+6".*Wr2n
"/DT$"f)&!U1=A"Q4=(l,m0fb$3d(K".r3gSe)!p/d%W"*X/)5".P_j"e-M7RLfRhQjs:f,m0NZ
$3ce,".2=VQ^/*bQP9OgJ-;/J"-u1TPpHNsKJ3RorWA@I'*XRG"-ScU"d0N$P.1NX5R@RUO9u/R
%0Ma&!<>AV"HWrmOMD![Dg_eM]*"(E$O)P&"-,VLNI_H@NB.0#Mn9.OrWA(9>m6.u",h[4MMWV_
MHp=A5Qlq"*X.BH",M^E"c+3%Lq*K#5lUtB&Hd`?0Em/@",&?1K,+Q@Q32[G"+Xom"b?RSIr#Z"
Ii/?;I1?F01';q7"+5G+"agscHOg4)Q32CE"*b.TGBP)4GPVDbFW:R.+9Qa+"*A>j"`tdfF8c8^
rW@.Z%0^bN")n\OE'OPEI04A(4p>h>")U4(ChjF_C_-\bJ-9Wr")C.)C1LiYCAJ$HBY+F^rW?hH
>m4oR")*2fB4`FnB3bUP5Qk[F"(c"R"_IN4A7PdP'a%qE"(D02?sbMi@/^78/d#GZ"'tm.>Y>0'
I03[P"'J"o=T/D(rW?35"',=&;e,u.'E_2f"&Mc("]0UL:CdP&5sRa=9FCqpA-5CI#R*ec"%Y0L
7fs;+7hYto&d(Q($3`j9"%5Ki"[m,.6UD=f6PBPg5mmi_&-G3`#mEU&"$d.p5e-j05Z7eMQ30;R
/Hn=4"$Ja\"[,K\4?ElR4;7l[5Qj.U"$/FT"Zfok3B.TS3>)ER&Has$"#g,\2)H!N2?!\71D9pK
'E^-H$3`4!"#;S;"YpDe1:[A"5lUsA#m2k7(^2T]""u8A"YU\p0>I]C*XW'''a$(=">'pj"YH#B
/1VD</5$'q+p\?&'E]jN"=aH["Y+$b.4?kR.7"%a">'d*0EW[*/HmO$""$&2,n1[p-!^Tu,8(/*
;Ze6g#R)Fc"!^&6+p\8o+;b8*>lu2k&Hs9o"!GA^+!(am*t\SsJ-6o#"!0]1*?tY+%g*ar!u`%2
"WC;A)$DMp))).0rW<r<$3_7F!u;FM'bh>c'l*mc',(N`'E]%7";;FN&d0ci'"\5X!tYVJrW<]6

StartChar: .notdef
Encoding: 0 -1 0
Width: 1167
Flags: HW
Fore
153.2 -362 m 1,0,-1
 153.2 1444 l 1,1,-1
 1074.8 1444 l 1,2,-1
 1074.8 -362 l 1,3,-1
 153.2 -362 l 1,0,-1
256.7 -248 m 1,4,-1
 972.2 -248 l 1,5,-1
 972.2 1329 l 1,6,-1
 256.7 1329 l 1,7,-1
 256.7 -248 l 1,4,-1
EndSplineSet
EndChar
StartChar: exclam
Encoding: 33 33 4
Width: 781
Flags: HW
Fore
292.3 104 m 0,0,1
 292.3 160 292.3 160 326.5 199 c 128,-1,2
 360.7 238 360.7 238 412 238 c 0,3,4
 461.5 238 461.5 238 496.6 199 c 128,-1,5
 531.7 160 531.7 160 531.7 104 c 0,6,7
 531.7 49 531.7 49 496.6 10 c 128,-1,8
 461.5 -29 461.5 -29 412 -29 c 0,9,10
 360.7 -29 360.7 -29 326.5 9.5 c 128,-1,11
 292.3 48 292.3 48 292.3 104 c 0,0,1
295.9 1493 m 1,12,-1
 528.1 1493 l 1,13,-1
 466.9 672 l 1,14,-1
 466.9 420 l 1,15,-1
 356.2 420 l 1,16,-1
 356.2 672 l 1,17,-1
 295.9 1493 l 1,12,-1
EndSplineSet
EndChar
StartChar: quotedbl
Encoding: 34 34 5
Width: 894
Flags: HW
Fore
371.1 1493 m 1,0,-1
 371.1 938 l 1,1,-1
 228 938 l 1,2,-1
 228 1493 l 1,3,-1
 371.1 1493 l 1,0,-1
714 1493 m 1,4,-1
 714 938 l 1,5,-1
 570.9 938 l 1,6,-1
 570.9 1493 l 1,7,-1
 714 1493 l 1,4,-1
EndSplineSet
EndChar
StartChar: numbersign
Encoding: 35 35 6
Width: 1630
Flags: HW
Fore
1023.65 901 m 1,0,-1
 769.85 901 l 1,1,-1
 694.25 567 l 1,2,-1
 950.75 567 l 1,3,-1
 1023.65 901 l 1,0,-1
896.75 1470 m 1,4,-1
 804.95 1055 l 1,5,-1
 1058.75 1055 l 1,6,-1
 1151.45 1470 l 1,7,-1
 1306.25 1470 l 1,8,-1
 1211.75 1055 l 1,9,-1
 1488.95 1055 l 1,10,-1
 1488.95 901 l 1,11,-1
 1176.65 901 l 1,12,-1
 1102.85 567 l 1,13,-1
 1385.45 567 l 1,14,-1
 1385.45 414 l 1,15,-1
 1068.65 414 l 1,16,-1
 975.95 0 l 1,17,-1
 821.15 0 l 1,18,-1
 915.65 414 l 1,19,-1
 660.95 414 l 1,20,-1
 567.35 0 l 1,21,-1
 414.35 0 l 1,22,-1
 506.15 414 l 1,23,-1
 228.05 414 l 1,24,-1
 228.05 567 l 1,25,-1
 541.25 567 l 1,26,-1
 615.05 901 l 1,27,-1
 330.65 901 l 1,28,-1
 330.65 1055 l 1,29,-1
 650.15 1055 l 1,30,-1
 743.75 1470 l 1,31,-1
 896.75 1470 l 1,4,-1
EndSplineSet
EndChar
StartChar: dollar
Encoding: 36 36 7
Width: 1238
Flags: HW
Fore
686.35 68 m 1,0,1
 788.05 78 788.05 78 841.6 133 c 128,-1,2
 895.15 188 895.15 188 895.15 283 c 0,3,4
 895.15 369 895.15 369 842.05 429 c 128,-1,5
 788.95 489 788.95 489 686.35 520 c 1,6,-1
 686.35 68 l 1,0,1
596.35 1187 m 1,7,8
 503.65 1180 503.65 1180 452.35 1127.5 c 128,-1,9
 401.05 1075 401.05 1075 401.05 987 c 0,10,11
 401.05 907 401.05 907 448.3 854 c 128,-1,12
 495.55 801 495.55 801 596.35 768 c 1,13,-1
 596.35 1187 l 1,7,8
223.75 72 m 1,14,-1
 223.75 348 l 1,15,-1
 320.95 348 l 1,16,17
 324.55 211 324.55 211 392.95 141 c 128,-1,18
 461.35 71 461.35 71 596.35 68 c 1,19,-1
 596.35 553 l 1,20,21
 389.35 617 389.35 617 305.65 700.5 c 128,-1,22
 221.95 784 221.95 784 221.95 922 c 0,23,24
 221.95 1082 221.95 1082 320.95 1179 c 128,-1,25
 419.95 1276 419.95 1276 596.35 1288 c 1,26,-1
 596.35 1556 l 1,27,-1
 686.35 1556 l 1,28,-1
 686.35 1288 l 1,29,30
 777.25 1280 777.25 1280 861.4 1255.5 c 128,-1,31
 945.55 1231 945.55 1231 1025.65 1190 c 1,32,-1
 1025.65 928 l 1,33,-1
 927.55 928 l 1,34,35
 916.75 1044 916.75 1044 854.65 1111 c 128,-1,36
 792.55 1178 792.55 1178 686.35 1187 c 1,37,-1
 686.35 735 l 1,38,39
 907.75 668 907.75 668 996.4 581.5 c 128,-1,40
 1085.05 495 1085.05 495 1085.05 350 c 0,41,42
 1085.05 184 1085.05 184 980.65 84 c 128,-1,43
 876.25 -16 876.25 -16 686.35 -31 c 1,44,-1
 686.35 -301 l 1,45,-1
 596.35 -301 l 1,46,-1
 596.35 -31 l 1,47,48
 509.95 -29 509.95 -29 417.25 -3.5 c 128,-1,49
 324.55 22 324.55 22 223.75 72 c 1,14,-1
EndSplineSet
EndChar
StartChar: percent
Encoding: 37 37 8
Width: 1848
Flags: HW
Fore
510.4 1427 m 0,0,1
 431.2 1427 431.2 1427 386.65 1344 c 128,-1,2
 342.1 1261 342.1 1261 342.1 1112 c 0,3,4
 342.1 965 342.1 965 387.55 881 c 128,-1,5
 433 797 433 797 510.4 797 c 0,6,7
 586.9 797 586.9 797 631.45 880.5 c 128,-1,8
 676 964 676 964 676 1112 c 0,9,10
 676 1260 676 1260 631.45 1343.5 c 128,-1,11
 586.9 1427 586.9 1427 510.4 1427 c 0,0,1
1437.4 694 m 0,12,13
 1359.1 694 1359.1 694 1314.55 610 c 128,-1,14
 1270 526 1270 526 1270 377 c 0,15,16
 1270 230 1270 230 1315 146.5 c 128,-1,17
 1360 63 1360 63 1437.4 63 c 0,18,19
 1514.8 63 1514.8 63 1558.9 146.5 c 128,-1,20
 1603 230 1603 230 1603 377 c 0,21,22
 1603 525 1603 525 1558.45 609.5 c 128,-1,23
 1513.9 694 1513.9 694 1437.4 694 c 0,12,13
1437.4 784 m 0,24,25
 1579.6 784 1579.6 784 1663.3 674 c 128,-1,26
 1747 564 1747 564 1747 377 c 0,27,28
 1747 190 1747 190 1662.85 80.5 c 128,-1,29
 1578.7 -29 1578.7 -29 1437.4 -29 c 0,30,31
 1293.4 -29 1293.4 -29 1209.7 80.5 c 128,-1,32
 1126 190 1126 190 1126 377 c 0,33,34
 1126 565 1126 565 1210.15 674.5 c 128,-1,35
 1294.3 784 1294.3 784 1437.4 784 c 0,24,25
1324.9 1520 m 1,36,-1
 1461.7 1520 l 1,37,-1
 621.1 -29 l 1,38,-1
 484.3 -29 l 1,39,-1
 1324.9 1520 l 1,36,-1
508.6 1520 m 0,40,41
 650.8 1520 650.8 1520 735.4 1410.5 c 128,-1,42
 820 1301 820 1301 820 1114 c 0,43,44
 820 925 820 925 735.85 816 c 128,-1,45
 651.7 707 651.7 707 508.6 707 c 0,46,47
 365.5 707 365.5 707 282.25 816.5 c 128,-1,48
 199 926 199 926 199 1114 c 0,49,50
 199 1300 199 1300 282.7 1410 c 128,-1,51
 366.4 1520 366.4 1520 508.6 1520 c 0,40,41
EndSplineSet
EndChar
StartChar: ampersand
Encoding: 38 38 9
Width: 1734
Flags: HW
Fore
1089.05 231 m 1,0,-1
 565.25 844 l 1,1,2
 486.95 766 486.95 766 447.8 675.5 c 128,-1,3
 408.65 585 408.65 585 408.65 483 c 0,4,5
 408.65 317 408.65 317 512.15 204.5 c 128,-1,6
 615.65 92 615.65 92 770.45 92 c 0,7,8
 862.25 92 862.25 92 943.7 127.5 c 128,-1,9
 1025.15 163 1025.15 163 1089.05 231 c 1,0,-1
1647.05 0 m 1,10,-1
 1286.15 0 l 1,11,-1
 1162.85 145 l 1,12,13
 1068.35 57 1068.35 57 961.25 14 c 128,-1,14
 854.15 -29 854.15 -29 729.95 -29 c 0,15,16
 497.75 -29 497.75 -29 361.85 103 c 128,-1,17
 225.95 235 225.95 235 225.95 461 c 0,18,19
 225.95 594 225.95 594 294.8 709.5 c 128,-1,20
 363.65 825 363.65 825 503.15 926 c 1,21,22
 457.25 987 457.25 987 435.65 1047.5 c 128,-1,23
 414.05 1108 414.05 1108 414.05 1174 c 0,24,25
 414.05 1333 414.05 1333 517.1 1426.5 c 128,-1,26
 620.15 1520 620.15 1520 797.45 1520 c 0,27,28
 857.75 1520 857.75 1520 938.3 1503 c 128,-1,29
 1018.85 1486 1018.85 1486 1122.35 1452 c 1,30,-1
 1122.35 1194 l 1,31,-1
 1020.65 1194 l 1,32,33
 1008.05 1301 1008.05 1301 950.45 1357 c 128,-1,34
 892.85 1413 892.85 1413 793.85 1413 c 0,35,36
 701.15 1413 701.15 1413 643.55 1356.5 c 128,-1,37
 585.95 1300 585.95 1300 585.95 1210 c 0,38,39
 585.95 1149 585.95 1149 616.55 1088.5 c 128,-1,40
 647.15 1028 647.15 1028 744.35 915 c 2,41,-1
 1208.75 371 l 1,42,43
 1270.85 451 1270.85 451 1306.4 543.5 c 128,-1,44
 1341.95 636 1341.95 636 1350.95 741 c 1,45,-1
 1188.95 741 l 1,46,-1
 1188.95 848 l 1,47,-1
 1614.65 848 l 1,48,-1
 1614.65 741 l 1,49,-1
 1459.85 741 l 1,50,51
 1444.55 611 1444.55 611 1400 498 c 128,-1,52
 1355.45 385 1355.45 385 1280.75 289 c 1,53,-1
 1435.55 106 l 1,54,-1
 1647.05 106 l 1,55,-1
 1647.05 0 l 1,10,-1
EndSplineSet
EndChar
StartChar: quotesingle
Encoding: 39 39 10
Width: 534
Flags: HW
Fore
352.05 1493 m 1,0,-1
 352.05 938 l 1,1,-1
 208.95 938 l 1,2,-1
 208.95 1493 l 1,3,-1
 352.05 1493 l 1,0,-1
EndSplineSet
EndChar
StartChar: parenleft
Encoding: 40 40 11
Width: 759
Flags: HW
Fore
628.45 -319 m 1,0,1
 409.75 -210 409.75 -210 298.15 26.5 c 128,-1,2
 186.55 263 186.55 263 186.55 618 c 0,3,4
 186.55 974 186.55 974 298.15 1210.5 c 128,-1,5
 409.75 1447 409.75 1447 628.45 1556 c 1,6,-1
 628.45 1458 l 1,7,8
 489.85 1352 489.85 1352 429.55 1159.5 c 128,-1,9
 369.25 967 369.25 967 369.25 618 c 0,10,11
 369.25 270 369.25 270 429.55 77.5 c 128,-1,12
 489.85 -115 489.85 -115 628.45 -221 c 1,13,-1
 628.45 -319 l 1,0,1
EndSplineSet
EndChar
StartChar: parenright
Encoding: 41 41 12
Width: 758
Flags: HW
Fore
169.6 -319 m 1,0,-1
 169.6 -221 l 1,1,2
 308.2 -115 308.2 -115 368.95 77.5 c 128,-1,3
 429.7 270 429.7 270 429.7 618 c 0,4,5
 429.7 967 429.7 967 368.95 1159.5 c 128,-1,6
 308.2 1352 308.2 1352 169.6 1458 c 1,7,-1
 169.6 1556 l 1,8,9
 389.2 1447 389.2 1447 500.8 1210.5 c 128,-1,10
 612.4 974 612.4 974 612.4 618 c 0,11,12
 612.4 263 612.4 263 500.8 26.5 c 128,-1,13
 389.2 -210 389.2 -210 169.6 -319 c 1,0,-1
EndSplineSet
EndChar
StartChar: asterisk
Encoding: 42 42 13
Width: 972
Flags: HW
Fore
943.1 1237 m 1,0,-1
 591.2 1055 l 1,1,-1
 943.1 870 l 1,2,-1
 874.7 752 l 1,3,-1
 561.5 969 l 1,4,-1
 573.2 588 l 1,5,-1
 450.8 588 l 1,6,-1
 462.5 969 l 1,7,-1
 149.3 752 l 1,8,-1
 80.9004 870 l 1,9,-1
 432.8 1053 l 1,10,-1
 80.9004 1237 l 1,11,-1
 149.3 1356 l 1,12,-1
 462.5 1139 l 1,13,-1
 450.8 1520 l 1,14,-1
 573.2 1520 l 1,15,-1
 561.5 1139 l 1,16,-1
 874.7 1356 l 1,17,-1
 943.1 1237 l 1,0,-1
EndSplineSet
EndChar
StartChar: plus
Encoding: 43 43 14
Width: 1630
Flags: HW
Fore
930 1284 m 1,0,-1
 930 723 l 1,1,-1
 1434.9 723 l 1,2,-1
 1434.9 561 l 1,3,-1
 930 561 l 1,4,-1
 930 0 l 1,5,-1
 786 0 l 1,6,-1
 786 561 l 1,7,-1
 281.1 561 l 1,8,-1
 281.1 723 l 1,9,-1
 786 723 l 1,10,-1
 786 1284 l 1,11,-1
 930 1284 l 1,0,-1
EndSplineSet
EndChar
StartChar: comma
Encoding: 44 44 15
Width: 612
Flags: HW
Fore
92.9502 -199 m 1,0,1
 177.55 -130 177.55 -130 217.15 -36.5 c 128,-1,2
 256.75 57 256.75 57 256.75 190 c 2,3,-1
 256.75 227 l 1,4,-1
 434.05 227 l 1,5,6
 426.85 56 426.85 56 361.6 -66.5 c 128,-1,7
 296.35 -189 296.35 -189 164.95 -279 c 1,8,-1
 92.9502 -199 l 1,0,1
EndSplineSet
EndChar
StartChar: hyphen
Encoding: 45 45 16
Width: 657
Flags: HW
Fore
115.6 627 m 1,0,-1
 576.4 627 l 1,1,-1
 576.4 471 l 1,2,-1
 115.6 471 l 1,3,-1
 115.6 627 l 1,0,-1
EndSplineSet
KernsSLIF: 356 -73 0 0 221 -225 0 0 376 -225 0 0 89 -225 0 0 88 -73 0 0 87 -112 0 0 86 -149 0 0 84 -73 0 0
EndChar
StartChar: period
Encoding: 46 46 17
Width: 618
Flags: HW
Fore
206.3 104 m 0,0,1
 206.3 160 206.3 160 240.5 199 c 128,-1,2
 274.7 238 274.7 238 326 238 c 0,3,4
 375.5 238 375.5 238 410.6 199 c 128,-1,5
 445.7 160 445.7 160 445.7 104 c 0,6,7
 445.7 49 445.7 49 410.6 10 c 128,-1,8
 375.5 -29 375.5 -29 326 -29 c 0,9,10
 274.7 -29 274.7 -29 240.5 9.5 c 128,-1,11
 206.3 48 206.3 48 206.3 104 c 0,0,1
EndSplineSet
EndChar
StartChar: slash
Encoding: 47 47 18
Width: 655
Flags: HW
Fore
511.5 1493 m 1,0,-1
 655.5 1493 l 1,1,-1
 178.5 -190 l 1,2,-1
 34.5 -190 l 1,3,-1
 511.5 1493 l 1,0,-1
EndSplineSet
EndChar
StartChar: zero
Encoding: 48 48 19
Width: 1237
Flags: HW
Fore
651 70 m 0,0,1
 788.7 70 788.7 70 857.1 238 c 128,-1,2
 925.5 406 925.5 406 925.5 745 c 0,3,4
 925.5 1085 925.5 1085 857.1 1253 c 128,-1,5
 788.7 1421 788.7 1421 651 1421 c 0,6,7
 513.3 1421 513.3 1421 444.9 1253 c 128,-1,8
 376.5 1085 376.5 1085 376.5 745 c 0,9,10
 376.5 406 376.5 406 444.9 238 c 128,-1,11
 513.3 70 513.3 70 651 70 c 0,0,1
651 -29 m 0,12,13
 432.3 -29 432.3 -29 309.45 175 c 128,-1,14
 186.6 379 186.6 379 186.6 745 c 0,15,16
 186.6 1112 186.6 1112 309.45 1316 c 128,-1,17
 432.3 1520 432.3 1520 651 1520 c 0,18,19
 870.6 1520 870.6 1520 993 1316 c 128,-1,20
 1115.4 1112 1115.4 1112 1115.4 745 c 0,21,22
 1115.4 379 1115.4 379 993 175 c 128,-1,23
 870.6 -29 870.6 -29 651 -29 c 0,12,13
EndSplineSet
EndChar
StartChar: one
Encoding: 49 49 20
Width: 1235
Flags: HW
Fore
325 0 m 1,0,-1
 325 106 l 1,1,-1
 559 106 l 1,2,-1
 559 1348 l 1,3,-1
 288.1 1153 l 1,4,-1
 288.1 1284 l 1,5,-1
 615.7 1520 l 1,6,-1
 739.9 1520 l 1,7,-1
 739.9 106 l 1,8,-1
 973.9 106 l 1,9,-1
 973.9 0 l 1,10,-1
 325 0 l 1,0,-1
EndSplineSet
EndChar
StartChar: two
Encoding: 50 50 21
Width: 1234
Flags: HW
Fore
297.85 1137 m 1,0,-1
 197.05 1137 l 1,1,-1
 197.05 1403 l 1,2,3
 293.35 1460 293.35 1460 391 1490 c 128,-1,4
 488.65 1520 488.65 1520 582.25 1520 c 0,5,6
 791.95 1520 791.95 1520 913.45 1407 c 128,-1,7
 1034.95 1294 1034.95 1294 1034.95 1100 c 0,8,9
 1034.95 881 1034.95 881 759.55 576 c 0,10,11
 737.95 553 737.95 553 727.15 541 c 2,12,-1
 387.85 164 l 1,13,-1
 948.55 164 l 1,14,-1
 948.55 348 l 1,15,-1
 1053.85 348 l 1,16,-1
 1053.85 0 l 1,17,-1
 187.15 0 l 1,18,-1
 187.15 109 l 1,19,-1
 594.85 561 l 2,20,21
 729.85 711 729.85 711 787.45 836.5 c 128,-1,22
 845.05 962 845.05 962 845.05 1100 c 0,23,24
 845.05 1251 845.05 1251 774.4 1336 c 128,-1,25
 703.75 1421 703.75 1421 579.55 1421 c 0,26,27
 450.85 1421 450.85 1421 380.65 1350 c 128,-1,28
 310.45 1279 310.45 1279 297.85 1137 c 1,0,-1
EndSplineSet
EndChar
StartChar: three
Encoding: 51 51 22
Width: 1238
Flags: HW
Fore
244.45 1430 m 1,0,1
 349.75 1474 349.75 1474 446.5 1497 c 128,-1,2
 543.25 1520 543.25 1520 627.85 1520 c 0,3,4
 824.95 1520 824.95 1520 935.65 1425.5 c 128,-1,5
 1046.35 1331 1046.35 1331 1046.35 1163 c 0,6,7
 1046.35 1028 1046.35 1028 969.85 937.5 c 128,-1,8
 893.35 847 893.35 847 752.95 815 c 1,9,10
 918.55 789 918.55 789 1009.9 681.5 c 128,-1,11
 1101.25 574 1101.25 574 1101.25 403 c 0,12,13
 1101.25 194 1101.25 194 974.8 82.5 c 128,-1,14
 848.35 -29 848.35 -29 610.75 -29 c 0,15,16
 505.45 -29 505.45 -29 405.1 -4 c 128,-1,17
 304.75 21 304.75 21 205.75 72 c 1,18,-1
 205.75 362 l 1,19,-1
 306.55 362 l 1,20,21
 315.55 218 315.55 218 393.85 144 c 128,-1,22
 472.15 70 472.15 70 614.35 70 c 0,23,24
 752.05 70 752.05 70 831.7 158.5 c 128,-1,25
 911.35 247 911.35 247 911.35 401 c 0,26,27
 911.35 577 911.35 577 829.45 667.5 c 128,-1,28
 747.55 758 747.55 758 589.15 758 c 2,29,-1
 503.65 758 l 1,30,-1
 503.65 860 l 1,31,-1
 548.65 860 l 2,32,33
 706.15 860 706.15 860 784.9 932.5 c 128,-1,34
 863.65 1005 863.65 1005 863.65 1151 c 0,35,36
 863.65 1282 863.65 1282 798.85 1351.5 c 128,-1,37
 734.05 1421 734.05 1421 612.55 1421 c 0,38,39
 491.05 1421 491.05 1421 424 1357 c 128,-1,40
 356.95 1293 356.95 1293 345.25 1167 c 1,41,-1
 244.45 1167 l 1,42,-1
 244.45 1430 l 1,0,1
EndSplineSet
EndChar
StartChar: four
Encoding: 52 52 23
Width: 1235
Flags: HW
Fore
706.65 506 m 1,0,-1
 706.65 1300 l 1,1,-1
 247.65 506 l 1,2,-1
 706.65 506 l 1,0,-1
1102.65 0 m 1,3,-1
 490.65 0 l 1,4,-1
 490.65 106 l 1,5,-1
 706.65 106 l 1,6,-1
 706.65 399 l 1,7,-1
 119.85 399 l 1,8,-1
 119.85 508 l 1,9,-1
 708.45 1520 l 1,10,-1
 886.65 1520 l 1,11,-1
 886.65 506 l 1,12,-1
 1143.15 506 l 1,13,-1
 1143.15 399 l 1,14,-1
 886.65 399 l 1,15,-1
 886.65 106 l 1,16,-1
 1102.65 106 l 1,17,-1
 1102.65 0 l 1,3,-1
EndSplineSet
EndChar
StartChar: five
Encoding: 53 53 24
Width: 1238
Flags: HW
Fore
992.95 1493 m 1,0,-1
 992.95 1329 l 1,1,-1
 377.35 1329 l 1,2,-1
 377.35 901 l 1,3,4
 424.15 937 424.15 937 486.7 955 c 128,-1,5
 549.25 973 549.25 973 626.65 973 c 0,6,7
 844.45 973 844.45 973 970.45 839 c 128,-1,8
 1096.45 705 1096.45 705 1096.45 473 c 0,9,10
 1096.45 236 1096.45 236 969.1 103.5 c 128,-1,11
 841.75 -29 841.75 -29 611.35 -29 c 0,12,13
 518.65 -29 518.65 -29 421.45 -4 c 128,-1,14
 324.25 21 324.25 21 222.55 72 c 1,15,-1
 222.55 362 l 1,16,-1
 324.25 362 l 1,17,18
 332.35 220 332.35 220 405.7 145 c 128,-1,19
 479.05 70 479.05 70 611.35 70 c 0,20,21
 753.55 70 753.55 70 830.05 174 c 128,-1,22
 906.55 278 906.55 278 906.55 473 c 0,23,24
 906.55 667 906.55 667 830.5 770.5 c 128,-1,25
 754.45 874 754.45 874 611.35 874 c 0,26,27
 530.35 874 530.35 874 468.7 842 c 128,-1,28
 407.05 810 407.05 810 359.35 743 c 1,29,-1
 281.95 743 l 1,30,-1
 281.95 1493 l 1,31,-1
 992.95 1493 l 1,0,-1
EndSplineSet
EndChar
StartChar: six
Encoding: 54 54 25
Width: 1238
Flags: HW
Fore
668.55 70 m 0,0,1
 795.45 70 795.45 70 863.85 173.5 c 128,-1,2
 932.25 277 932.25 277 932.25 471 c 0,3,4
 932.25 665 932.25 665 863.85 768.5 c 128,-1,5
 795.45 872 795.45 872 668.55 872 c 0,6,7
 539.85 872 539.85 872 472.35 772 c 128,-1,8
 404.85 672 404.85 672 404.85 483 c 0,9,10
 404.85 284 404.85 284 473.25 177 c 128,-1,11
 541.65 70 541.65 70 668.55 70 c 0,0,1
375.15 822 m 1,12,13
 436.35 897 436.35 897 513.75 934 c 128,-1,14
 591.15 971 591.15 971 688.35 971 c 0,15,16
 889.05 971 889.05 971 1005.6 837 c 128,-1,17
 1122.15 703 1122.15 703 1122.15 471 c 0,18,19
 1122.15 244 1122.15 244 996.6 107.5 c 128,-1,20
 871.05 -29 871.05 -29 661.35 -29 c 0,21,22
 433.65 -29 433.65 -29 311.25 159.5 c 128,-1,23
 188.85 348 188.85 348 188.85 698 c 0,24,25
 188.85 1090 188.85 1090 333.75 1305 c 128,-1,26
 478.65 1520 478.65 1520 742.35 1520 c 0,27,28
 813.45 1520 813.45 1520 891.75 1505 c 128,-1,29
 970.05 1490 970.05 1490 1051.95 1460 c 1,30,-1
 1051.95 1214 l 1,31,-1
 950.25 1214 l 1,32,33
 939.45 1315 939.45 1315 880.95 1368 c 128,-1,34
 822.45 1421 822.45 1421 723.45 1421 c 0,35,36
 548.85 1421 548.85 1421 463.35 1274 c 128,-1,37
 377.85 1127 377.85 1127 375.15 822 c 1,12,13
EndSplineSet
EndChar
StartChar: seven
Encoding: 55 55 26
Width: 1239
Flags: HW
Fore
1105.85 1391 m 1,0,-1
 580.25 0 l 1,1,-1
 446.15 0 l 1,2,-1
 947.45 1329 l 1,3,-1
 326.45 1329 l 1,4,-1
 326.45 1145 l 1,5,-1
 221.15 1145 l 1,6,-1
 221.15 1493 l 1,7,-1
 1105.85 1493 l 1,8,-1
 1105.85 1391 l 1,0,-1
EndSplineSet
EndChar
StartChar: eight
Encoding: 56 56 27
Width: 1237
Flags: HW
Fore
923.7 408 m 0,0,1
 923.7 568 923.7 568 852.15 656.5 c 128,-1,2
 780.6 745 780.6 745 651 745 c 0,3,4
 521.4 745 521.4 745 449.85 656.5 c 128,-1,5
 378.3 568 378.3 568 378.3 408 c 0,6,7
 378.3 247 378.3 247 449.85 158.5 c 128,-1,8
 521.4 70 521.4 70 651 70 c 0,9,10
 780.6 70 780.6 70 852.15 158.5 c 128,-1,11
 923.7 247 923.7 247 923.7 408 c 0,0,1
886.8 1133 m 0,12,13
 886.8 1269 886.8 1269 824.7 1345 c 128,-1,14
 762.6 1421 762.6 1421 651 1421 c 0,15,16
 540.3 1421 540.3 1421 477.75 1345 c 128,-1,17
 415.2 1269 415.2 1269 415.2 1133 c 0,18,19
 415.2 996 415.2 996 477.75 920 c 128,-1,20
 540.3 844 540.3 844 651 844 c 0,21,22
 762.6 844 762.6 844 824.7 920 c 128,-1,23
 886.8 996 886.8 996 886.8 1133 c 0,12,13
789.6 795 m 1,24,25
 942.6 772 942.6 772 1028.1 669.5 c 128,-1,26
 1113.6 567 1113.6 567 1113.6 408 c 0,27,28
 1113.6 198 1113.6 198 993.9 84.5 c 128,-1,29
 874.2 -29 874.2 -29 651 -29 c 0,30,31
 428.7 -29 428.7 -29 308.55 84.5 c 128,-1,32
 188.4 198 188.4 198 188.4 408 c 0,33,34
 188.4 567 188.4 567 273.9 669.5 c 128,-1,35
 359.4 772 359.4 772 513.3 795 c 1,36,37
 377.4 822 377.4 822 304.95 909.5 c 128,-1,38
 232.5 997 232.5 997 232.5 1133 c 0,39,40
 232.5 1313 232.5 1313 344.1 1416.5 c 128,-1,41
 455.7 1520 455.7 1520 651 1520 c 0,42,43
 846.3 1520 846.3 1520 957.9 1416.5 c 128,-1,44
 1069.5 1313 1069.5 1313 1069.5 1133 c 0,45,46
 1069.5 997 1069.5 997 997.05 909.5 c 128,-1,47
 924.6 822 924.6 822 789.6 795 c 1,24,25
EndSplineSet
EndChar
StartChar: nine
Encoding: 57 57 28
Width: 1237
Flags: HW
Fore
926.9 669 m 1,0,1
 866.6 594 866.6 594 788.3 557 c 128,-1,2
 710 520 710 520 611.9 520 c 0,3,4
 412.1 520 412.1 520 296.45 654 c 128,-1,5
 180.8 788 180.8 788 180.8 1020 c 0,6,7
 180.8 1247 180.8 1247 306.35 1383.5 c 128,-1,8
 431.9 1520 431.9 1520 641.6 1520 c 0,9,10
 869.3 1520 869.3 1520 991.25 1331.5 c 128,-1,11
 1113.2 1143 1113.2 1143 1113.2 793 c 0,12,13
 1113.2 401 1113.2 401 968.3 186 c 128,-1,14
 823.4 -29 823.4 -29 560.6 -29 c 0,15,16
 489.5 -29 489.5 -29 411.2 -14 c 128,-1,17
 332.9 1 332.9 1 251 31 c 1,18,-1
 251 279 l 1,19,-1
 351.8 279 l 1,20,21
 363.5 178 363.5 178 422 124 c 128,-1,22
 480.5 70 480.5 70 578.6 70 c 0,23,24
 753.2 70 753.2 70 838.7 216.5 c 128,-1,25
 924.2 363 924.2 363 926.9 669 c 1,0,1
634.4 1421 m 0,26,27
 506.6 1421 506.6 1421 438.65 1317.5 c 128,-1,28
 370.7 1214 370.7 1214 370.7 1020 c 0,29,30
 370.7 826 370.7 826 438.65 722 c 128,-1,31
 506.6 618 506.6 618 634.4 618 c 0,32,33
 762.2 618 762.2 618 830.15 718.5 c 128,-1,34
 898.1 819 898.1 819 898.1 1008 c 0,35,36
 898.1 1207 898.1 1207 829.7 1314 c 128,-1,37
 761.3 1421 761.3 1421 634.4 1421 c 0,26,27
EndSplineSet
EndChar
StartChar: colon
Encoding: 58 58 29
Width: 655
Flags: HW
Fore
226.3 104 m 0,0,1
 226.3 160 226.3 160 260.95 199 c 128,-1,2
 295.6 238 295.6 238 346 238 c 0,3,4
 396.4 238 396.4 238 431.05 199 c 128,-1,5
 465.7 160 465.7 160 465.7 104 c 0,6,7
 465.7 48 465.7 48 431.5 9.5 c 128,-1,8
 397.3 -29 397.3 -29 346 -29 c 0,9,10
 294.7 -29 294.7 -29 260.5 9.5 c 128,-1,11
 226.3 48 226.3 48 226.3 104 c 0,0,1
226.3 756 m 0,12,13
 226.3 812 226.3 812 260.95 850.5 c 128,-1,14
 295.6 889 295.6 889 346 889 c 0,15,16
 397.3 889 397.3 889 431.5 851 c 128,-1,17
 465.7 813 465.7 813 465.7 756 c 0,18,19
 465.7 699 465.7 699 431.5 661 c 128,-1,20
 397.3 623 397.3 623 346 623 c 0,21,22
 295.6 623 295.6 623 260.95 661.5 c 128,-1,23
 226.3 700 226.3 700 226.3 756 c 0,12,13
EndSplineSet
EndChar
StartChar: semicolon
Encoding: 59 59 30
Width: 648
Flags: HW
Fore
94.4502 -199 m 1,0,1
 179.05 -130 179.05 -130 218.65 -36.5 c 128,-1,2
 258.25 57 258.25 57 258.25 190 c 2,3,-1
 258.25 227 l 1,4,-1
 435.55 227 l 1,5,6
 428.35 56 428.35 56 363.1 -66.5 c 128,-1,7
 297.85 -189 297.85 -189 166.45 -279 c 1,8,-1
 94.4502 -199 l 1,0,1
223.15 756 m 0,9,10
 223.15 812 223.15 812 257.8 850.5 c 128,-1,11
 292.45 889 292.45 889 342.85 889 c 0,12,13
 393.25 889 393.25 889 427.9 850 c 128,-1,14
 462.55 811 462.55 811 462.55 756 c 0,15,16
 462.55 700 462.55 700 427.9 661.5 c 128,-1,17
 393.25 623 393.25 623 342.85 623 c 0,18,19
 292.45 623 292.45 623 257.8 661.5 c 128,-1,20
 223.15 700 223.15 700 223.15 756 c 0,9,10
EndSplineSet
EndChar
StartChar: less
Encoding: 60 60 31
Width: 1630
Flags: HW
Fore
1434.9 1020 m 1,0,-1
 500.7 641 l 1,1,-1
 1434.9 264 l 1,2,-1
 1434.9 94 l 1,3,-1
 281.1 559 l 1,4,-1
 281.1 725 l 1,5,-1
 1434.9 1190 l 1,6,-1
 1434.9 1020 l 1,0,-1
EndSplineSet
EndChar
StartChar: equal
Encoding: 61 61 32
Width: 1630
Flags: HW
Fore
281.1 926 m 1,0,-1
 1434.9 926 l 1,1,-1
 1434.9 766 l 1,2,-1
 281.1 766 l 1,3,-1
 281.1 926 l 1,0,-1
281.1 518 m 1,4,-1
 1434.9 518 l 1,5,-1
 1434.9 358 l 1,6,-1
 281.1 358 l 1,7,-1
 281.1 518 l 1,4,-1
EndSplineSet
EndChar
StartChar: greater
Encoding: 62 62 33
Width: 1630
Flags: HW
Fore
281.1 1020 m 1,0,-1
 281.1 1190 l 1,1,-1
 1434.9 725 l 1,2,-1
 1434.9 559 l 1,3,-1
 281.1 94 l 1,4,-1
 281.1 264 l 1,5,-1
 1215.3 641 l 1,6,-1
 281.1 1020 l 1,0,-1
EndSplineSet
EndChar
StartChar: question
Encoding: 63 63 34
Width: 1045
Flags: HW
Fore
380.9 104 m 0,0,1
 380.9 160 380.9 160 415.55 199 c 128,-1,2
 450.2 238 450.2 238 501.5 238 c 0,3,4
 551 238 551 238 586.1 199 c 128,-1,5
 621.2 160 621.2 160 621.2 104 c 0,6,7
 621.2 49 621.2 49 586.1 10 c 128,-1,8
 551 -29 551 -29 501.5 -29 c 0,9,10
 450.2 -29 450.2 -29 415.55 9.5 c 128,-1,11
 380.9 48 380.9 48 380.9 104 c 0,0,1
182 1427 m 1,12,13
 277.4 1474 277.4 1474 363.35 1497 c 128,-1,14
 449.3 1520 449.3 1520 524.9 1520 c 0,15,16
 724.7 1520 724.7 1520 840.35 1413 c 128,-1,17
 956 1306 956 1306 956 1124 c 0,18,19
 956 938 956 938 856.55 820 c 128,-1,20
 757.1 702 757.1 702 556.4 651 c 1,21,-1
 556.4 397 l 1,22,-1
 445.7 397 l 1,23,-1
 445.7 725 l 1,24,25
 605 768 605 768 685.55 869 c 128,-1,26
 766.1 970 766.1 970 766.1 1126 c 0,27,28
 766.1 1263 766.1 1263 700.4 1342 c 128,-1,29
 634.7 1421 634.7 1421 521.3 1421 c 0,30,31
 418.7 1421 418.7 1421 353.45 1355.5 c 128,-1,32
 288.2 1290 288.2 1290 269.3 1167 c 1,33,-1
 182 1167 l 1,34,-1
 182 1427 l 1,12,13
EndSplineSet
EndChar
StartChar: at
Encoding: 64 64 35
Width: 1945
Flags: HW
Fore
1266.5 248 m 1,0,1
 1213.4 166 1213.4 166 1147.25 126 c 128,-1,2
 1081.1 86 1081.1 86 997.4 86 c 0,3,4
 839.9 86 839.9 86 741.8 211 c 128,-1,5
 643.7 336 643.7 336 643.7 537 c 0,6,7
 643.7 738 643.7 738 741.8 862.5 c 128,-1,8
 839.9 987 839.9 987 997.4 987 c 0,9,10
 1081.1 987 1081.1 987 1147.25 947 c 128,-1,11
 1213.4 907 1213.4 907 1266.5 825 c 1,12,-1
 1266.5 967 l 1,13,-1
 1406.9 967 l 1,14,-1
 1406.9 195 l 1,15,16
 1559.9 232 1559.9 232 1644.5 357 c 128,-1,17
 1729.1 482 1729.1 482 1729.1 670 c 0,18,19
 1729.1 781 1729.1 781 1698.5 880 c 128,-1,20
 1667.9 979 1667.9 979 1607.6 1063 c 0,21,22
 1512.2 1196 1512.2 1196 1374.95 1266.5 c 128,-1,23
 1237.7 1337 1237.7 1337 1076.6 1337 c 0,24,25
 995.6 1337 995.6 1337 916.4 1318 c 128,-1,26
 837.2 1299 837.2 1299 759.8 1260 c 0,27,28
 578 1167 578 1167 477.2 978.5 c 128,-1,29
 376.4 790 376.4 790 376.4 543 c 0,30,31
 376.4 376 376.4 376 421.4 235.5 c 128,-1,32
 466.4 95 466.4 95 551.9 -8 c 0,33,34
 650 -127 650 -127 784.55 -189.5 c 128,-1,35
 919.1 -252 919.1 -252 1074.8 -252 c 0,36,37
 1190.9 -252 1190.9 -252 1291.7 -214 c 128,-1,38
 1392.5 -176 1392.5 -176 1478.9 -100 c 1,39,-1
 1526.6 -170 l 1,40,41
 1429.4 -263 1429.4 -263 1306.1 -309.5 c 128,-1,42
 1182.8 -356 1182.8 -356 1036.1 -356 c 0,43,44
 871.4 -356 871.4 -356 721.55 -289.5 c 128,-1,45
 571.7 -223 571.7 -223 459.2 -100 c 0,46,47
 343.1 27 343.1 27 283.25 190.5 c 128,-1,48
 223.4 354 223.4 354 223.4 543 c 0,49,50
 223.4 727 223.4 727 283.7 890 c 128,-1,51
 344 1053 344 1053 459.2 1180 c 0,52,53
 573.5 1306 573.5 1306 728.75 1374 c 128,-1,54
 884 1442 884 1442 1058.6 1442 c 0,55,56
 1251.2 1442 1251.2 1442 1410.05 1359 c 128,-1,57
 1568.9 1276 1568.9 1276 1676 1120 c 0,58,59
 1744.4 1022 1744.4 1022 1779.5 907 c 128,-1,60
 1814.6 792 1814.6 792 1814.6 668 c 0,61,62
 1814.6 400 1814.6 400 1667.9 244.5 c 128,-1,63
 1521.2 89 1521.2 89 1267.4 86 c 1,64,-1
 1266.5 248 l 1,0,1
1266.5 485 m 2,65,-1
 1266.5 590 l 2,66,67
 1266.5 715 1266.5 715 1202.15 792.5 c 128,-1,68
 1137.8 870 1137.8 870 1034.3 870 c 0,69,70
 925.4 870 925.4 870 864.65 782.5 c 128,-1,71
 803.9 695 803.9 695 803.9 537 c 0,72,73
 803.9 378 803.9 378 865.1 290.5 c 128,-1,74
 926.3 203 926.3 203 1036.1 203 c 0,75,76
 1138.7 203 1138.7 203 1202.6 281.5 c 128,-1,77
 1266.5 360 1266.5 360 1266.5 485 c 2,65,-1
EndSplineSet
EndChar
StartChar: A
Encoding: 65 65 36
Width: 1405
Flags: HW
Fore
443.35 541 m 1,0,-1
 936.55 541 l 1,1,-1
 689.95 1251 l 1,2,-1
 443.35 541 l 1,0,-1
63.5498 0 m 1,3,-1
 63.5498 106 l 1,4,-1
 181.45 106 l 1,5,-1
 660.25 1493 l 1,6,-1
 811.45 1493 l 1,7,-1
 1291.15 106 l 1,8,-1
 1423.45 106 l 1,9,-1
 1423.45 0 l 1,10,-1
 934.75 0 l 1,11,-1
 934.75 106 l 1,12,-1
 1084.15 106 l 1,13,-1
 971.65 434 l 1,14,-1
 406.45 434 l 1,15,-1
 293.95 106 l 1,16,-1
 441.55 106 l 1,17,-1
 441.55 0 l 1,18,-1
 63.5498 0 l 1,3,-1
EndSplineSet
KernsSLIF: 357 -36 0 0 356 -112 0 0 253 -83 0 0 221 -83 0 0 64258 -36 0 0 64257 -36 0 0 376 -83 0 0 255 -83 0 0 8217 -301 0 0 8221 -301 0 0 121 -83 0 0 119 -92 0 0 118 -83 0 0 116 -36 0 0 102 -36 0 0 89 -83 0 0 87 -83 0 0 86 -102 0 0 84 -112 0 0
EndChar
StartChar: B
Encoding: 66 66 37
Width: 1429
Flags: HW
Fore
530.05 106 m 1,0,-1
 799.15 106 l 2,1,2
 961.15 106 961.15 106 1035.85 184 c 128,-1,3
 1110.55 262 1110.55 262 1110.55 432 c 0,4,5
 1110.55 601 1110.55 601 1036.3 678.5 c 128,-1,6
 962.05 756 962.05 756 799.15 756 c 2,7,-1
 530.05 756 l 1,8,-1
 530.05 106 l 1,0,-1
530.05 862 m 1,9,-1
 758.65 862 l 2,10,11
 906.25 862 906.25 862 974.2 925 c 128,-1,12
 1042.15 988 1042.15 988 1042.15 1124 c 0,13,14
 1042.15 1261 1042.15 1261 974.2 1323.5 c 128,-1,15
 906.25 1386 906.25 1386 758.65 1386 c 2,16,-1
 530.05 1386 l 1,17,-1
 530.05 862 l 1,9,-1
176.35 0 m 1,18,-1
 176.35 106 l 1,19,-1
 347.35 106 l 1,20,-1
 347.35 1386 l 1,21,-1
 176.35 1386 l 1,22,-1
 176.35 1493 l 1,23,-1
 839.65 1493 l 2,24,25
 1043.05 1493 1043.05 1493 1146.1 1400.5 c 128,-1,26
 1249.15 1308 1249.15 1308 1249.15 1124 c 0,27,28
 1249.15 991 1249.15 991 1177.6 912 c 128,-1,29
 1106.05 833 1106.05 833 968.35 815 c 1,30,31
 1139.35 791 1139.35 791 1228 693.5 c 128,-1,32
 1316.65 596 1316.65 596 1316.65 432 c 0,33,34
 1316.65 210 1316.65 210 1190.65 105 c 128,-1,35
 1064.65 0 1064.65 0 797.35 0 c 2,36,-1
 176.35 0 l 1,18,-1
EndSplineSet
KernsSLIF: 268 38 0 0 262 38 0 0 286 38 0 0 221 -36 0 0 210 38 0 0 212 38 0 0 211 38 0 0 376 -36 0 0 338 38 0 0 213 38 0 0 216 38 0 0 214 38 0 0 199 38 0 0 89 -36 0 0 79 38 0 0 71 38 0 0 67 38 0 0 45 38 0 0
EndChar
StartChar: C
Encoding: 67 67 38
Width: 1488
Flags: HW
Fore
1377.55 395 m 1,0,1
 1318.15 186 1318.15 186 1178.2 78.5 c 128,-1,2
 1038.25 -29 1038.25 -29 824.05 -29 c 0,3,4
 692.65 -29 692.65 -29 580.15 21 c 128,-1,5
 467.65 71 467.65 71 380.35 168 c 0,6,7
 279.55 280 279.55 280 230.5 422.5 c 128,-1,8
 181.45 565 181.45 565 181.45 745 c 0,9,10
 181.45 1093 181.45 1093 362.35 1306.5 c 128,-1,11
 543.25 1520 543.25 1520 839.35 1520 c 0,12,13
 949.15 1520 949.15 1520 1073.35 1488 c 128,-1,14
 1197.55 1456 1197.55 1456 1340.65 1391 c 1,15,-1
 1340.65 1047 l 1,16,-1
 1238.95 1047 l 1,17,18
 1205.65 1235 1205.65 1235 1105.3 1324 c 128,-1,19
 1004.95 1413 1004.95 1413 824.05 1413 c 0,20,21
 608.95 1413 608.95 1413 498.25 1243.5 c 128,-1,22
 387.55 1074 387.55 1074 387.55 745 c 0,23,24
 387.55 417 387.55 417 498.25 247.5 c 128,-1,25
 608.95 78 608.95 78 824.05 78 c 0,26,27
 974.35 78 974.35 78 1071.55 157.5 c 128,-1,28
 1168.75 237 1168.75 237 1211.95 395 c 1,29,-1
 1377.55 395 l 1,0,1
EndSplineSet
KernsSLIF: 46 -73 0 0 44 -73 0 0
EndChar
StartChar: D
Encoding: 68 68 39
Width: 1559
Flags: HW
Fore
537.25 106 m 1,0,-1
 704.65 106 l 2,1,2
 966.55 106 966.55 106 1106.5 272 c 128,-1,3
 1246.45 438 1246.45 438 1246.45 748 c 0,4,5
 1246.45 1058 1246.45 1058 1106.95 1222 c 128,-1,6
 967.45 1386 967.45 1386 704.65 1386 c 2,7,-1
 537.25 1386 l 1,8,-1
 537.25 106 l 1,0,-1
183.55 0 m 1,9,-1
 183.55 106 l 1,10,-1
 354.55 106 l 1,11,-1
 354.55 1386 l 1,12,-1
 183.55 1386 l 1,13,-1
 183.55 1493 l 1,14,-1
 718.15 1493 l 2,15,16
 1065.55 1493 1065.55 1493 1259.5 1296 c 128,-1,17
 1453.45 1099 1453.45 1099 1453.45 748 c 0,18,19
 1453.45 396 1453.45 396 1259.05 198 c 128,-1,20
 1064.65 0 1064.65 0 718.15 0 c 2,21,-1
 183.55 0 l 1,9,-1
EndSplineSet
KernsSLIF: 86 -36 0 0 46 -73 0 0 45 38 0 0 44 -73 0 0
EndChar
StartChar: E
Encoding: 69 69 40
Width: 1417
Flags: HW
Fore
173.9 0 m 1,0,-1
 173.9 106 l 1,1,-1
 344.9 106 l 1,2,-1
 344.9 1386 l 1,3,-1
 173.9 1386 l 1,4,-1
 173.9 1493 l 1,5,-1
 1255.7 1493 l 1,6,-1
 1255.7 1161 l 1,7,-1
 1145 1161 l 1,8,-1
 1145 1370 l 1,9,-1
 527.6 1370 l 1,10,-1
 527.6 870 l 1,11,-1
 967.7 870 l 1,12,-1
 967.7 1057 l 1,13,-1
 1078.4 1057 l 1,14,-1
 1078.4 561 l 1,15,-1
 967.7 561 l 1,16,-1
 967.7 748 l 1,17,-1
 527.6 748 l 1,18,-1
 527.6 123 l 1,19,-1
 1159.4 123 l 1,20,-1
 1159.4 332 l 1,21,-1
 1270.1 332 l 1,22,-1
 1270.1 0 l 1,23,-1
 173.9 0 l 1,0,-1
EndSplineSet
KernsSLIF: 45 38 0 0
EndChar
StartChar: F
Encoding: 70 70 41
Width: 1351
Flags: HW
Fore
174.1 0 m 1,0,-1
 174.1 106 l 1,1,-1
 345.1 106 l 1,2,-1
 345.1 1386 l 1,3,-1
 174.1 1386 l 1,4,-1
 174.1 1493 l 1,5,-1
 1273.9 1493 l 1,6,-1
 1273.9 1161 l 1,7,-1
 1163.2 1161 l 1,8,-1
 1163.2 1370 l 1,9,-1
 527.8 1370 l 1,10,-1
 527.8 870 l 1,11,-1
 986.8 870 l 1,12,-1
 986.8 1057 l 1,13,-1
 1097.5 1057 l 1,14,-1
 1097.5 561 l 1,15,-1
 986.8 561 l 1,16,-1
 986.8 748 l 1,17,-1
 527.8 748 l 1,18,-1
 527.8 106 l 1,19,-1
 742.9 106 l 1,20,-1
 742.9 0 l 1,21,-1
 174.1 0 l 1,0,-1
EndSplineSet
KernsSLIF: 283 -112 0 0 193 -178 0 0 194 -178 0 0 339 -112 0 0 195 -178 0 0 192 -178 0 0 248 -112 0 0 230 -139 0 0 245 -112 0 0 246 -112 0 0 244 -112 0 0 242 -112 0 0 243 -112 0 0 235 -112 0 0 234 -112 0 0 232 -112 0 0 233 -112 0 0 229 -139 0 0 227 -139 0 0 228 -139 0 0 226 -139 0 0 224 -139 0 0 225 -139 0 0 196 -178 0 0 111 -112 0 0 101 -112 0 0 97 -139 0 0 65 -178 0 0 59 -73 0 0 58 -73 0 0 46 -319 0 0 45 -92 0 0 44 -319 0 0
EndChar
StartChar: G
Encoding: 71 71 42
Width: 1551
Flags: HW
Fore
1259.4 1047 m 1,0,1
 1227.9 1234 1227.9 1234 1128 1323.5 c 128,-1,2
 1028.1 1413 1028.1 1413 849.9 1413 c 0,3,4
 617.7 1413 617.7 1413 503.4 1247 c 128,-1,5
 389.1 1081 389.1 1081 389.1 745 c 0,6,7
 389.1 416 389.1 416 507 247 c 128,-1,8
 624.9 78 624.9 78 853.5 78 c 0,9,10
 955.2 78 955.2 78 1047.9 106 c 128,-1,11
 1140.6 134 1140.6 134 1224.3 190 c 1,12,-1
 1224.3 575 l 1,13,-1
 971.4 575 l 1,14,-1
 971.4 682 l 1,15,-1
 1407 682 l 1,16,-1
 1407 125 l 1,17,18
 1287.3 48 1287.3 48 1149.15 9.5 c 128,-1,19
 1011 -29 1011 -29 853.5 -29 c 0,20,21
 549.3 -29 549.3 -29 366.15 182.5 c 128,-1,22
 183 394 183 394 183 745 c 0,23,24
 183 1099 183 1099 366.6 1309.5 c 128,-1,25
 550.2 1520 550.2 1520 860.7 1520 c 0,26,27
 975.9 1520 975.9 1520 1098.75 1490.5 c 128,-1,28
 1221.6 1461 1221.6 1461 1360.2 1401 c 1,29,-1
 1360.2 1047 l 1,30,-1
 1259.4 1047 l 1,0,1
EndSplineSet
KernsSLIF: 221 -36 0 0 376 -36 0 0 89 -36 0 0 46 -73 0 0 45 38 0 0 44 -73 0 0
EndChar
StartChar: H
Encoding: 72 72 43
Width: 1696
Flags: HW
Fore
191 0 m 1,0,-1
 191 106 l 1,1,-1
 362 106 l 1,2,-1
 362 1386 l 1,3,-1
 191 1386 l 1,4,-1
 191 1493 l 1,5,-1
 715.7 1493 l 1,6,-1
 715.7 1386 l 1,7,-1
 544.7 1386 l 1,8,-1
 544.7 870 l 1,9,-1
 1241.3 870 l 1,10,-1
 1241.3 1386 l 1,11,-1
 1070.3 1386 l 1,12,-1
 1070.3 1493 l 1,13,-1
 1595 1493 l 1,14,-1
 1595 1386 l 1,15,-1
 1424 1386 l 1,16,-1
 1424 106 l 1,17,-1
 1595 106 l 1,18,-1
 1595 0 l 1,19,-1
 1070.3 0 l 1,20,-1
 1070.3 106 l 1,21,-1
 1241.3 106 l 1,22,-1
 1241.3 748 l 1,23,-1
 544.7 748 l 1,24,-1
 544.7 106 l 1,25,-1
 715.7 106 l 1,26,-1
 715.7 0 l 1,27,-1
 191 0 l 1,0,-1
EndSplineSet
EndChar
StartChar: I
Encoding: 73 73 44
Width: 768
Flags: HW
Fore
495.85 106 m 1,0,-1
 666.85 106 l 1,1,-1
 666.85 0 l 1,2,-1
 142.15 0 l 1,3,-1
 142.15 106 l 1,4,-1
 313.15 106 l 1,5,-1
 313.15 1386 l 1,6,-1
 142.15 1386 l 1,7,-1
 142.15 1493 l 1,8,-1
 666.85 1493 l 1,9,-1
 666.85 1386 l 1,10,-1
 495.85 1386 l 1,11,-1
 495.85 106 l 1,0,-1
EndSplineSet
EndChar
StartChar: J
Encoding: 74 74 45
Width: 766
Flags: HW
Fore
-127.05 -358 m 1,0,-1
 -127.05 -123 l 1,1,-1
 -24.4502 -123 l 1,2,3
 -21.75 -222 -21.75 -222 17.8496 -270.5 c 128,-1,4
 57.4502 -319 57.4502 -319 136.65 -319 c 0,5,6
 243.75 -319 243.75 -319 286.05 -244 c 128,-1,7
 328.35 -169 328.35 -169 328.35 49 c 2,8,-1
 328.35 1386 l 1,9,-1
 119.55 1386 l 1,10,-1
 119.55 1493 l 1,11,-1
 682.05 1493 l 1,12,-1
 682.05 1386 l 1,13,-1
 511.05 1386 l 1,14,-1
 511.05 41 l 2,15,16
 511.05 -206 511.05 -206 421.95 -316 c 128,-1,17
 332.85 -426 332.85 -426 134.85 -426 c 0,18,19
 70.9502 -426 70.9502 -426 4.7998 -409 c 128,-1,20
 -61.3496 -392 -61.3496 -392 -127.05 -358 c 1,0,-1
EndSplineSet
KernsSLIF: 59 -83 0 0 58 -83 0 0 46 -159 0 0 44 -120 0 0
EndChar
StartChar: K
Encoding: 75 75 46
Width: 1460
Flags: HW
Fore
185.4 0 m 1,0,-1
 185.4 106 l 1,1,-1
 356.4 106 l 1,2,-1
 356.4 1386 l 1,3,-1
 185.4 1386 l 1,4,-1
 185.4 1493 l 1,5,-1
 710.1 1493 l 1,6,-1
 710.1 1386 l 1,7,-1
 539.1 1386 l 1,8,-1
 539.1 821 l 1,9,-1
 1117.8 1386 l 1,10,-1
 972 1386 l 1,11,-1
 972 1493 l 1,12,-1
 1418.4 1493 l 1,13,-1
 1418.4 1386 l 1,14,-1
 1267.2 1386 l 1,15,-1
 690.3 823 l 1,16,-1
 1335.6 106 l 1,17,-1
 1488.6 106 l 1,18,-1
 1488.6 0 l 1,19,-1
 1176.3 0 l 1,20,-1
 539.1 709 l 1,21,-1
 539.1 106 l 1,22,-1
 710.1 106 l 1,23,-1
 710.1 0 l 1,24,-1
 185.4 0 l 1,0,-1
EndSplineSet
KernsSLIF: 367 -45 0 0 366 -73 0 0 283 -55 0 0 268 -55 0 0 262 -55 0 0 253 -131 0 0 221 -55 0 0 217 -73 0 0 219 -73 0 0 218 -73 0 0 210 -55 0 0 212 -55 0 0 211 -55 0 0 193 -83 0 0 194 -83 0 0 376 -55 0 0 255 -131 0 0 339 -55 0 0 338 -55 0 0 213 -55 0 0 195 -83 0 0 192 -83 0 0 248 -36 0 0 216 -55 0 0 252 -45 0 0 251 -45 0 0 249 -45 0 0 250 -45 0 0 245 -55 0 0 246 -55 0 0 244 -55 0 0 242 -55 0 0 243 -55 0 0 235 -55 0 0 234 -55 0 0 232 -55 0 0 233 -55 0 0 220 -73 0 0 214 -55 0 0 199 -55 0 0 196 -83 0 0 121 -131 0 0 117 -45 0 0 111 -55 0 0 101 -55 0 0 89 -55 0 0 87 -73 0 0 85 -73 0 0 79 -55 0 0 67 -55 0 0 65 -83 0 0 45 -149 0 0
EndChar
StartChar: L
Encoding: 76 76 47
Width: 1295
Flags: HW
Fore
172.9 0 m 1,0,-1
 172.9 106 l 1,1,-1
 343.9 106 l 1,2,-1
 343.9 1386 l 1,3,-1
 172.9 1386 l 1,4,-1
 172.9 1493 l 1,5,-1
 697.6 1493 l 1,6,-1
 697.6 1386 l 1,7,-1
 526.6 1386 l 1,8,-1
 526.6 123 l 1,9,-1
 1140.4 123 l 1,10,-1
 1140.4 373 l 1,11,-1
 1251.1 373 l 1,12,-1
 1251.1 0 l 1,13,-1
 172.9 0 l 1,0,-1
EndSplineSet
KernsSLIF: 366 -112 0 0 356 -167 0 0 253 -36 0 0 221 -131 0 0 217 -112 0 0 219 -112 0 0 218 -112 0 0 376 -131 0 0 255 -36 0 0 8217 -491 0 0 8221 -491 0 0 220 -112 0 0 121 -36 0 0 89 -131 0 0 87 -178 0 0 86 -243 0 0 85 -112 0 0 84 -167 0 0
EndChar
StartChar: M
Encoding: 77 77 48
Width: 1992
Flags: HW
Fore
206.45 0 m 1,0,-1
 206.45 106 l 1,1,-1
 377.45 106 l 1,2,-1
 377.45 1386 l 1,3,-1
 196.55 1386 l 1,4,-1
 196.55 1493 l 1,5,-1
 588.05 1493 l 1,6,-1
 1059.65 430 l 1,7,-1
 1531.25 1493 l 1,8,-1
 1898.45 1493 l 1,9,-1
 1898.45 1386 l 1,10,-1
 1719.35 1386 l 1,11,-1
 1719.35 106 l 1,12,-1
 1891.25 106 l 1,13,-1
 1891.25 0 l 1,14,-1
 1365.65 0 l 1,15,-1
 1365.65 106 l 1,16,-1
 1536.65 106 l 1,17,-1
 1536.65 1260 l 1,18,-1
 1075.85 219 l 1,19,-1
 948.95 219 l 1,20,-1
 488.15 1260 l 1,21,-1
 488.15 106 l 1,22,-1
 659.15 106 l 1,23,-1
 659.15 0 l 1,24,-1
 206.45 0 l 1,0,-1
EndSplineSet
EndChar
StartChar: N
Encoding: 78 78 49
Width: 1702
Flags: HW
Fore
180.1 0 m 1,0,-1
 180.1 106 l 1,1,-1
 361 106 l 1,2,-1
 361 1386 l 1,3,-1
 180.1 1386 l 1,4,-1
 180.1 1493 l 1,5,-1
 524.8 1493 l 1,6,-1
 1330.3 315 l 1,7,-1
 1330.3 1386 l 1,8,-1
 1150.3 1386 l 1,9,-1
 1150.3 1493 l 1,10,-1
 1621.9 1493 l 1,11,-1
 1621.9 1386 l 1,12,-1
 1441 1386 l 1,13,-1
 1441 -29 l 1,14,-1
 1332.1 -29 l 1,15,-1
 471.7 1229 l 1,16,-1
 471.7 106 l 1,17,-1
 652.6 106 l 1,18,-1
 652.6 0 l 1,19,-1
 180.1 0 l 1,0,-1
EndSplineSet
KernsSLIF: 59 -73 0 0 58 -73 0 0 46 -131 0 0 44 -131 0 0
EndChar
StartChar: O
Encoding: 79 79 50
Width: 1595
Flags: HW
Fore
840 78 m 0,0,1
 1060.5 78 1060.5 78 1173 246.5 c 128,-1,2
 1285.5 415 1285.5 415 1285.5 745 c 0,3,4
 1285.5 1076 1285.5 1076 1173 1244.5 c 128,-1,5
 1060.5 1413 1060.5 1413 840 1413 c 0,6,7
 618.6 1413 618.6 1413 506.1 1244.5 c 128,-1,8
 393.6 1076 393.6 1076 393.6 745 c 0,9,10
 393.6 415 393.6 415 506.1 246.5 c 128,-1,11
 618.6 78 618.6 78 840 78 c 0,0,1
840 -29 m 0,12,13
 703.2 -29 703.2 -29 588.45 21 c 128,-1,14
 473.7 71 473.7 71 386.4 168 c 0,15,16
 285.6 280 285.6 280 236.55 422 c 128,-1,17
 187.5 564 187.5 564 187.5 745 c 0,18,19
 187.5 926 187.5 926 236.55 1068.5 c 128,-1,20
 285.6 1211 285.6 1211 386.4 1323 c 0,21,22
 474.6 1421 474.6 1421 588 1470.5 c 128,-1,23
 701.4 1520 701.4 1520 840 1520 c 0,24,25
 1132.5 1520 1132.5 1520 1312.5 1307 c 128,-1,26
 1492.5 1094 1492.5 1094 1492.5 745 c 0,27,28
 1492.5 566 1492.5 566 1443 422.5 c 128,-1,29
 1393.5 279 1393.5 279 1292.7 168 c 0,30,31
 1204.5 70 1204.5 70 1091.1 20.5 c 128,-1,32
 977.7 -29 977.7 -29 840 -29 c 0,12,13
EndSplineSet
KernsSLIF: 88 -36 0 0 86 -36 0 0 46 -120 0 0 45 75 0 0 44 -120 0 0
EndChar
StartChar: P
Encoding: 80 80 51
Width: 1311
Flags: HW
Fore
526.3 760 m 1,0,-1
 763.9 760 l 2,1,2
 898 760 898 760 968.2 840.5 c 128,-1,3
 1038.4 921 1038.4 921 1038.4 1073 c 0,4,5
 1038.4 1226 1038.4 1226 968.2 1306 c 128,-1,6
 898 1386 898 1386 763.9 1386 c 2,7,-1
 526.3 1386 l 1,8,-1
 526.3 760 l 1,0,-1
172.6 0 m 1,9,-1
 172.6 106 l 1,10,-1
 343.6 106 l 1,11,-1
 343.6 1386 l 1,12,-1
 172.6 1386 l 1,13,-1
 172.6 1493 l 1,14,-1
 808 1493 l 2,15,16
 1009.6 1493 1009.6 1493 1127.5 1379.5 c 128,-1,17
 1245.4 1266 1245.4 1266 1245.4 1073 c 0,18,19
 1245.4 881 1245.4 881 1127.5 767 c 128,-1,20
 1009.6 653 1009.6 653 808 653 c 2,21,-1
 526.3 653 l 1,22,-1
 526.3 106 l 1,23,-1
 734.2 106 l 1,24,-1
 734.2 0 l 1,25,-1
 172.6 0 l 1,9,-1
EndSplineSet
KernsSLIF: 366 -36 0 0 283 -92 0 0 351 -55 0 0 353 -55 0 0 217 -36 0 0 219 -36 0 0 218 -36 0 0 193 -188 0 0 194 -188 0 0 339 -83 0 0 195 -188 0 0 192 -188 0 0 248 -83 0 0 230 -92 0 0 245 -83 0 0 246 -83 0 0 244 -83 0 0 242 -83 0 0 243 -83 0 0 235 -92 0 0 234 -92 0 0 232 -92 0 0 233 -92 0 0 229 -92 0 0 227 -92 0 0 228 -92 0 0 226 -92 0 0 224 -92 0 0 225 -92 0 0 220 -36 0 0 196 -188 0 0 115 -55 0 0 111 -83 0 0 101 -92 0 0 97 -92 0 0 85 -36 0 0 65 -188 0 0 59 -73 0 0 58 -73 0 0 46 -415 0 0 45 -112 0 0 44 -415 0 0
EndChar
StartChar: Q
Encoding: 81 81 52
Width: 1595
Flags: HW
Fore
861.6 -29 m 1,0,1
 552.9 -29 552.9 -29 370.2 181.5 c 128,-1,2
 187.5 392 187.5 392 187.5 745 c 0,3,4
 187.5 926 187.5 926 236.55 1068.5 c 128,-1,5
 285.6 1211 285.6 1211 386.4 1323 c 0,6,7
 474.6 1421 474.6 1421 588 1470.5 c 128,-1,8
 701.4 1520 701.4 1520 840 1520 c 0,9,10
 1132.5 1520 1132.5 1520 1312.5 1307 c 128,-1,11
 1492.5 1094 1492.5 1094 1492.5 745 c 0,12,13
 1492.5 449 1492.5 449 1357.5 247.5 c 128,-1,14
 1222.5 46 1222.5 46 984.9 -12 c 1,15,16
 1033.5 -79 1033.5 -79 1103.25 -111 c 128,-1,17
 1173 -143 1173 -143 1271.1 -143 c 2,18,-1
 1299 -143 l 1,19,-1
 1299 -328 l 1,20,21
 1146.9 -320 1146.9 -320 1038.45 -245.5 c 128,-1,22
 930 -171 930 -171 861.6 -29 c 1,0,1
840 78 m 0,23,24
 1060.5 78 1060.5 78 1173 246.5 c 128,-1,25
 1285.5 415 1285.5 415 1285.5 745 c 0,26,27
 1285.5 1076 1285.5 1076 1173 1244.5 c 128,-1,28
 1060.5 1413 1060.5 1413 840 1413 c 0,29,30
 618.6 1413 618.6 1413 506.1 1244.5 c 128,-1,31
 393.6 1076 393.6 1076 393.6 745 c 0,32,33
 393.6 415 393.6 415 506.1 246.5 c 128,-1,34
 618.6 78 618.6 78 840 78 c 0,23,24
EndSplineSet
KernsSLIF: 8217 38 0 0 8221 38 0 0 46 -102 0 0 45 75 0 0 44 -102 0 0
EndChar
StartChar: R
Encoding: 82 82 53
Width: 1473
Flags: HW
Fore
968.1 741 m 1,0,1
 1031.1 722 1031.1 722 1076.55 676.5 c 128,-1,2
 1122 631 1122 631 1158 549 c 2,3,-1
 1353.3 106 l 1,4,-1
 1517.1 106 l 1,5,-1
 1517.1 0 l 1,6,-1
 1200.3 0 l 1,7,-1
 990.6 475 l 1,8,9
 930.3 613 930.3 613 879.9 653.5 c 128,-1,10
 829.5 694 829.5 694 741.3 694 c 2,11,-1
 540.6 694 l 1,12,-1
 540.6 106 l 1,13,-1
 730.5 106 l 1,14,-1
 730.5 0 l 1,15,-1
 186.9 0 l 1,16,-1
 186.9 106 l 1,17,-1
 357.9 106 l 1,18,-1
 357.9 1386 l 1,19,-1
 186.9 1386 l 1,20,-1
 186.9 1493 l 1,21,-1
 868.2 1493 l 2,22,23
 1064.4 1493 1064.4 1493 1171.05 1389 c 128,-1,24
 1277.7 1285 1277.7 1285 1277.7 1094 c 0,25,26
 1277.7 940 1277.7 940 1199.85 851.5 c 128,-1,27
 1122 763 1122 763 968.1 741 c 1,0,1
540.6 801 m 1,28,-1
 806.1 801 l 2,29,30
 942 801 942 801 1006.8 872.5 c 128,-1,31
 1071.6 944 1071.6 944 1071.6 1094 c 0,32,33
 1071.6 1244 1071.6 1244 1006.8 1315 c 128,-1,34
 942 1386 942 1386 806.1 1386 c 2,35,-1
 540.6 1386 l 1,36,-1
 540.6 801 l 1,28,-1
EndSplineSet
KernsSLIF: 356 -36 0 0 253 -36 0 0 221 -63 0 0 376 -63 0 0 255 -36 0 0 8217 -112 0 0 8221 -112 0 0 248 38 0 0 230 47 0 0 229 47 0 0 227 47 0 0 228 47 0 0 226 47 0 0 224 47 0 0 225 47 0 0 121 -36 0 0 97 47 0 0 89 -63 0 0 87 -45 0 0 86 -73 0 0 84 -36 0 0
EndChar
StartChar: S
Encoding: 83 83 54
Width: 1333
Flags: HW
Fore
242.25 72 m 1,0,-1
 242.25 412 l 1,1,-1
 345.75 411 l 1,2,3
 350.25 241 350.25 241 434.4 159.5 c 128,-1,4
 518.55 78 518.55 78 690.45 78 c 0,5,6
 850.65 78 850.65 78 934.8 148.5 c 128,-1,7
 1018.95 219 1018.95 219 1018.95 354 c 0,8,9
 1018.95 462 1018.95 462 968.1 520 c 128,-1,10
 917.25 578 917.25 578 753.45 633 c 2,11,-1
 576.15 692 l 2,12,13
 383.55 757 383.55 757 304.8 854 c 128,-1,14
 226.05 951 226.05 951 226.05 1120 c 0,15,16
 226.05 1310 226.05 1310 347.55 1415 c 128,-1,17
 469.05 1520 469.05 1520 688.65 1520 c 0,18,19
 782.25 1520 782.25 1520 893.85 1497.5 c 128,-1,20
 1005.45 1475 1005.45 1475 1131.45 1432 c 1,21,-1
 1131.45 1114 l 1,22,-1
 1029.75 1114 l 1,23,24
 1014.45 1272 1014.45 1272 934.8 1342.5 c 128,-1,25
 855.15 1413 855.15 1413 692.25 1413 c 0,26,27
 550.05 1413 550.05 1413 475.8 1348.5 c 128,-1,28
 401.55 1284 401.55 1284 401.55 1161 c 0,29,30
 401.55 1054 401.55 1054 457.35 993 c 128,-1,31
 513.15 932 513.15 932 694.05 872 c 2,32,-1
 860.55 817 l 2,33,34
 1043.25 756 1043.25 756 1121.1 661.5 c 128,-1,35
 1198.95 567 1198.95 567 1198.95 408 c 0,36,37
 1198.95 191 1198.95 191 1073.85 81 c 128,-1,38
 948.75 -29 948.75 -29 701.25 -29 c 0,39,40
 590.55 -29 590.55 -29 475.8 -4 c 128,-1,41
 361.05 21 361.05 21 242.25 72 c 1,0,-1
EndSplineSet
KernsSLIF: 350 -36 0 0 352 -36 0 0 83 -36 0 0 46 -73 0 0 45 75 0 0 44 -73 0 0
EndChar
StartChar: T
Encoding: 84 84 55
Width: 1297
Flags: HW
Fore
420.2 0 m 1,0,-1
 420.2 106 l 1,1,-1
 592.1 106 l 1,2,-1
 592.1 1374 l 1,3,-1
 197 1374 l 1,4,-1
 197 1141 l 1,5,-1
 86.2998 1141 l 1,6,-1
 86.2998 1493 l 1,7,-1
 1279.7 1493 l 1,8,-1
 1279.7 1141 l 1,9,-1
 1169 1141 l 1,10,-1
 1169 1374 l 1,11,-1
 773.9 1374 l 1,12,-1
 773.9 106 l 1,13,-1
 945.8 106 l 1,14,-1
 945.8 0 l 1,15,-1
 420.2 0 l 1,0,-1
EndSplineSet
KernsSLIF: 356 38 0 0 283 -159 0 0 269 -159 0 0 263 -159 0 0 351 -149 0 0 353 -149 0 0 193 -112 0 0 194 -112 0 0 339 -159 0 0 195 -112 0 0 192 -112 0 0 248 -159 0 0 230 -159 0 0 245 -159 0 0 246 -159 0 0 244 -159 0 0 242 -159 0 0 243 -159 0 0 235 -159 0 0 234 -159 0 0 232 -159 0 0 233 -159 0 0 231 -159 0 0 229 -159 0 0 227 -159 0 0 228 -159 0 0 226 -159 0 0 224 -159 0 0 225 -159 0 0 196 -112 0 0 119 -73 0 0 115 -149 0 0 111 -159 0 0 101 -159 0 0 99 -159 0 0 97 -159 0 0 84 38 0 0 65 -112 0 0 59 -73 0 0 58 -73 0 0 46 -301 0 0 45 -264 0 0 44 -301 0 0
EndChar
StartChar: U
Encoding: 85 85 56
Width: 1639
Flags: HW
Fore
344.8 1386 m 1,0,-1
 172.9 1386 l 1,1,-1
 172.9 1493 l 1,2,-1
 698.5 1493 l 1,3,-1
 698.5 1386 l 1,4,-1
 526.6 1386 l 1,5,-1
 526.6 614 l 2,6,7
 526.6 328 526.6 328 610.75 215 c 128,-1,8
 694.9 102 694.9 102 901 102 c 0,9,10
 1107.1 102 1107.1 102 1191.25 215 c 128,-1,11
 1275.4 328 1275.4 328 1275.4 614 c 2,12,-1
 1275.4 1386 l 1,13,-1
 1103.5 1386 l 1,14,-1
 1103.5 1493 l 1,15,-1
 1557.1 1493 l 1,16,-1
 1557.1 1386 l 1,17,-1
 1386.1 1386 l 1,18,-1
 1386.1 594 l 2,19,20
 1386.1 253 1386.1 253 1268.2 112 c 128,-1,21
 1150.3 -29 1150.3 -29 867.7 -29 c 0,22,23
 585.1 -29 585.1 -29 464.95 113 c 128,-1,24
 344.8 255 344.8 255 344.8 594 c 2,25,-1
 344.8 1386 l 1,0,-1
EndSplineSet
KernsSLIF: 193 -63 0 0 194 -63 0 0 195 -63 0 0 192 -63 0 0 196 -63 0 0 74 -55 0 0 65 -63 0 0 59 -73 0 0 58 -73 0 0 46 -188 0 0 45 -36 0 0 44 -188 0 0
EndChar
StartChar: V
Encoding: 86 86 57
Width: 1405
Flags: HW
Fore
396.65 1386 m 1,0,-1
 793.55 240 l 1,1,-1
 1189.55 1386 l 1,2,-1
 1038.35 1386 l 1,3,-1
 1038.35 1493 l 1,4,-1
 1432.55 1493 l 1,5,-1
 1432.55 1386 l 1,6,-1
 1302.05 1386 l 1,7,-1
 822.35 0 l 1,8,-1
 667.55 0 l 1,9,-1
 190.55 1386 l 1,10,-1
 56.4502 1386 l 1,11,-1
 56.4502 1493 l 1,12,-1
 546.05 1493 l 1,13,-1
 546.05 1386 l 1,14,-1
 396.65 1386 l 1,0,-1
EndSplineSet
KernsSLIF: 367 -131 0 0 283 -188 0 0 253 -83 0 0 210 -36 0 0 212 -36 0 0 211 -36 0 0 193 -139 0 0 194 -139 0 0 255 -83 0 0 8217 75 0 0 8221 75 0 0 339 -188 0 0 338 -36 0 0 213 -36 0 0 195 -139 0 0 192 -139 0 0 248 -188 0 0 230 -188 0 0 216 -36 0 0 252 -131 0 0 251 -131 0 0 249 -131 0 0 250 -131 0 0 245 -188 0 0 246 -188 0 0 244 -188 0 0 242 -188 0 0 243 -188 0 0 235 -188 0 0 234 -188 0 0 232 -188 0 0 233 -188 0 0 229 -188 0 0 227 -188 0 0 228 -188 0 0 226 -188 0 0 224 -188 0 0 225 -188 0 0 214 -36 0 0 196 -139 0 0 121 -83 0 0 117 -131 0 0 111 -188 0 0 105 -36 0 0 101 -188 0 0 97 -188 0 0 79 -36 0 0 65 -139 0 0 59 -206 0 0 58 -206 0 0 46 -358 0 0 45 -188 0 0 44 -358 0 0
EndChar
StartChar: W
Encoding: 87 87 58
Width: 1999
Flags: HW
Fore
1510.35 0 m 1,0,-1
 1362.75 0 l 1,1,-1
 1054.95 1214 l 1,2,-1
 747.15 0 l 1,3,-1
 599.55 0 l 1,4,-1
 247.65 1386 l 1,5,-1
 114.45 1386 l 1,6,-1
 114.45 1493 l 1,7,-1
 604.95 1493 l 1,8,-1
 604.95 1386 l 1,9,-1
 437.55 1386 l 1,10,-1
 717.45 283 l 1,11,-1
 1023.45 1493 l 1,12,-1
 1169.25 1493 l 1,13,-1
 1480.65 270 l 1,14,-1
 1762.35 1386 l 1,15,-1
 1607.55 1386 l 1,16,-1
 1607.55 1493 l 1,17,-1
 1994.55 1493 l 1,18,-1
 1994.55 1386 l 1,19,-1
 1862.25 1386 l 1,20,-1
 1510.35 0 l 1,0,-1
EndSplineSet
KernsSLIF: 252 -83 0 0 229 -178 0 0 230 -139 0 0 59 -178 0 0 242 -139 0 0 45 -149 0 0 46 -358 0 0 367 -83 0 0 245 -139 0 0 235 -167 0 0 249 -83 0 0 44 -358 0 0 224 -178 0 0 195 -102 0 0 234 -167 0 0 341 -92 0 0 8221 38 0 0 232 -167 0 0 196 -102 0 0 193 -102 0 0 8217 38 0 0 251 -83 0 0 253 -45 0 0 227 -178 0 0 194 -102 0 0 248 -139 0 0 244 -139 0 0 65 -102 0 0 97 -178 0 0 228 -178 0 0 246 -139 0 0 250 -83 0 0 225 -178 0 0 345 -92 0 0 226 -178 0 0 233 -167 0 0 283 -167 0 0 101 -167 0 0 105 -36 0 0 339 -139 0 0 255 -45 0 0 111 -139 0 0 114 -92 0 0 117 -83 0 0 192 -102 0 0 121 -45 0 0 58 -178 0 0 243 -139 0 0
EndChar
StartChar: X
Encoding: 88 88 59
Width: 1385
Flags: HW
Fore
683.2 639 m 1,0,-1
 354.7 106 l 1,1,-1
 528.4 106 l 1,2,-1
 528.4 0 l 1,3,-1
 83.7998 0 l 1,4,-1
 83.7998 106 l 1,5,-1
 238.6 106 l 1,6,-1
 625.6 733 l 1,7,-1
 233.2 1386 l 1,8,-1
 89.2002 1386 l 1,9,-1
 89.2002 1493 l 1,10,-1
 622 1493 l 1,11,-1
 622 1386 l 1,12,-1
 463.6 1386 l 1,13,-1
 751.6 905 l 1,14,-1
 1047.7 1386 l 1,15,-1
 874.9 1386 l 1,16,-1
 874.9 1493 l 1,17,-1
 1315 1493 l 1,18,-1
 1315 1386 l 1,19,-1
 1163.8 1386 l 1,20,-1
 808.3 811 l 1,21,-1
 1232.2 106 l 1,22,-1
 1376.2 106 l 1,23,-1
 1376.2 0 l 1,24,-1
 843.4 0 l 1,25,-1
 843.4 106 l 1,26,-1
 1003.6 106 l 1,27,-1
 683.2 639 l 1,0,-1
EndSplineSet
KernsSLIF: 268 -36 0 0 262 -36 0 0 210 -36 0 0 212 -36 0 0 211 -36 0 0 193 -73 0 0 194 -73 0 0 338 -36 0 0 213 -36 0 0 195 -73 0 0 192 -73 0 0 216 -36 0 0 214 -36 0 0 199 -36 0 0 196 -73 0 0 79 -36 0 0 67 -36 0 0 65 -73 0 0 45 -73 0 0
EndChar
StartChar: Y
Encoding: 89 89 60
Width: 1284
Flags: HW
Fore
415.65 0 m 1,0,-1
 415.65 106 l 1,1,-1
 587.55 106 l 1,2,-1
 587.55 643 l 1,3,-1
 172.65 1386 l 1,4,-1
 46.6504 1386 l 1,5,-1
 46.6504 1493 l 1,6,-1
 546.15 1493 l 1,7,-1
 546.15 1386 l 1,8,-1
 389.55 1386 l 1,9,-1
 725.25 782 l 1,10,-1
 1060.95 1386 l 1,11,-1
 909.75 1386 l 1,12,-1
 909.75 1493 l 1,13,-1
 1300.35 1493 l 1,14,-1
 1300.35 1386 l 1,15,-1
 1173.45 1386 l 1,16,-1
 769.35 662 l 1,17,-1
 769.35 106 l 1,18,-1
 941.25 106 l 1,19,-1
 941.25 0 l 1,20,-1
 415.65 0 l 1,0,-1
EndSplineSet
KernsSLIF: 367 -178 0 0 283 -178 0 0 268 -36 0 0 262 -36 0 0 193 -159 0 0 194 -159 0 0 339 -215 0 0 195 -159 0 0 192 -159 0 0 248 -178 0 0 230 -196 0 0 252 -178 0 0 251 -178 0 0 249 -178 0 0 250 -178 0 0 245 -178 0 0 246 -178 0 0 244 -178 0 0 242 -178 0 0 243 -178 0 0 235 -178 0 0 234 -178 0 0 232 -178 0 0 233 -178 0 0 229 -159 0 0 227 -159 0 0 228 -159 0 0 226 -159 0 0 224 -159 0 0 225 -159 0 0 199 -36 0 0 196 -159 0 0 117 -178 0 0 111 -178 0 0 105 -36 0 0 101 -178 0 0 97 -159 0 0 67 -36 0 0 65 -159 0 0 59 -253 0 0 58 -253 0 0 46 -264 0 0 45 -225 0 0 44 -264 0 0
EndChar
StartChar: Z
Encoding: 90 90 61
Width: 1352
Flags: HW
Fore
154.55 0 m 1,0,-1
 154.55 72 l 1,1,-1
 991.55 1370 l 1,2,-1
 296.75 1370 l 1,3,-1
 296.75 1147 l 1,4,-1
 186.05 1147 l 1,5,-1
 186.05 1493 l 1,6,-1
 1248.05 1493 l 1,7,-1
 1248.05 1421 l 1,8,-1
 411.05 123 l 1,9,-1
 1170.65 123 l 1,10,-1
 1170.65 332 l 1,11,-1
 1280.45 332 l 1,12,-1
 1280.45 0 l 1,13,-1
 154.55 0 l 1,0,-1
EndSplineSet
KernsSLIF: 46 -36 0 0 44 -36 0 0
EndChar
StartChar: bracketleft
Encoding: 91 91 62
Width: 759
Flags: HW
Fore
199.25 1556 m 1,0,-1
 617.75 1556 l 1,1,-1
 617.75 1450 l 1,2,-1
 371.15 1450 l 1,3,-1
 371.15 -164 l 1,4,-1
 617.75 -164 l 1,5,-1
 617.75 -270 l 1,6,-1
 199.25 -270 l 1,7,-1
 199.25 1556 l 1,0,-1
EndSplineSet
EndChar
StartChar: backslash
Encoding: 92 92 63
Width: 655
Flags: HW
Fore
178.5 1493 m 1,0,-1
 655.5 -190 l 1,1,-1
 511.5 -190 l 1,2,-1
 34.5 1493 l 1,3,-1
 178.5 1493 l 1,0,-1
EndSplineSet
EndChar
StartChar: bracketright
Encoding: 93 93 64
Width: 758
Flags: HW
Fore
599.75 1556 m 1,0,-1
 599.75 -270 l 1,1,-1
 181.25 -270 l 1,2,-1
 181.25 -164 l 1,3,-1
 427.85 -164 l 1,4,-1
 427.85 1450 l 1,5,-1
 181.25 1450 l 1,6,-1
 181.25 1556 l 1,7,-1
 599.75 1556 l 1,0,-1
EndSplineSet
EndChar
StartChar: asciicircum
Encoding: 94 94 65
Width: 1630
Flags: HW
Fore
946.2 1493 m 1,0,-1
 1434.9 936 l 1,1,-1
 1297.2 936 l 1,2,-1
 858 1317 l 1,3,-1
 419.7 936 l 1,4,-1
 281.1 936 l 1,5,-1
 769.8 1493 l 1,6,-1
 946.2 1493 l 1,0,-1
EndSplineSet
EndChar
StartChar: underscore
Encoding: 95 95 66
Width: 972
Flags: HW
Fore
972.8 -403 m 1,0,-1
 972.8 -483 l 1,1,-1
 51.2002 -483 l 1,2,-1
 51.2002 -403 l 1,3,-1
 972.8 -403 l 1,0,-1
EndSplineSet
EndChar
StartChar: grave
Encoding: 96 96 67
Width: 961
Flags: HW
Fore
370.15 1636 m 1,0,-1
 604.15 1260 l 1,1,-1
 498.85 1260 l 1,2,-1
 192.85 1636 l 1,3,-1
 370.15 1636 l 1,0,-1
EndSplineSet
EndChar
StartChar: a
Encoding: 97 97 68
Width: 1162
Flags: HW
Fore
796.75 334 m 2,0,-1
 796.75 559 l 1,1,-1
 583.45 559 l 2,2,3
 460.15 559 460.15 559 399.85 500 c 128,-1,4
 339.55 441 339.55 441 339.55 319 c 0,5,6
 339.55 208 339.55 208 400.75 143 c 128,-1,7
 461.95 78 461.95 78 566.35 78 c 0,8,9
 669.85 78 669.85 78 733.3 149 c 128,-1,10
 796.75 220 796.75 220 796.75 334 c 2,0,-1
962.35 664 m 2,11,-1
 962.35 106 l 1,12,-1
 1109.95 106 l 1,13,-1
 1109.95 0 l 1,14,-1
 796.75 0 l 1,15,-1
 796.75 115 l 1,16,17
 741.85 41 741.85 41 669.85 6 c 128,-1,18
 597.85 -29 597.85 -29 501.55 -29 c 0,19,20
 342.25 -29 342.25 -29 248.65 65 c 128,-1,21
 155.05 159 155.05 159 155.05 319 c 0,22,23
 155.05 484 155.05 484 262.15 575 c 128,-1,24
 369.25 666 369.25 666 564.55 666 c 2,25,-1
 796.75 666 l 1,26,-1
 796.75 739 l 2,27,28
 796.75 860 796.75 860 730.6 926.5 c 128,-1,29
 664.45 993 664.45 993 544.75 993 c 0,30,31
 445.75 993 445.75 993 387.25 943 c 128,-1,32
 328.75 893 328.75 893 314.35 795 c 1,33,-1
 228.85 795 l 1,34,-1
 228.85 1010 l 1,35,36
 315.25 1051 315.25 1051 396.7 1071.5 c 128,-1,37
 478.15 1092 478.15 1092 555.55 1092 c 0,38,39
 754.45 1092 754.45 1092 858.4 982.5 c 128,-1,40
 962.35 873 962.35 873 962.35 664 c 2,11,-1
EndSplineSet
EndChar
StartChar: b
Encoding: 98 98 69
Width: 1243
Flags: HW
Fore
275.75 106 m 1,0,-1
 275.75 1450 l 1,1,-1
 116.45 1450 l 1,2,-1
 116.45 1556 l 1,3,-1
 441.35 1556 l 1,4,-1
 441.35 897 l 1,5,6
 489.95 997 489.95 997 565.1 1044.5 c 128,-1,7
 640.25 1092 640.25 1092 750.95 1092 c 0,8,9
 927.35 1092 927.35 1092 1038.95 937 c 128,-1,10
 1150.55 782 1150.55 782 1150.55 532 c 0,11,12
 1150.55 282 1150.55 282 1038.95 126.5 c 128,-1,13
 927.35 -29 927.35 -29 750.95 -29 c 0,14,15
 640.25 -29 640.25 -29 565.1 18.5 c 128,-1,16
 489.95 66 489.95 66 441.35 166 c 1,17,-1
 441.35 0 l 1,18,-1
 116.45 0 l 1,19,-1
 116.45 106 l 1,20,-1
 275.75 106 l 1,0,-1
441.35 479 m 2,21,22
 441.35 287 441.35 287 507.5 186.5 c 128,-1,23
 573.65 86 573.65 86 699.65 86 c 0,24,25
 826.55 86 826.55 86 891.8 199 c 128,-1,26
 957.05 312 957.05 312 957.05 532 c 0,27,28
 957.05 753 957.05 753 891.8 865 c 128,-1,29
 826.55 977 826.55 977 699.65 977 c 0,30,31
 573.65 977 573.65 977 507.5 876 c 128,-1,32
 441.35 775 441.35 775 441.35 584 c 2,33,-1
 441.35 479 l 2,21,22
EndSplineSet
EndChar
StartChar: c
Encoding: 99 99 70
Width: 1090
Flags: HW
Fore
1005.45 319 m 1,0,1
 970.35 149 970.35 149 870.45 60 c 128,-1,2
 770.55 -29 770.55 -29 612.15 -29 c 0,3,4
 403.35 -29 403.35 -29 276.45 124.5 c 128,-1,5
 149.55 278 149.55 278 149.55 532 c 0,6,7
 149.55 787 149.55 787 276.45 939.5 c 128,-1,8
 403.35 1092 403.35 1092 612.15 1092 c 0,9,10
 703.05 1092 703.05 1092 793.05 1068.5 c 128,-1,11
 883.05 1045 883.05 1045 973.95 997 c 1,12,-1
 973.95 725 l 1,13,-1
 877.65 725 l 1,14,15
 858.75 865 858.75 865 795.3 929 c 128,-1,16
 731.85 993 731.85 993 613.95 993 c 0,17,18
 479.85 993 479.85 993 411.45 877.5 c 128,-1,19
 343.05 762 343.05 762 343.05 532 c 0,20,21
 343.05 302 343.05 302 411 186 c 128,-1,22
 478.95 70 478.95 70 613.95 70 c 0,23,24
 721.05 70 721.05 70 784.95 132 c 128,-1,25
 848.85 194 848.85 194 872.25 319 c 1,26,-1
 1005.45 319 l 1,0,1
EndSplineSet
EndChar
StartChar: d
Encoding: 100 100 71
Width: 1247
Flags: HW
Fore
1035.15 106 m 1,0,-1
 1193.55 106 l 1,1,-1
 1193.55 0 l 1,2,-1
 869.55 0 l 1,3,-1
 869.55 166 l 1,4,5
 820.95 66 820.95 66 745.8 18.5 c 128,-1,6
 670.65 -29 670.65 -29 559.95 -29 c 0,7,8
 383.55 -29 383.55 -29 271.5 126.5 c 128,-1,9
 159.45 282 159.45 282 159.45 532 c 0,10,11
 159.45 782 159.45 782 271.05 937 c 128,-1,12
 382.65 1092 382.65 1092 559.95 1092 c 0,13,14
 670.65 1092 670.65 1092 745.8 1044.5 c 128,-1,15
 820.95 997 820.95 997 869.55 897 c 1,16,-1
 869.55 1450 l 1,17,-1
 712.95 1450 l 1,18,-1
 712.95 1556 l 1,19,-1
 1035.15 1556 l 1,20,-1
 1035.15 106 l 1,0,-1
869.55 479 m 2,21,-1
 869.55 584 l 2,22,23
 869.55 775 869.55 775 803.4 876 c 128,-1,24
 737.25 977 737.25 977 611.25 977 c 0,25,26
 483.45 977 483.45 977 418.2 865 c 128,-1,27
 352.95 753 352.95 753 352.95 532 c 0,28,29
 352.95 312 352.95 312 418.2 199 c 128,-1,30
 483.45 86 483.45 86 611.25 86 c 0,31,32
 737.25 86 737.25 86 803.4 186.5 c 128,-1,33
 869.55 287 869.55 287 869.55 479 c 2,21,-1
EndSplineSet
EndChar
StartChar: e
Encoding: 101 101 72
Width: 1151
Flags: HW
Fore
1059.6 512 m 1,0,-1
 345.9 512 l 1,1,-1
 345.9 504 l 2,2,3
 345.9 289 345.9 289 418.8 179.5 c 128,-1,4
 491.7 70 491.7 70 633.9 70 c 0,5,6
 742.8 70 742.8 70 812.55 133.5 c 128,-1,7
 882.3 197 882.3 197 910.2 322 c 1,8,-1
 1043.4 322 l 1,9,10
 1003.8 147 1003.8 147 897.15 59 c 128,-1,11
 790.5 -29 790.5 -29 616.8 -29 c 0,12,13
 407.1 -29 407.1 -29 279.75 124.5 c 128,-1,14
 152.4 278 152.4 278 152.4 532 c 0,15,16
 152.4 784 152.4 784 277.5 938 c 128,-1,17
 402.6 1092 402.6 1092 606 1092 c 0,18,19
 822.9 1092 822.9 1092 939 943.5 c 128,-1,20
 1055.1 795 1055.1 795 1059.6 512 c 1,0,-1
864.3 618 m 1,21,22
 858.9 804 858.9 804 793.65 898.5 c 128,-1,23
 728.4 993 728.4 993 606 993 c 0,24,25
 491.7 993 491.7 993 426 898 c 128,-1,26
 360.3 803 360.3 803 345.9 618 c 1,27,-1
 864.3 618 l 1,21,22
EndSplineSet
EndChar
StartChar: f
Encoding: 102 102 73
Width: 729
Flags: HW
Fore
840.65 1305 m 1,0,-1
 753.35 1305 l 1,1,2
 752.45 1380 752.45 1380 715.1 1419 c 128,-1,3
 677.75 1458 677.75 1458 606.65 1458 c 0,4,5
 513.95 1458 513.95 1458 476.15 1401.5 c 128,-1,6
 438.35 1345 438.35 1345 438.35 1200 c 2,7,-1
 438.35 1063 l 1,8,-1
 705.65 1063 l 1,9,-1
 705.65 956 l 1,10,-1
 438.35 956 l 1,11,-1
 438.35 106 l 1,12,-1
 650.75 106 l 1,13,-1
 650.75 0 l 1,14,-1
 114.35 0 l 1,15,-1
 114.35 106 l 1,16,-1
 272.75 106 l 1,17,-1
 272.75 956 l 1,18,-1
 114.35 956 l 1,19,-1
 114.35 1063 l 1,20,-1
 272.75 1063 l 1,21,-1
 272.75 1196 l 2,22,23
 272.75 1374 272.75 1374 356 1465 c 128,-1,24
 439.25 1556 439.25 1556 600.35 1556 c 0,25,26
 660.65 1556 660.65 1556 720.95 1544 c 128,-1,27
 781.25 1532 781.25 1532 840.65 1507 c 1,28,-1
 840.65 1305 l 1,0,-1
EndSplineSet
KernsSLIF: 8217 151 0 0 8221 151 0 0 8220 38 0 0 46 -73 0 0 45 -73 0 0 44 -73 0 0
EndChar
StartChar: g
Encoding: 103 103 74
Width: 1247
Flags: HW
Fore
1035.15 956 m 1,0,-1
 1035.15 23 l 2,1,2
 1035.15 -206 1035.15 -206 921.75 -330.5 c 128,-1,3
 808.35 -455 808.35 -455 598.65 -455 c 0,4,5
 504.15 -455 504.15 -455 417.75 -436 c 128,-1,6
 331.35 -417 331.35 -417 252.15 -379 c 1,7,-1
 252.15 -156 l 1,8,-1
 338.55 -156 l 1,9,10
 354.75 -260 354.75 -260 415.05 -308 c 128,-1,11
 475.35 -356 475.35 -356 587.85 -356 c 0,12,13
 733.65 -356 733.65 -356 801.6 -264.5 c 128,-1,14
 869.55 -173 869.55 -173 869.55 23 c 2,15,-1
 869.55 166 l 1,16,17
 820.95 66 820.95 66 745.8 18.5 c 128,-1,18
 670.65 -29 670.65 -29 559.95 -29 c 0,19,20
 383.55 -29 383.55 -29 271.5 126.5 c 128,-1,21
 159.45 282 159.45 282 159.45 532 c 0,22,23
 159.45 782 159.45 782 271.05 937 c 128,-1,24
 382.65 1092 382.65 1092 559.95 1092 c 0,25,26
 670.65 1092 670.65 1092 745.8 1044.5 c 128,-1,27
 820.95 997 820.95 997 869.55 897 c 1,28,-1
 869.55 1063 l 1,29,-1
 1193.55 1063 l 1,30,-1
 1193.55 956 l 1,31,-1
 1035.15 956 l 1,0,-1
869.55 584 m 2,32,33
 869.55 775 869.55 775 803.4 876 c 128,-1,34
 737.25 977 737.25 977 611.25 977 c 0,35,36
 483.45 977 483.45 977 418.2 865 c 128,-1,37
 352.95 753 352.95 753 352.95 532 c 0,38,39
 352.95 312 352.95 312 418.2 199 c 128,-1,40
 483.45 86 483.45 86 611.25 86 c 0,41,42
 737.25 86 737.25 86 803.4 186.5 c 128,-1,43
 869.55 287 869.55 287 869.55 479 c 2,44,-1
 869.55 584 l 2,32,33
EndSplineSet
EndChar
StartChar: h
Encoding: 104 104 75
Width: 1253
Flags: HW
Fore
142.4 0 m 1,0,-1
 142.4 106 l 1,1,-1
 291.8 106 l 1,2,-1
 291.8 1450 l 1,3,-1
 133.4 1450 l 1,4,-1
 133.4 1556 l 1,5,-1
 457.4 1556 l 1,6,-1
 457.4 874 l 1,7,8
 503.3 982 503.3 982 576.65 1037 c 128,-1,9
 650 1092 650 1092 747.2 1092 c 0,10,11
 905.6 1092 905.6 1092 980.3 991 c 128,-1,12
 1055 890 1055 890 1055 676 c 2,13,-1
 1055 106 l 1,14,-1
 1202.6 106 l 1,15,-1
 1202.6 0 l 1,16,-1
 745.4 0 l 1,17,-1
 745.4 106 l 1,18,-1
 888.5 106 l 1,19,-1
 888.5 618 l 2,20,21
 888.5 813 888.5 813 845.75 884.5 c 128,-1,22
 803 956 803 956 693.2 956 c 0,23,24
 578 956 578 956 517.7 863 c 128,-1,25
 457.4 770 457.4 770 457.4 592 c 2,26,-1
 457.4 106 l 1,27,-1
 601.4 106 l 1,28,-1
 601.4 0 l 1,29,-1
 142.4 0 l 1,0,-1
EndSplineSet
EndChar
StartChar: i
Encoding: 105 105 76
Width: 623
Flags: HW
Fore
213.2 1393 m 0,0,1
 213.2 1439 213.2 1439 243.35 1473 c 128,-1,2
 273.5 1507 273.5 1507 315.8 1507 c 0,3,4
 357.2 1507 357.2 1507 387.35 1473 c 128,-1,5
 417.5 1439 417.5 1439 417.5 1393 c 0,6,7
 417.5 1346 417.5 1346 387.8 1313 c 128,-1,8
 358.1 1280 358.1 1280 315.8 1280 c 0,9,10
 273.5 1280 273.5 1280 243.35 1313 c 128,-1,11
 213.2 1346 213.2 1346 213.2 1393 c 0,0,1
424.7 106 m 1,12,-1
 581.3 106 l 1,13,-1
 581.3 0 l 1,14,-1
 100.7 0 l 1,15,-1
 100.7 106 l 1,16,-1
 259.1 106 l 1,17,-1
 259.1 956 l 1,18,-1
 100.7 956 l 1,19,-1
 100.7 1063 l 1,20,-1
 424.7 1063 l 1,21,-1
 424.7 106 l 1,12,-1
EndSplineSet
EndChar
StartChar: j
Encoding: 106 106 77
Width: 583
Flags: HW
Fore
196.35 1393 m 0,0,1
 196.35 1439 196.35 1439 226.5 1473 c 128,-1,2
 256.65 1507 256.65 1507 298.95 1507 c 0,3,4
 340.35 1507 340.35 1507 370.5 1473 c 128,-1,5
 400.65 1439 400.65 1439 400.65 1393 c 0,6,7
 400.65 1346 400.65 1346 371.4 1313 c 128,-1,8
 342.15 1280 342.15 1280 298.95 1280 c 0,9,10
 256.65 1280 256.65 1280 226.5 1313 c 128,-1,11
 196.35 1346 196.35 1346 196.35 1393 c 0,0,1
236.85 956 m 1,12,-1
 80.25 956 l 1,13,-1
 80.25 1063 l 1,14,-1
 402.45 1063 l 1,15,-1
 402.45 -104 l 2,16,17
 402.45 -268 402.45 -268 314.7 -361.5 c 128,-1,18
 226.95 -455 226.95 -455 73.0498 -455 c 0,19,20
 8.25 -455 8.25 -455 -50.7002 -438.5 c 128,-1,21
 -109.65 -422 -109.65 -422 -165.45 -389 c 1,22,-1
 -165.45 -170 l 1,23,-1
 -79.9502 -170 l 1,24,25
 -73.6504 -266 -73.6504 -266 -35.4004 -311 c 128,-1,26
 2.84961 -356 2.84961 -356 76.6504 -356 c 0,27,28
 158.55 -356 158.55 -356 197.7 -294.5 c 128,-1,29
 236.85 -233 236.85 -233 236.85 -104 c 2,30,-1
 236.85 956 l 1,12,-1
EndSplineSet
EndChar
StartChar: k
Encoding: 107 107 78
Width: 1182
Flags: HW
Fore
593.1 0 m 1,0,-1
 128.7 0 l 1,1,-1
 128.7 106 l 1,2,-1
 278.1 106 l 1,3,-1
 278.1 1450 l 1,4,-1
 118.8 1450 l 1,5,-1
 118.8 1556 l 1,6,-1
 443.7 1556 l 1,7,-1
 443.7 543 l 1,8,-1
 846.9 956 l 1,9,-1
 709.2 956 l 1,10,-1
 709.2 1063 l 1,11,-1
 1142.1 1063 l 1,12,-1
 1142.1 956 l 1,13,-1
 978.3 956 l 1,14,-1
 693.9 664 l 1,15,-1
 1057.5 106 l 1,16,-1
 1195.2 106 l 1,17,-1
 1195.2 0 l 1,18,-1
 723.6 0 l 1,19,-1
 723.6 106 l 1,20,-1
 860.4 106 l 1,21,-1
 574.2 543 l 1,22,-1
 443.7 408 l 1,23,-1
 443.7 106 l 1,24,-1
 593.1 106 l 1,25,-1
 593.1 0 l 1,0,-1
EndSplineSet
KernsSLIF: 45 -36 0 0
EndChar
StartChar: l
Encoding: 108 108 79
Width: 622
Flags: HW
Fore
410.65 106 m 1,0,-1
 567.25 106 l 1,1,-1
 567.25 0 l 1,2,-1
 85.75 0 l 1,3,-1
 85.75 106 l 1,4,-1
 245.05 106 l 1,5,-1
 245.05 1450 l 1,6,-1
 85.75 1450 l 1,7,-1
 85.75 1556 l 1,8,-1
 410.65 1556 l 1,9,-1
 410.65 106 l 1,0,-1
EndSplineSet
EndChar
StartChar: m
Encoding: 109 109 80
Width: 1845
Flags: HW
Fore
1052.9 856 m 1,0,1
 1100.6 973 1100.6 973 1174.85 1032.5 c 128,-1,2
 1249.1 1092 1249.1 1092 1348.1 1092 c 0,3,4
 1498.4 1092 1498.4 1092 1572.2 988.5 c 128,-1,5
 1646 885 1646 885 1646 676 c 2,6,-1
 1646 106 l 1,7,-1
 1795.4 106 l 1,8,-1
 1795.4 0 l 1,9,-1
 1336.4 0 l 1,10,-1
 1336.4 106 l 1,11,-1
 1480.4 106 l 1,12,-1
 1480.4 655 l 2,13,14
 1480.4 818 1480.4 818 1437.2 887 c 128,-1,15
 1394 956 1394 956 1294.1 956 c 0,16,17
 1183.4 956 1183.4 956 1125.35 863 c 128,-1,18
 1067.3 770 1067.3 770 1067.3 592 c 2,19,-1
 1067.3 106 l 1,20,-1
 1211.3 106 l 1,21,-1
 1211.3 0 l 1,22,-1
 757.7 0 l 1,23,-1
 757.7 106 l 1,24,-1
 901.7 106 l 1,25,-1
 901.7 662 l 2,26,27
 901.7 821 901.7 821 858.5 888.5 c 128,-1,28
 815.3 956 815.3 956 715.4 956 c 0,29,30
 604.7 956 604.7 956 546.65 863 c 128,-1,31
 488.6 770 488.6 770 488.6 592 c 2,32,-1
 488.6 106 l 1,33,-1
 632.6 106 l 1,34,-1
 632.6 0 l 1,35,-1
 173.6 0 l 1,36,-1
 173.6 106 l 1,37,-1
 323 106 l 1,38,-1
 323 958 l 1,39,-1
 164.6 958 l 1,40,-1
 164.6 1063 l 1,41,-1
 488.6 1063 l 1,42,-1
 488.6 874 l 1,43,44
 534.5 980 534.5 980 605.6 1036 c 128,-1,45
 676.7 1092 676.7 1092 766.7 1092 c 0,46,47
 878.3 1092 878.3 1092 953 1030.5 c 128,-1,48
 1027.7 969 1027.7 969 1052.9 856 c 1,0,1
EndSplineSet
EndChar
StartChar: n
Encoding: 110 110 81
Width: 1253
Flags: HW
Fore
142.4 0 m 1,0,-1
 142.4 106 l 1,1,-1
 291.8 106 l 1,2,-1
 291.8 956 l 1,3,-1
 133.4 956 l 1,4,-1
 133.4 1063 l 1,5,-1
 457.4 1063 l 1,6,-1
 457.4 874 l 1,7,8
 503.3 982 503.3 982 576.65 1037 c 128,-1,9
 650 1092 650 1092 747.2 1092 c 0,10,11
 905.6 1092 905.6 1092 980.3 991 c 128,-1,12
 1055 890 1055 890 1055 676 c 2,13,-1
 1055 106 l 1,14,-1
 1202.6 106 l 1,15,-1
 1202.6 0 l 1,16,-1
 745.4 0 l 1,17,-1
 745.4 106 l 1,18,-1
 888.5 106 l 1,19,-1
 888.5 618 l 2,20,21
 888.5 813 888.5 813 845.3 885.5 c 128,-1,22
 802.1 958 802.1 958 693.2 958 c 0,23,24
 578 958 578 958 517.7 864.5 c 128,-1,25
 457.4 771 457.4 771 457.4 592 c 2,26,-1
 457.4 106 l 1,27,-1
 601.4 106 l 1,28,-1
 601.4 0 l 1,29,-1
 142.4 0 l 1,0,-1
EndSplineSet
EndChar
StartChar: o
Encoding: 111 111 82
Width: 1171
Flags: HW
Fore
616 70 m 0,0,1
 749.2 70 749.2 70 817.15 187 c 128,-1,2
 885.1 304 885.1 304 885.1 532 c 0,3,4
 885.1 760 885.1 760 817.15 876.5 c 128,-1,5
 749.2 993 749.2 993 616 993 c 0,6,7
 482.8 993 482.8 993 414.85 876.5 c 128,-1,8
 346.9 760 346.9 760 346.9 532 c 0,9,10
 346.9 304 346.9 304 415.3 187 c 128,-1,11
 483.7 70 483.7 70 616 70 c 0,0,1
616 -29 m 0,12,13
 407.2 -29 407.2 -29 280.3 124.5 c 128,-1,14
 153.4 278 153.4 278 153.4 532 c 0,15,16
 153.4 786 153.4 786 279.85 939 c 128,-1,17
 406.3 1092 406.3 1092 616 1092 c 0,18,19
 825.7 1092 825.7 1092 952.15 939 c 128,-1,20
 1078.6 786 1078.6 786 1078.6 532 c 0,21,22
 1078.6 278 1078.6 278 952.15 124.5 c 128,-1,23
 825.7 -29 825.7 -29 616 -29 c 0,12,13
EndSplineSet
KernsSLIF: 46 -36 0 0
EndChar
StartChar: p
Encoding: 112 112 83
Width: 1243
Flags: HW
Fore
441.35 584 m 2,0,-1
 441.35 479 l 2,1,2
 441.35 287 441.35 287 507.5 186.5 c 128,-1,3
 573.65 86 573.65 86 699.65 86 c 0,4,5
 826.55 86 826.55 86 891.8 199 c 128,-1,6
 957.05 312 957.05 312 957.05 532 c 0,7,8
 957.05 753 957.05 753 891.8 865 c 128,-1,9
 826.55 977 826.55 977 699.65 977 c 0,10,11
 573.65 977 573.65 977 507.5 876 c 128,-1,12
 441.35 775 441.35 775 441.35 584 c 2,0,-1
275.75 956 m 1,13,-1
 116.45 956 l 1,14,-1
 116.45 1063 l 1,15,-1
 441.35 1063 l 1,16,-1
 441.35 897 l 1,17,18
 489.95 997 489.95 997 565.1 1044.5 c 128,-1,19
 640.25 1092 640.25 1092 750.95 1092 c 0,20,21
 927.35 1092 927.35 1092 1038.95 937 c 128,-1,22
 1150.55 782 1150.55 782 1150.55 532 c 0,23,24
 1150.55 282 1150.55 282 1038.95 126.5 c 128,-1,25
 927.35 -29 927.35 -29 750.95 -29 c 0,26,27
 640.25 -29 640.25 -29 565.1 18.5 c 128,-1,28
 489.95 66 489.95 66 441.35 166 c 1,29,-1
 441.35 -319 l 1,30,-1
 597.95 -319 l 1,31,-1
 597.95 -426 l 1,32,-1
 116.45 -426 l 1,33,-1
 116.45 -319 l 1,34,-1
 275.75 -319 l 1,35,-1
 275.75 956 l 1,13,-1
EndSplineSet
EndChar
StartChar: q
Encoding: 113 113 84
Width: 1247
Flags: HW
Fore
1035.15 956 m 1,0,-1
 1035.15 -319 l 1,1,-1
 1193.55 -319 l 1,2,-1
 1193.55 -426 l 1,3,-1
 712.95 -426 l 1,4,-1
 712.95 -319 l 1,5,-1
 869.55 -319 l 1,6,-1
 869.55 166 l 1,7,8
 820.95 66 820.95 66 745.8 18.5 c 128,-1,9
 670.65 -29 670.65 -29 559.95 -29 c 0,10,11
 383.55 -29 383.55 -29 271.5 126.5 c 128,-1,12
 159.45 282 159.45 282 159.45 532 c 0,13,14
 159.45 782 159.45 782 271.05 937 c 128,-1,15
 382.65 1092 382.65 1092 559.95 1092 c 0,16,17
 670.65 1092 670.65 1092 745.8 1044.5 c 128,-1,18
 820.95 997 820.95 997 869.55 897 c 1,19,-1
 869.55 1063 l 1,20,-1
 1193.55 1063 l 1,21,-1
 1193.55 956 l 1,22,-1
 1035.15 956 l 1,0,-1
869.55 584 m 2,23,24
 869.55 775 869.55 775 803.4 876 c 128,-1,25
 737.25 977 737.25 977 611.25 977 c 0,26,27
 483.45 977 483.45 977 418.2 865 c 128,-1,28
 352.95 753 352.95 753 352.95 532 c 0,29,30
 352.95 312 352.95 312 418.2 199 c 128,-1,31
 483.45 86 483.45 86 611.25 86 c 0,32,33
 737.25 86 737.25 86 803.4 186.5 c 128,-1,34
 869.55 287 869.55 287 869.55 479 c 2,35,-1
 869.55 584 l 2,23,24
EndSplineSet
EndChar
StartChar: r
Encoding: 114 114 85
Width: 933
Flags: HW
Fore
933.75 1065 m 1,0,-1
 933.75 799 l 1,1,-1
 838.35 799 l 1,2,3
 833.85 878 833.85 878 798.75 917 c 128,-1,4
 763.65 956 763.65 956 696.15 956 c 0,5,6
 573.75 956 573.75 956 508.5 862 c 128,-1,7
 443.25 768 443.25 768 443.25 592 c 2,8,-1
 443.25 106 l 1,9,-1
 634.95 106 l 1,10,-1
 634.95 0 l 1,11,-1
 128.25 0 l 1,12,-1
 128.25 106 l 1,13,-1
 277.65 106 l 1,14,-1
 277.65 958 l 1,15,-1
 119.25 958 l 1,16,-1
 119.25 1063 l 1,17,-1
 443.25 1063 l 1,18,-1
 443.25 874 l 1,19,20
 491.85 985 491.85 985 568.35 1038.5 c 128,-1,21
 644.85 1092 644.85 1092 754.65 1092 c 0,22,23
 795.15 1092 795.15 1092 839.7 1085 c 128,-1,24
 884.25 1078 884.25 1078 933.75 1065 c 1,0,-1
EndSplineSet
KernsSLIF: 46 -225 0 0 44 -225 0 0
EndChar
StartChar: s
Encoding: 115 115 86
Width: 998
Flags: HW
Fore
156.55 59 m 1,0,-1
 156.55 307 l 1,1,-1
 251.95 307 l 1,2,3
 255.55 188 255.55 188 319 129 c 128,-1,4
 382.45 70 382.45 70 506.65 70 c 0,5,6
 618.25 70 618.25 70 676.75 116.5 c 128,-1,7
 735.25 163 735.25 163 735.25 252 c 0,8,9
 735.25 322 735.25 322 692.5 365 c 128,-1,10
 649.75 408 649.75 408 512.05 457 c 1,11,-1
 392.35 502 l 1,12,13
 269.05 546 269.05 546 213.7 612 c 128,-1,14
 158.35 678 158.35 678 158.35 780 c 0,15,16
 158.35 926 158.35 926 254.65 1009 c 128,-1,17
 350.95 1092 350.95 1092 521.05 1092 c 0,18,19
 596.65 1092 596.65 1092 680.35 1070 c 128,-1,20
 764.05 1048 764.05 1048 853.15 1006 c 1,21,-1
 853.15 774 l 1,22,-1
 757.75 774 l 1,23,24
 754.15 877 754.15 877 692.95 935 c 128,-1,25
 631.75 993 631.75 993 526.45 993 c 0,26,27
 422.05 993 422.05 993 368.5 952 c 128,-1,28
 314.95 911 314.95 911 314.95 829 c 0,29,30
 314.95 762 314.95 762 355.45 721.5 c 128,-1,31
 395.95 681 395.95 681 517.45 639 c 2,32,-1
 648.85 594 l 2,33,34
 784.75 547 784.75 547 844.6 476.5 c 128,-1,35
 904.45 406 904.45 406 904.45 295 c 0,36,37
 904.45 144 904.45 144 800.5 57.5 c 128,-1,38
 696.55 -29 696.55 -29 513.85 -29 c 0,39,40
 421.15 -29 421.15 -29 332.95 -7 c 128,-1,41
 244.75 15 244.75 15 156.55 59 c 1,0,-1
EndSplineSet
EndChar
StartChar: t
Encoding: 116 116 87
Width: 784
Flags: HW
Fore
242.2 956 m 1,0,-1
 96.4004 956 l 1,1,-1
 96.4004 1063 l 1,2,-1
 242.2 1063 l 1,3,-1
 242.2 1393 l 1,4,-1
 408.7 1393 l 1,5,-1
 408.7 1063 l 1,6,-1
 720.1 1063 l 1,7,-1
 720.1 956 l 1,8,-1
 408.7 956 l 1,9,-1
 408.7 281 l 2,10,11
 408.7 146 408.7 146 432.1 108 c 128,-1,12
 455.5 70 455.5 70 518.5 70 c 0,13,14
 583.3 70 583.3 70 613 112.5 c 128,-1,15
 642.7 155 642.7 155 644.5 250 c 1,16,-1
 769.6 250 l 1,17,18
 762.4 105 762.4 105 698.5 38 c 128,-1,19
 634.6 -29 634.6 -29 504.1 -29 c 0,20,21
 361 -29 361 -29 301.6 41.5 c 128,-1,22
 242.2 112 242.2 112 242.2 281 c 2,23,-1
 242.2 956 l 1,0,-1
EndSplineSet
EndChar
StartChar: u
Encoding: 117 117 88
Width: 1252
Flags: HW
Fore
717.4 1063 m 1,0,-1
 1027 1063 l 1,1,-1
 1027 106 l 1,2,-1
 1183.6 106 l 1,3,-1
 1183.6 0 l 1,4,-1
 861.4 0 l 1,5,-1
 861.4 188 l 1,6,7
 815.5 82 815.5 82 742.6 26.5 c 128,-1,8
 669.7 -29 669.7 -29 573.4 -29 c 0,9,10
 414.1 -29 414.1 -29 338.95 71.5 c 128,-1,11
 263.8 172 263.8 172 263.8 387 c 2,12,-1
 263.8 956 l 1,13,-1
 114.4 956 l 1,14,-1
 114.4 1063 l 1,15,-1
 430.3 1063 l 1,16,-1
 430.3 444 l 2,17,18
 430.3 250 430.3 250 473.05 178 c 128,-1,19
 515.8 106 515.8 106 625.6 106 c 0,20,21
 740.8 106 740.8 106 801.1 200 c 128,-1,22
 861.4 294 861.4 294 861.4 473 c 2,23,-1
 861.4 956 l 1,24,-1
 717.4 956 l 1,25,-1
 717.4 1063 l 1,0,-1
EndSplineSet
EndChar
StartChar: v
Encoding: 118 118 89
Width: 1098
Flags: HW
Fore
512.65 0 m 1,0,-1
 160.75 956 l 1,1,-1
 51.8496 956 l 1,2,-1
 51.8496 1063 l 1,3,-1
 491.95 1063 l 1,4,-1
 491.95 956 l 1,5,-1
 338.95 956 l 1,6,-1
 608.05 225 l 1,7,-1
 877.15 956 l 1,8,-1
 734.05 956 l 1,9,-1
 734.05 1063 l 1,10,-1
 1093.15 1063 l 1,11,-1
 1093.15 956 l 1,12,-1
 986.05 956 l 1,13,-1
 634.15 0 l 1,14,-1
 512.65 0 l 1,0,-1
EndSplineSet
KernsSLIF: 46 -243 0 0 44 -243 0 0
EndChar
StartChar: w
Encoding: 119 119 90
Width: 1665
Flags: HW
Fore
972.65 1063 m 1,0,-1
 1217.45 233 l 1,1,-1
 1433.45 956 l 1,2,-1
 1294.85 956 l 1,3,-1
 1294.85 1063 l 1,4,-1
 1641.35 1063 l 1,5,-1
 1641.35 956 l 1,6,-1
 1535.15 956 l 1,7,-1
 1250.75 0 l 1,8,-1
 1113.05 0 l 1,9,-1
 877.25 795 l 1,10,-1
 640.55 0 l 1,11,-1
 508.25 0 l 1,12,-1
 224.75 956 l 1,13,-1
 117.65 956 l 1,14,-1
 117.65 1063 l 1,15,-1
 550.55 1063 l 1,16,-1
 550.55 956 l 1,17,-1
 395.75 956 l 1,18,-1
 609.95 233 l 1,19,-1
 856.55 1063 l 1,20,-1
 972.65 1063 l 1,0,-1
EndSplineSet
KernsSLIF: 46 -243 0 0 44 -243 0 0
EndChar
StartChar: x
Encoding: 120 120 91
Width: 1097
Flags: HW
Fore
594.15 649 m 1,0,-1
 794.85 956 l 1,1,-1
 666.15 956 l 1,2,-1
 666.15 1063 l 1,3,-1
 1034.25 1063 l 1,4,-1
 1034.25 956 l 1,5,-1
 907.35 956 l 1,6,-1
 650.85 563 l 1,7,-1
 949.65 106 l 1,8,-1
 1074.75 106 l 1,9,-1
 1074.75 0 l 1,10,-1
 632.85 0 l 1,11,-1
 632.85 106 l 1,12,-1
 754.35 106 l 1,13,-1
 546.45 424 l 1,14,-1
 337.65 106 l 1,15,-1
 461.85 106 l 1,16,-1
 461.85 0 l 1,17,-1
 98.25 0 l 1,18,-1
 98.25 106 l 1,19,-1
 225.15 106 l 1,20,-1
 488.85 510 l 1,21,-1
 198.15 956 l 1,22,-1
 80.25 956 l 1,23,-1
 80.25 1063 l 1,24,-1
 507.75 1063 l 1,25,-1
 507.75 956 l 1,26,-1
 393.45 956 l 1,27,-1
 594.15 649 l 1,0,-1
EndSplineSet
KernsSLIF: 45 -36 0 0
EndChar
StartChar: y
Encoding: 121 121 92
Width: 1098
Flags: HW
Fore
455.05 -195 m 1,0,-1
 518.05 -18 l 1,1,-1
 160.75 956 l 1,2,-1
 51.8496 956 l 1,3,-1
 51.8496 1063 l 1,4,-1
 491.95 1063 l 1,5,-1
 491.95 956 l 1,6,-1
 338.95 956 l 1,7,-1
 608.05 225 l 1,8,-1
 877.15 956 l 1,9,-1
 734.05 956 l 1,10,-1
 734.05 1063 l 1,11,-1
 1093.15 1063 l 1,12,-1
 1093.15 956 l 1,13,-1
 986.05 956 l 1,14,-1
 547.75 -240 l 1,15,16
 502.75 -364 502.75 -364 447.85 -409.5 c 128,-1,17
 392.95 -455 392.95 -455 293.05 -455 c 0,18,19
 250.75 -455 250.75 -455 206.2 -447 c 128,-1,20
 161.65 -439 161.65 -439 116.65 -424 c 1,21,-1
 116.65 -221 l 1,22,-1
 201.25 -221 l 1,23,24
 206.65 -289 206.65 -289 232.3 -318.5 c 128,-1,25
 257.95 -348 257.95 -348 311.95 -348 c 0,26,27
 361.45 -348 361.45 -348 391.6 -317.5 c 128,-1,28
 421.75 -287 421.75 -287 455.05 -195 c 1,0,-1
EndSplineSet
KernsSLIF: 46 -272 0 0 44 -272 0 0
EndChar
StartChar: z
Encoding: 122 122 93
Width: 1025
Flags: HW
Fore
128.1 0 m 1,0,-1
 128.1 86 l 1,1,-1
 727.5 956 l 1,2,-1
 253.2 956 l 1,3,-1
 253.2 772 l 1,4,-1
 157.8 772 l 1,5,-1
 157.8 1063 l 1,6,-1
 940.8 1063 l 1,7,-1
 940.8 977 l 1,8,-1
 341.4 106 l 1,9,-1
 861.6 106 l 1,10,-1
 861.6 299 l 1,11,-1
 957.9 299 l 1,12,-1
 957.9 0 l 1,13,-1
 128.1 0 l 1,0,-1
EndSplineSet
EndChar
StartChar: braceleft
Encoding: 123 123 94
Width: 1237
Flags: HW
Fore
1007.45 -229 m 1,0,-1
 1007.45 -334 l 1,1,-1
 951.65 -334 l 2,2,3
 727.55 -334 727.55 -334 651.5 -260 c 128,-1,4
 575.45 -186 575.45 -186 575.45 35 c 2,5,-1
 575.45 293 l 2,6,7
 575.45 443 575.45 443 526.85 501 c 128,-1,8
 478.25 559 478.25 559 350.45 559 c 2,9,-1
 295.55 559 l 1,10,-1
 295.55 664 l 1,11,-1
 350.45 664 l 2,12,13
 478.25 664 478.25 664 526.85 722 c 128,-1,14
 575.45 780 575.45 780 575.45 930 c 2,15,-1
 575.45 1188 l 2,16,17
 575.45 1409 575.45 1409 651.5 1482.5 c 128,-1,18
 727.55 1556 727.55 1556 951.65 1556 c 2,19,-1
 1007.45 1556 l 1,20,-1
 1007.45 1452 l 1,21,-1
 946.25 1452 l 2,22,23
 819.35 1452 819.35 1452 780.65 1408 c 128,-1,24
 741.95 1364 741.95 1364 741.95 1223 c 2,25,-1
 741.95 936 l 2,26,27
 741.95 778 741.95 778 696.95 710 c 128,-1,28
 651.95 642 651.95 642 534.95 612 c 1,29,30
 653.75 578 653.75 578 697.85 511 c 128,-1,31
 741.95 444 741.95 444 741.95 287 c 2,32,-1
 741.95 0 l 2,33,34
 741.95 -141 741.95 -141 780.65 -185 c 128,-1,35
 819.35 -229 819.35 -229 946.25 -229 c 2,36,-1
 1007.45 -229 l 1,0,-1
EndSplineSet
EndChar
StartChar: bar
Encoding: 124 124 95
Width: 655
Flags: HW
Fore
417.9 1565 m 1,0,-1
 417.9 -483 l 1,1,-1
 272.1 -483 l 1,2,-1
 272.1 1565 l 1,3,-1
 417.9 1565 l 1,0,-1
EndSplineSet
EndChar
StartChar: braceright
Encoding: 125 125 96
Width: 1237
Flags: HW
Fore
295.55 -229 m 1,0,-1
 358.55 -229 l 2,1,2
 484.55 -229 484.55 -229 522.8 -185.5 c 128,-1,3
 561.05 -142 561.05 -142 561.05 0 c 2,4,-1
 561.05 287 l 2,5,6
 561.05 444 561.05 444 605.15 511 c 128,-1,7
 649.25 578 649.25 578 767.15 612 c 1,8,9
 650.15 642 650.15 642 605.6 710 c 128,-1,10
 561.05 778 561.05 778 561.05 936 c 2,11,-1
 561.05 1223 l 2,12,13
 561.05 1365 561.05 1365 522.8 1408.5 c 128,-1,14
 484.55 1452 484.55 1452 358.55 1452 c 2,15,-1
 295.55 1452 l 1,16,-1
 295.55 1556 l 1,17,-1
 352.25 1556 l 2,18,19
 576.35 1556 576.35 1556 651.5 1482.5 c 128,-1,20
 726.65 1409 726.65 1409 726.65 1188 c 2,21,-1
 726.65 930 l 2,22,23
 726.65 780 726.65 780 775.25 722 c 128,-1,24
 823.85 664 823.85 664 951.65 664 c 2,25,-1
 1007.45 664 l 1,26,-1
 1007.45 559 l 1,27,-1
 951.65 559 l 2,28,29
 823.85 559 823.85 559 775.25 501 c 128,-1,30
 726.65 443 726.65 443 726.65 293 c 2,31,-1
 726.65 35 l 2,32,33
 726.65 -186 726.65 -186 651.5 -260 c 128,-1,34
 576.35 -334 576.35 -334 352.25 -334 c 2,35,-1
 295.55 -334 l 1,36,-1
 295.55 -229 l 1,0,-1
EndSplineSet
EndChar
StartChar: asciitilde
Encoding: 126 126 97
Width: 1630
Flags: HW
Fore
1434.9 807 m 1,0,-1
 1434.9 659 l 1,1,2
 1344.9 571 1344.9 571 1263.9 529 c 128,-1,3
 1182.9 487 1182.9 487 1099.2 487 c 0,4,5
 1012.8 487 1012.8 487 856.2 553 c 2,6,-1
 847.2 557 l 2,7,8
 837.3 561 837.3 561 817.5 570 c 0,9,10
 685.2 627 685.2 627 599.7 627 c 0,11,12
 516.9 627 516.9 627 439.05 590.5 c 128,-1,13
 361.2 554 361.2 554 281.1 477 c 1,14,-1
 281.1 629 l 1,15,16
 371.1 716 371.1 716 451.65 756.5 c 128,-1,17
 532.2 797 532.2 797 616.8 797 c 0,18,19
 703.2 797 703.2 797 859.8 731 c 2,20,-1
 868.8 727 l 2,21,22
 878.7 723 878.7 723 896.7 715 c 0,23,24
 1027.2 657 1027.2 657 1114.5 657 c 0,25,26
 1197.3 657 1197.3 657 1276.5 694 c 128,-1,27
 1355.7 731 1355.7 731 1434.9 807 c 1,0,-1
EndSplineSet
EndChar
StartChar: exclamdown
Encoding: 161 161 163
Width: 781
Flags: HW
Fore
292.3 1389 m 0,0,1
 292.3 1445 292.3 1445 326.5 1483.5 c 128,-1,2
 360.7 1522 360.7 1522 412 1522 c 0,3,4
 461.5 1522 461.5 1522 496.6 1483 c 128,-1,5
 531.7 1444 531.7 1444 531.7 1389 c 0,6,7
 531.7 1333 531.7 1333 496.6 1294 c 128,-1,8
 461.5 1255 461.5 1255 412 1255 c 0,9,10
 360.7 1255 360.7 1255 326.5 1294 c 128,-1,11
 292.3 1333 292.3 1333 292.3 1389 c 0,0,1
295.9 0 m 1,12,-1
 356.2 821 l 1,13,-1
 356.2 1073 l 1,14,-1
 466.9 1073 l 1,15,-1
 466.9 821 l 1,16,-1
 528.1 0 l 1,17,-1
 295.9 0 l 1,12,-1
EndSplineSet
EndChar
StartChar: cent
Encoding: 162 162 132
Width: 1235
Flags: HW
Fore
629 991 m 1,0,1
 512.9 976 512.9 976 454.85 861 c 128,-1,2
 396.8 746 396.8 746 396.8 532 c 0,3,4
 396.8 317 396.8 317 454.85 202 c 128,-1,5
 512.9 87 512.9 87 629 72 c 1,6,-1
 629 991 l 1,0,1
1056.5 319 m 1,7,8
 1025 165 1025 165 940.4 78.5 c 128,-1,9
 855.8 -8 855.8 -8 719 -27 c 1,10,-1
 719 -297 l 1,11,-1
 629 -297 l 1,12,-1
 629 -27 l 1,13,14
 431 -8 431 -8 316.25 142 c 128,-1,15
 201.5 292 201.5 292 201.5 532 c 0,16,17
 201.5 774 201.5 774 316.25 923.5 c 128,-1,18
 431 1073 431 1073 629 1090 c 1,19,-1
 629 1356 l 1,20,-1
 719 1356 l 1,21,-1
 719 1090 l 1,22,23
 801.8 1082 801.8 1082 877.4 1059 c 128,-1,24
 953 1036 953 1036 1025 997 c 1,25,-1
 1025 725 l 1,26,-1
 929.6 725 l 1,27,28
 912.5 848 912.5 848 860.75 913.5 c 128,-1,29
 809 979 809 979 719 991 c 1,30,-1
 719 72 l 1,31,32
 800 84 800 84 852.2 147.5 c 128,-1,33
 904.4 211 904.4 211 923.3 319 c 1,34,-1
 1056.5 319 l 1,7,8
EndSplineSet
EndChar
StartChar: sterling
Encoding: 163 163 133
Width: 1235
Flags: HW
Fore
1054.85 1225 m 1,0,-1
 960.35 1225 l 1,1,2
 951.35 1320 951.35 1320 900.5 1370.5 c 128,-1,3
 849.65 1421 849.65 1421 763.25 1421 c 0,4,5
 648.95 1421 648.95 1421 594.5 1343.5 c 128,-1,6
 540.05 1266 540.05 1266 540.05 1102 c 2,7,-1
 540.05 807 l 1,8,-1
 910.85 807 l 1,9,-1
 910.85 700 l 1,10,-1
 540.05 700 l 1,11,-1
 540.05 121 l 1,12,-1
 970.25 121 l 1,13,-1
 970.25 348 l 1,14,-1
 1074.65 348 l 1,15,-1
 1074.65 0 l 1,16,-1
 186.35 0 l 1,17,-1
 186.35 106 l 1,18,-1
 360.05 106 l 1,19,-1
 360.05 700 l 1,20,-1
 186.35 700 l 1,21,-1
 186.35 807 l 1,22,-1
 360.05 807 l 1,23,-1
 360.05 1102 l 2,24,25
 360.05 1307 360.05 1307 463.1 1413.5 c 128,-1,26
 566.15 1520 566.15 1520 765.05 1520 c 0,27,28
 841.55 1520 841.55 1520 914.45 1507.5 c 128,-1,29
 987.35 1495 987.35 1495 1054.85 1470 c 1,30,-1
 1054.85 1225 l 1,0,-1
EndSplineSet
EndChar
StartChar: currency
Encoding: 164 164 189
Width: 1238
Flags: HW
Fore
876.3 985 m 1,0,-1
 1064.4 1192 l 1,1,-1
 1149 1098 l 1,2,-1
 960.9 889 l 1,3,4
 999.6 829 999.6 829 1018.05 768 c 128,-1,5
 1036.5 707 1036.5 707 1036.5 641 c 0,6,7
 1036.5 572 1036.5 572 1018.05 513 c 128,-1,8
 999.6 454 999.6 454 959.1 397 c 1,9,-1
 1145.4 190 l 1,10,-1
 1059 96 l 1,11,-1
 872.7 301 l 1,12,13
 822.3 257 822.3 257 768.75 236 c 128,-1,14
 715.2 215 715.2 215 653.1 215 c 0,15,16
 595.5 215 595.5 215 539.25 235.5 c 128,-1,17
 483 256 483 256 428.1 297 c 1,18,-1
 244.5 92 l 1,19,-1
 159 186 l 1,20,-1
 343.5 393 l 1,21,22
 306.6 455 306.6 455 288.15 516 c 128,-1,23
 269.7 577 269.7 577 269.7 641 c 0,24,25
 269.7 711 269.7 711 288.6 770.5 c 128,-1,26
 307.5 830 307.5 830 347.1 887 c 1,27,-1
 160.8 1094 l 1,28,-1
 246.3 1188 l 1,29,-1
 432.6 981 l 1,30,31
 483 1025 483 1025 537 1046 c 128,-1,32
 591 1067 591 1067 653.1 1067 c 0,33,34
 712.5 1067 712.5 1067 767.4 1047 c 128,-1,35
 822.3 1027 822.3 1027 876.3 985 c 1,0,-1
895.2 643 m 0,36,37
 895.2 755 895.2 755 825.45 832 c 128,-1,38
 755.7 909 755.7 909 653.1 909 c 0,39,40
 552.3 909 552.3 909 482.1 832 c 128,-1,41
 411.9 755 411.9 755 411.9 643 c 0,42,43
 411.9 529 411.9 529 481.65 451 c 128,-1,44
 551.4 373 551.4 373 653.1 373 c 0,45,46
 754.8 373 754.8 373 825 451.5 c 128,-1,47
 895.2 530 895.2 530 895.2 643 c 0,36,37
EndSplineSet
EndChar
StartChar: yen
Encoding: 165 165 150
Width: 1237
Flags: HW
Fore
388.65 0 m 1,0,-1
 388.65 106 l 1,1,-1
 560.55 106 l 1,2,-1
 560.55 473 l 1,3,-1
 196.95 473 l 1,4,-1
 196.95 578 l 1,5,-1
 560.55 578 l 1,6,-1
 560.55 643 l 1,7,-1
 486.75 784 l 1,8,-1
 196.95 784 l 1,9,-1
 196.95 889 l 1,10,-1
 433.65 889 l 1,11,-1
 175.35 1386 l 1,12,-1
 50.25 1386 l 1,13,-1
 50.25 1493 l 1,14,-1
 547.95 1493 l 1,15,-1
 547.95 1386 l 1,16,-1
 390.45 1386 l 1,17,-1
 699.15 782 l 1,18,-1
 1004.25 1386 l 1,19,-1
 853.95 1386 l 1,20,-1
 853.95 1493 l 1,21,-1
 1242.75 1493 l 1,22,-1
 1242.75 1386 l 1,23,-1
 1114.95 1386 l 1,24,-1
 859.35 889 l 1,25,-1
 1104.15 889 l 1,26,-1
 1104.15 784 l 1,27,-1
 805.35 784 l 1,28,-1
 741.45 662 l 1,29,-1
 741.45 578 l 1,30,-1
 1104.15 578 l 1,31,-1
 1104.15 473 l 1,32,-1
 741.45 473 l 1,33,-1
 741.45 106 l 1,34,-1
 912.45 106 l 1,35,-1
 912.45 0 l 1,36,-1
 388.65 0 l 1,0,-1
EndSplineSet
EndChar
StartChar: brokenbar
Encoding: 166 166 231
Width: 655
Flags: HW
Fore
417.9 408 m 1,0,-1
 417.9 -350 l 1,1,-1
 272.1 -350 l 1,2,-1
 272.1 408 l 1,3,-1
 417.9 408 l 1,0,-1
417.9 1432 m 1,4,-1
 417.9 674 l 1,5,-1
 272.1 674 l 1,6,-1
 272.1 1432 l 1,7,-1
 417.9 1432 l 1,4,-1
EndSplineSet
EndChar
StartChar: section
Encoding: 167 167 134
Width: 972
Flags: HW
Fore
392.3 936 m 1,0,1
 331.1 890 331.1 890 306.35 848.5 c 128,-1,2
 281.6 807 281.6 807 281.6 754 c 0,3,4
 281.6 622 281.6 622 608.3 419 c 2,5,-1
 637.1 401 l 1,6,7
 689.3 439 689.3 439 715.85 487 c 128,-1,8
 742.4 535 742.4 535 742.4 592 c 0,9,10
 742.4 667 742.4 667 679.85 734 c 128,-1,11
 617.3 801 617.3 801 392.3 936 c 1,0,1
797.3 1464 m 1,12,-1
 797.3 1262 l 1,13,-1
 714.5 1262 l 1,14,15
 712.7 1334 712.7 1334 665.9 1375.5 c 128,-1,16
 619.1 1417 619.1 1417 539.9 1417 c 0,17,18
 449.9 1417 449.9 1417 398.15 1368.5 c 128,-1,19
 346.4 1320 346.4 1320 346.4 1237 c 0,20,21
 346.4 1140 346.4 1140 567.8 1003 c 0,22,23
 591.2 988 591.2 988 602 981 c 0,24,25
 777.5 872 777.5 872 833.75 797 c 128,-1,26
 890 722 890 722 890 623 c 0,27,28
 890 528 890 528 842.75 465 c 128,-1,29
 795.5 402 795.5 402 692.9 358 c 1,30,31
 763.1 311 763.1 311 795.95 248 c 128,-1,32
 828.8 185 828.8 185 828.8 94 c 0,33,34
 828.8 -37 828.8 -37 737 -116 c 128,-1,35
 645.2 -195 645.2 -195 489.5 -195 c 0,36,37
 408.5 -195 408.5 -195 336.5 -181.5 c 128,-1,38
 264.5 -168 264.5 -168 195.2 -139 c 1,39,-1
 195.2 70 l 1,40,-1
 278 69 l 1,41,42
 279.8 -11 279.8 -11 328.4 -51.5 c 128,-1,43
 377 -92 377 -92 473.3 -92 c 0,44,45
 566.9 -92 566.9 -92 621.35 -43 c 128,-1,46
 675.8 6 675.8 6 675.8 90 c 0,47,48
 675.8 203 675.8 203 470.6 330 c 0,49,50
 451.7 342 451.7 342 441.8 348 c 0,51,52
 247.4 470 247.4 470 190.7 545 c 128,-1,53
 134 620 134 620 134 719 c 0,54,55
 134 813 134 813 187.1 879.5 c 128,-1,56
 240.2 946 240.2 946 338.3 977 c 1,57,58
 264.5 1026 264.5 1026 228.95 1089 c 128,-1,59
 193.4 1152 193.4 1152 193.4 1231 c 0,60,61
 193.4 1361 193.4 1361 283.4 1440.5 c 128,-1,62
 373.4 1520 373.4 1520 522.8 1520 c 0,63,64
 593 1520 593 1520 661.4 1506 c 128,-1,65
 729.8 1492 729.8 1492 797.3 1464 c 1,12,-1
EndSplineSet
EndChar
StartChar: dieresis
Encoding: 168 168 142
Width: 972
Flags: HW
Fore
336.5 1569 m 0,0,1
 379.7 1569 379.7 1569 410.75 1534.5 c 128,-1,2
 441.8 1500 441.8 1500 441.8 1452 c 0,3,4
 441.8 1401 441.8 1401 412.1 1368 c 128,-1,5
 382.4 1335 382.4 1335 336.5 1335 c 0,6,7
 291.5 1335 291.5 1335 261.8 1368 c 128,-1,8
 232.1 1401 232.1 1401 232.1 1452 c 0,9,10
 232.1 1500 232.1 1500 263.15 1534.5 c 128,-1,11
 294.2 1569 294.2 1569 336.5 1569 c 0,0,1
687.5 1569 m 0,12,13
 729.8 1569 729.8 1569 760.85 1534.5 c 128,-1,14
 791.9 1500 791.9 1500 791.9 1452 c 0,15,16
 791.9 1401 791.9 1401 762.2 1368 c 128,-1,17
 732.5 1335 732.5 1335 687.5 1335 c 0,18,19
 641.6 1335 641.6 1335 611.9 1368 c 128,-1,20
 582.2 1401 582.2 1401 582.2 1452 c 0,21,22
 582.2 1500 582.2 1500 613.25 1534.5 c 128,-1,23
 644.3 1569 644.3 1569 687.5 1569 c 0,12,13
EndSplineSet
Ligature: 0 1 'liga' space uni0308
EndChar
StartChar: copyright
Encoding: 169 169 139
Width: 1945
Flags: HW
Fore
1340.8 573 m 1,0,1
 1316.5 442 1316.5 442 1235.05 371.5 c 128,-1,2
 1153.6 301 1153.6 301 1025.8 301 c 0,3,4
 857.5 301 857.5 301 757.15 421 c 128,-1,5
 656.8 541 656.8 541 656.8 741 c 0,6,7
 656.8 942 656.8 942 758.05 1063 c 128,-1,8
 859.3 1184 859.3 1184 1025.8 1184 c 0,9,10
 1097.8 1184 1097.8 1184 1167.55 1165.5 c 128,-1,11
 1237.3 1147 1237.3 1147 1315.6 1108 c 1,12,-1
 1315.6 895 l 1,13,-1
 1240 895 l 1,14,15
 1224.7 1004 1224.7 1004 1173.4 1055 c 128,-1,16
 1122.1 1106 1122.1 1106 1027.6 1106 c 0,17,18
 920.5 1106 920.5 1106 866.05 1014.5 c 128,-1,19
 811.6 923 811.6 923 811.6 741 c 0,20,21
 811.6 560 811.6 560 865.6 469.5 c 128,-1,22
 919.6 379 919.6 379 1025.8 379 c 0,23,24
 1113.1 379 1113.1 379 1163.95 426.5 c 128,-1,25
 1214.8 474 1214.8 474 1233.7 573 c 1,26,-1
 1340.8 573 l 1,0,1
1024 1485 m 0,27,28
 1160.8 1485 1160.8 1485 1279.15 1430 c 128,-1,29
 1397.5 1375 1397.5 1375 1495.6 1266 c 0,30,31
 1593.7 1157 1593.7 1157 1642.3 1026 c 128,-1,32
 1690.9 895 1690.9 895 1690.9 741 c 0,33,34
 1690.9 589 1690.9 589 1642.3 458.5 c 128,-1,35
 1593.7 328 1593.7 328 1495.6 219 c 0,36,37
 1397.5 110 1397.5 110 1279.15 55 c 128,-1,38
 1160.8 0 1160.8 0 1024 0 c 0,39,40
 887.2 0 887.2 0 768.85 55 c 128,-1,41
 650.5 110 650.5 110 552.4 219 c 0,42,43
 454.3 328 454.3 328 405.7 458.5 c 128,-1,44
 357.1 589 357.1 589 357.1 741 c 0,45,46
 357.1 895 357.1 895 405.7 1026 c 128,-1,47
 454.3 1157 454.3 1157 552.4 1266 c 0,48,49
 650.5 1375 650.5 1375 768.85 1430 c 128,-1,50
 887.2 1485 887.2 1485 1024 1485 c 0,27,28
1024 1382 m 0,51,52
 906.1 1382 906.1 1382 804.4 1335 c 128,-1,53
 702.7 1288 702.7 1288 618.1 1194 c 0,54,55
 534.4 1101 534.4 1101 491.65 986.5 c 128,-1,56
 448.9 872 448.9 872 448.9 741 c 0,57,58
 448.9 611 448.9 611 491.65 498 c 128,-1,59
 534.4 385 534.4 385 618.1 291 c 0,60,61
 702.7 197 702.7 197 804.4 149.5 c 128,-1,62
 906.1 102 906.1 102 1024 102 c 0,63,64
 1142.8 102 1142.8 102 1244.95 149.5 c 128,-1,65
 1347.1 197 1347.1 197 1431.7 291 c 0,66,67
 1515.4 384 1515.4 384 1557.25 497 c 128,-1,68
 1599.1 610 1599.1 610 1599.1 741 c 0,69,70
 1599.1 874 1599.1 874 1556.8 987.5 c 128,-1,71
 1514.5 1101 1514.5 1101 1431.7 1194 c 0,72,73
 1347.1 1288 1347.1 1288 1244.95 1335 c 128,-1,74
 1142.8 1382 1142.8 1382 1024 1382 c 0,51,52
EndSplineSet
EndChar
StartChar: ordfeminine
Encoding: 170 170 157
Width: 927
Flags: HW
Fore
806.35 1219 m 2,0,-1
 806.35 840 l 1,1,-1
 878.35 840 l 1,2,-1
 878.35 756 l 1,3,-1
 673.15 756 l 1,4,-1
 673.15 836 l 1,5,6
 629.95 785 629.95 785 573.7 761 c 128,-1,7
 517.45 737 517.45 737 439.15 737 c 0,8,9
 312.25 737 312.25 737 238.45 802 c 128,-1,10
 164.65 867 164.65 867 164.65 979 c 0,11,12
 164.65 1093 164.65 1093 250.15 1157 c 128,-1,13
 335.65 1221 335.65 1221 488.65 1221 c 2,14,-1
 673.15 1221 l 1,15,-1
 673.15 1266 l 2,16,17
 673.15 1350 673.15 1350 620.95 1397 c 128,-1,18
 568.75 1444 568.75 1444 474.25 1444 c 0,19,20
 395.95 1444 395.95 1444 350.05 1409 c 128,-1,21
 304.15 1374 304.15 1374 291.55 1305 c 1,22,-1
 223.15 1305 l 1,23,-1
 223.15 1462 l 1,24,25
 292.45 1491 292.45 1491 357.25 1505.5 c 128,-1,26
 422.05 1520 422.05 1520 481.45 1520 c 0,27,28
 640.75 1520 640.75 1520 723.55 1443 c 128,-1,29
 806.35 1366 806.35 1366 806.35 1219 c 2,0,-1
673.15 997 m 2,30,-1
 673.15 1145 l 1,31,-1
 503.95 1145 l 2,32,33
 409.45 1145 409.45 1145 360.85 1105 c 128,-1,34
 312.25 1065 312.25 1065 312.25 987 c 0,35,36
 312.25 906 312.25 906 357.7 863.5 c 128,-1,37
 403.15 821 403.15 821 490.45 821 c 0,38,39
 573.25 821 573.25 821 623.2 869.5 c 128,-1,40
 673.15 918 673.15 918 673.15 997 c 2,30,-1
201.55 639 m 1,41,-1
 829.75 639 l 1,42,-1
 829.75 535 l 1,43,-1
 201.55 535 l 1,44,-1
 201.55 639 l 1,41,-1
EndSplineSet
EndChar
StartChar: guillemotleft
Encoding: 171 171 169
Width: 1188
Flags: HW
Fore
1015.85 1059 m 1,0,-1
 1015.85 944 l 1,1,-1
 748.55 600 l 1,2,-1
 1015.85 256 l 1,3,-1
 1015.85 141 l 1,4,-1
 593.75 559 l 1,5,-1
 593.75 641 l 1,6,-1
 1015.85 1059 l 1,0,-1
625.25 1059 m 1,7,-1
 625.25 944 l 1,8,-1
 357.95 600 l 1,9,-1
 625.25 256 l 1,10,-1
 625.25 141 l 1,11,-1
 203.15 559 l 1,12,-1
 203.15 641 l 1,13,-1
 625.25 1059 l 1,7,-1
EndSplineSet
EndChar
StartChar: logicalnot
Encoding: 172 172 164
Width: 1630
Flags: HW
Fore
281.1 862 m 1,0,-1
 1434.9 862 l 1,1,-1
 1434.9 287 l 1,2,-1
 1290.9 287 l 1,3,-1
 1290.9 700 l 1,4,-1
 281.1 700 l 1,5,-1
 281.1 862 l 1,0,-1
EndSplineSet
EndChar
StartChar: sfthyphen
Encoding: 173 173 256
Width: 657
Flags: HW
Fore
115.6 627 m 1,0,-1
 576.4 627 l 1,1,-1
 576.4 471 l 1,2,-1
 115.6 471 l 1,3,-1
 115.6 627 l 1,0,-1
EndSplineSet
EndChar
StartChar: registered
Encoding: 174 174 138
Width: 1945
Flags: HW
Fore
907.9 791 m 1,0,-1
 1020.4 791 l 2,1,2
 1095.1 791 1095.1 791 1132.45 829 c 128,-1,3
 1169.8 867 1169.8 867 1169.8 942 c 0,4,5
 1169.8 1016 1169.8 1016 1132 1054 c 128,-1,6
 1094.2 1092 1094.2 1092 1020.4 1092 c 2,7,-1
 907.9 1092 l 1,8,-1
 907.9 791 l 1,0,-1
1129.3 754 m 1,9,10
 1167.1 740 1167.1 740 1193.65 714.5 c 128,-1,11
 1220.2 689 1220.2 689 1238.2 649 c 2,12,-1
 1342.6 420 l 1,13,-1
 1411 420 l 1,14,-1
 1411 352 l 1,15,-1
 1240 352 l 1,16,-1
 1122.1 606 l 1,17,18
 1090.6 676 1090.6 676 1062.7 699.5 c 128,-1,19
 1034.8 723 1034.8 723 990.7 723 c 2,20,-1
 907.9 723 l 1,21,-1
 907.9 420 l 1,22,-1
 983.5 420 l 1,23,-1
 983.5 352 l 1,24,-1
 698.2 352 l 1,25,-1
 698.2 420 l 1,26,-1
 772.9 420 l 1,27,-1
 772.9 1092 l 1,28,-1
 698.2 1092 l 1,29,-1
 698.2 1159 l 1,30,-1
 1071.7 1159 l 2,31,32
 1186.9 1159 1186.9 1159 1245.4 1103 c 128,-1,33
 1303.9 1047 1303.9 1047 1303.9 938 c 0,34,35
 1303.9 855 1303.9 855 1260.7 809.5 c 128,-1,36
 1217.5 764 1217.5 764 1129.3 754 c 1,9,10
1024 1382 m 0,37,38
 906.1 1382 906.1 1382 804.4 1335 c 128,-1,39
 702.7 1288 702.7 1288 618.1 1194 c 0,40,41
 534.4 1101 534.4 1101 491.65 986.5 c 128,-1,42
 448.9 872 448.9 872 448.9 741 c 0,43,44
 448.9 611 448.9 611 491.65 498 c 128,-1,45
 534.4 385 534.4 385 618.1 291 c 0,46,47
 702.7 197 702.7 197 804.4 149.5 c 128,-1,48
 906.1 102 906.1 102 1024 102 c 0,49,50
 1142.8 102 1142.8 102 1244.95 149.5 c 128,-1,51
 1347.1 197 1347.1 197 1431.7 291 c 0,52,53
 1515.4 384 1515.4 384 1557.25 497 c 128,-1,54
 1599.1 610 1599.1 610 1599.1 741 c 0,55,56
 1599.1 874 1599.1 874 1556.8 987.5 c 128,-1,57
 1514.5 1101 1514.5 1101 1431.7 1194 c 0,58,59
 1347.1 1288 1347.1 1288 1244.95 1335 c 128,-1,60
 1142.8 1382 1142.8 1382 1024 1382 c 0,37,38
1024 1485 m 0,61,62
 1160.8 1485 1160.8 1485 1279.15 1430 c 128,-1,63
 1397.5 1375 1397.5 1375 1495.6 1266 c 0,64,65
 1593.7 1157 1593.7 1157 1642.3 1026 c 128,-1,66
 1690.9 895 1690.9 895 1690.9 741 c 0,67,68
 1690.9 589 1690.9 589 1642.3 458.5 c 128,-1,69
 1593.7 328 1593.7 328 1495.6 219 c 0,70,71
 1397.5 110 1397.5 110 1279.15 55 c 128,-1,72
 1160.8 0 1160.8 0 1024 0 c 0,73,74
 887.2 0 887.2 0 768.85 55 c 128,-1,75
 650.5 110 650.5 110 552.4 219 c 0,76,77
 454.3 328 454.3 328 405.7 458.5 c 128,-1,78
 357.1 589 357.1 589 357.1 741 c 0,79,80
 357.1 895 357.1 895 405.7 1026 c 128,-1,81
 454.3 1157 454.3 1157 552.4 1266 c 0,82,83
 650.5 1375 650.5 1375 768.85 1430 c 128,-1,84
 887.2 1485 887.2 1485 1024 1485 c 0,61,62
EndSplineSet
EndChar
StartChar: macron
Encoding: 175 175 217
Width: 972
Flags: HW
Fore
242.9 1526 m 1,0,-1
 781.1 1526 l 1,1,-1
 781.1 1378 l 1,2,-1
 242.9 1378 l 1,3,-1
 242.9 1526 l 1,0,-1
EndSplineSet
Ligature: 0 1 'liga' space uni0304
EndChar
StartChar: degree
Encoding: 176 176 131
Width: 972
Flags: HW
Fore
512 1382 m 0,0,1
 443.6 1382 443.6 1382 396.8 1329.5 c 128,-1,2
 350 1277 350 1277 350 1200 c 0,3,4
 350 1124 350 1124 396.35 1073 c 128,-1,5
 442.7 1022 442.7 1022 512 1022 c 0,6,7
 580.4 1022 580.4 1022 627.2 1073.5 c 128,-1,8
 674 1125 674 1125 674 1200 c 0,9,10
 674 1275 674 1275 626.3 1328.5 c 128,-1,11
 578.6 1382 578.6 1382 512 1382 c 0,0,1
512 1520 m 0,12,13
 569.6 1520 569.6 1520 622.7 1495.5 c 128,-1,14
 675.8 1471 675.8 1471 714.5 1425 c 1,15,16
 755.9 1380 755.9 1380 776.6 1323 c 128,-1,17
 797.3 1266 797.3 1266 797.3 1200 c 0,18,19
 797.3 1068 797.3 1068 714.05 976.5 c 128,-1,20
 630.8 885 630.8 885 510.2 885 c 0,21,22
 388.7 885 388.7 885 307.7 975 c 128,-1,23
 226.7 1065 226.7 1065 226.7 1200 c 0,24,25
 226.7 1334 226.7 1334 309.5 1427 c 128,-1,26
 392.3 1520 392.3 1520 512 1520 c 0,12,13
EndSplineSet
EndChar
StartChar: plusminus
Encoding: 177 177 147
Width: 1630
Flags: HW
Fore
930 1284 m 1,0,-1
 930 893 l 1,1,-1
 1434.9 893 l 1,2,-1
 1434.9 731 l 1,3,-1
 930 731 l 1,4,-1
 930 340 l 1,5,-1
 786 340 l 1,6,-1
 786 731 l 1,7,-1
 281.1 731 l 1,8,-1
 281.1 893 l 1,9,-1
 786 893 l 1,10,-1
 786 1284 l 1,11,-1
 930 1284 l 1,0,-1
281.1 160 m 1,12,-1
 1434.9 160 l 1,13,-1
 1434.9 0 l 1,14,-1
 281.1 0 l 1,15,-1
 281.1 160 l 1,12,-1
EndSplineSet
EndChar
StartChar: twosuperior
Encoding: 178 178 241
Width: 778
Flags: HW
Fore
192.1 1296 m 1,0,-1
 129.1 1296 l 1,1,-1
 129.1 1454 l 1,2,3
 188.5 1486 188.5 1486 251.5 1503 c 128,-1,4
 314.5 1520 314.5 1520 376.6 1520 c 0,5,6
 500.8 1520 500.8 1520 577.75 1454 c 128,-1,7
 654.7 1388 654.7 1388 654.7 1284 c 0,8,9
 654.7 1162 654.7 1162 480.1 988 c 2,10,-1
 463 971 l 1,11,-1
 248.8 756 l 1,12,-1
 595.3 756 l 1,13,-1
 595.3 864 l 1,14,-1
 661.9 864 l 1,15,-1
 661.9 668 l 1,16,-1
 120.1 668 l 1,17,-1
 120.1 743 l 1,18,-1
 376.6 997 l 2,19,20
 454 1074 454 1074 487.3 1135 c 128,-1,21
 520.6 1196 520.6 1196 520.6 1262 c 0,22,23
 520.6 1347 520.6 1347 476.95 1396.5 c 128,-1,24
 433.3 1446 433.3 1446 357.7 1446 c 0,25,26
 287.5 1446 287.5 1446 245.2 1408 c 128,-1,27
 202.9 1370 202.9 1370 192.1 1296 c 1,0,-1
EndSplineSet
EndChar
StartChar: threesuperior
Encoding: 179 179 242
Width: 779
Flags: HW
Fore
153.35 1468 m 1,0,1
 219.05 1494 219.05 1494 279.35 1507 c 128,-1,2
 339.65 1520 339.65 1520 392.75 1520 c 0,3,4
 516.95 1520 516.95 1520 584 1466 c 128,-1,5
 651.05 1412 651.05 1412 651.05 1313 c 0,6,7
 651.05 1241 651.05 1241 603.35 1191 c 128,-1,8
 555.65 1141 555.65 1141 470.15 1124 c 1,9,10
 577.25 1108 577.25 1108 631.7 1048.5 c 128,-1,11
 686.15 989 686.15 989 686.15 889 c 0,12,13
 686.15 775 686.15 775 607.4 714 c 128,-1,14
 528.65 653 528.65 653 381.95 653 c 0,15,16
 317.15 653 317.15 653 254.6 667 c 128,-1,17
 192.05 681 192.05 681 130.85 709 c 1,18,-1
 130.85 879 l 1,19,-1
 193.85 878 l 1,20,21
 198.35 804 198.35 804 242.45 765.5 c 128,-1,22
 286.55 727 286.55 727 369.35 727 c 0,23,24
 453.95 727 453.95 727 499.85 771 c 128,-1,25
 545.75 815 545.75 815 545.75 897 c 0,26,27
 545.75 990 545.75 990 499.85 1037.5 c 128,-1,28
 453.95 1085 453.95 1085 363.05 1085 c 2,29,-1
 315.35 1085 l 1,30,-1
 315.35 1159 l 1,31,-1
 339.65 1159 l 2,32,33
 426.95 1159 426.95 1159 471.5 1196 c 128,-1,34
 516.05 1233 516.05 1233 516.05 1307 c 0,35,36
 516.05 1374 516.05 1374 479.6 1410 c 128,-1,37
 443.15 1446 443.15 1446 374.75 1446 c 0,38,39
 300.95 1446 300.95 1446 261.8 1414 c 128,-1,40
 222.65 1382 222.65 1382 216.35 1317 c 1,41,-1
 153.35 1317 l 1,42,-1
 153.35 1468 l 1,0,1
EndSplineSet
EndChar
StartChar: acute
Encoding: 180 180 141
Width: 983
Flags: HW
Fore
648.05 1638 m 1,0,-1
 827.15 1638 l 1,1,-1
 521.15 1262 l 1,2,-1
 415.85 1262 l 1,3,-1
 648.05 1638 l 1,0,-1
EndSplineSet
LCarets: 0 65535 '    ' 1 0 
Ligature: 0 1 'liga' space acutecomb
EndChar
StartChar: mu
Encoding: 181 181 151
Width: 1263
Flags: HW
Fore
730.9 1063 m 1,0,-1
 1040.5 1063 l 1,1,-1
 1040.5 104 l 1,2,-1
 1197.1 104 l 1,3,-1
 1197.1 0 l 1,4,-1
 874.9 0 l 1,5,-1
 874.9 188 l 1,6,7
 828.1 82 828.1 82 761.95 26.5 c 128,-1,8
 695.8 -29 695.8 -29 614.8 -29 c 0,9,10
 563.5 -29 563.5 -29 521.2 -11 c 128,-1,11
 478.9 7 478.9 7 443.8 43 c 1,12,-1
 443.8 -319 l 1,13,-1
 600.4 -319 l 1,14,-1
 600.4 -426 l 1,15,-1
 118.9 -426 l 1,16,-1
 118.9 -319 l 1,17,-1
 278.2 -319 l 1,18,-1
 278.2 956 l 1,19,-1
 128.8 956 l 1,20,-1
 128.8 1063 l 1,21,-1
 443.8 1063 l 1,22,-1
 443.8 444 l 2,23,24
 443.8 250 443.8 250 487 178 c 128,-1,25
 530.2 106 530.2 106 639.1 106 c 0,26,27
 754.3 106 754.3 106 814.6 200 c 128,-1,28
 874.9 294 874.9 294 874.9 473 c 2,29,-1
 874.9 956 l 1,30,-1
 730.9 956 l 1,31,-1
 730.9 1063 l 1,0,-1
EndSplineSet
EndChar
StartChar: paragraph
Encoding: 182 182 136
Width: 1239
Flags: HW
Fore
636.15 1493 m 2,0,-1
 1120.35 1493 l 1,1,-1
 1120.35 1386 l 1,2,-1
 1014.15 1386 l 1,3,-1
 1014.15 -197 l 1,4,-1
 917.85 -197 l 1,5,-1
 917.85 1386 l 1,6,-1
 709.95 1386 l 1,7,-1
 709.95 -197 l 1,8,-1
 613.65 -197 l 1,9,-1
 613.65 649 l 1,10,11
 420.15 666 420.15 666 314.4 776.5 c 128,-1,12
 208.65 887 208.65 887 208.65 1071 c 0,13,14
 208.65 1261 208.65 1261 325.65 1377 c 128,-1,15
 442.65 1493 442.65 1493 636.15 1493 c 2,0,-1
EndSplineSet
EndChar
StartChar: periodcentered
Encoding: 183 183 195
Width: 618
Flags: HW
Fore
203.35 711 m 0,0,1
 203.35 767 203.35 767 238 805.5 c 128,-1,2
 272.65 844 272.65 844 323.95 844 c 0,3,4
 373.45 844 373.45 844 408.55 805 c 128,-1,5
 443.65 766 443.65 766 443.65 711 c 0,6,7
 443.65 655 443.65 655 408.55 616.5 c 128,-1,8
 373.45 578 373.45 578 323.95 578 c 0,9,10
 272.65 578 272.65 578 238 616 c 128,-1,11
 203.35 654 203.35 654 203.35 711 c 0,0,1
EndSplineSet
EndChar
StartChar: cedilla
Encoding: 184 184 221
Width: 971
Flags: HW
Fore
570 0 m 1,0,1
 627.6 -64 627.6 -64 655.95 -120 c 128,-1,2
 684.3 -176 684.3 -176 684.3 -225 c 0,3,4
 684.3 -306 684.3 -306 627.6 -350.5 c 128,-1,5
 570.9 -395 570.9 -395 470.1 -395 c 0,6,7
 432.3 -395 432.3 -395 392.7 -389 c 128,-1,8
 353.1 -383 353.1 -383 311.7 -371 c 1,9,-1
 311.7 -240 l 1,10,11
 348.6 -257 348.6 -257 384.15 -265.5 c 128,-1,12
 419.7 -274 419.7 -274 451.2 -274 c 0,13,14
 502.5 -274 502.5 -274 532.2 -247.5 c 128,-1,15
 561.9 -221 561.9 -221 561.9 -176 c 0,16,17
 561.9 -148 561.9 -148 542.1 -104 c 128,-1,18
 522.3 -60 522.3 -60 482.7 0 c 1,19,-1
 570 0 l 1,0,1
EndSplineSet
Ligature: 0 1 'liga' space uni0327
EndChar
StartChar: onesuperior
Encoding: 185 185 240
Width: 779
Flags: HW
Fore
198.85 668 m 1,0,-1
 198.85 752 l 1,1,-1
 353.65 752 l 1,2,-1
 353.65 1386 l 1,3,-1
 172.75 1280 l 1,4,-1
 172.75 1374 l 1,5,-1
 388.75 1503 l 1,6,-1
 480.55 1503 l 1,7,-1
 480.55 752 l 1,8,-1
 636.25 752 l 1,9,-1
 636.25 668 l 1,10,-1
 198.85 668 l 1,0,-1
EndSplineSet
EndChar
StartChar: ordmasculine
Encoding: 186 186 158
Width: 914
Flags: HW
Fore
481 813 m 0,0,1
 576.4 813 576.4 813 624.55 892.5 c 128,-1,2
 672.7 972 672.7 972 672.7 1128 c 0,3,4
 672.7 1284 672.7 1284 624.1 1364 c 128,-1,5
 575.5 1444 575.5 1444 481 1444 c 0,6,7
 387.4 1444 387.4 1444 338.35 1363 c 128,-1,8
 289.3 1282 289.3 1282 289.3 1128 c 0,9,10
 289.3 973 289.3 973 337.9 893 c 128,-1,11
 386.5 813 386.5 813 481 813 c 0,0,1
481 737 m 0,12,13
 323.5 737 323.5 737 228.1 844.5 c 128,-1,14
 132.7 952 132.7 952 132.7 1128 c 0,15,16
 132.7 1305 132.7 1305 228.1 1412.5 c 128,-1,17
 323.5 1520 323.5 1520 481 1520 c 0,18,19
 638.5 1520 638.5 1520 733.9 1412.5 c 128,-1,20
 829.3 1305 829.3 1305 829.3 1128 c 0,21,22
 829.3 951 829.3 951 734.35 844 c 128,-1,23
 639.4 737 639.4 737 481 737 c 0,12,13
171.4 639 m 1,24,-1
 790.6 639 l 1,25,-1
 790.6 535 l 1,26,-1
 171.4 535 l 1,27,-1
 171.4 639 l 1,24,-1
EndSplineSet
EndChar
StartChar: guillemotright
Encoding: 187 187 170
Width: 1192
Flags: HW
Fore
628.75 1059 m 1,0,-1
 1050.85 641 l 1,1,-1
 1050.85 559 l 1,2,-1
 628.75 141 l 1,3,-1
 628.75 256 l 1,4,-1
 896.05 600 l 1,5,-1
 628.75 944 l 1,6,-1
 628.75 1059 l 1,0,-1
238.15 1059 m 1,7,-1
 660.25 641 l 1,8,-1
 660.25 559 l 1,9,-1
 238.15 141 l 1,10,-1
 238.15 256 l 1,11,-1
 504.55 600 l 1,12,-1
 238.15 944 l 1,13,-1
 238.15 1059 l 1,7,-1
EndSplineSet
EndChar
StartChar: questiondown
Encoding: 191 191 162
Width: 1045
Flags: HW
Fore
757.1 1389 m 0,0,1
 757.1 1333 757.1 1333 722.45 1294 c 128,-1,2
 687.8 1255 687.8 1255 637.4 1255 c 0,3,4
 587.9 1255 587.9 1255 552.8 1294 c 128,-1,5
 517.7 1333 517.7 1333 517.7 1389 c 0,6,7
 517.7 1444 517.7 1444 552.8 1483 c 128,-1,8
 587.9 1522 587.9 1522 637.4 1522 c 0,9,10
 688.7 1522 688.7 1522 722.9 1483.5 c 128,-1,11
 757.1 1445 757.1 1445 757.1 1389 c 0,0,1
956 66 m 1,12,13
 860.6 19 860.6 19 775.1 -4 c 128,-1,14
 689.6 -27 689.6 -27 613.1 -27 c 0,15,16
 414.2 -27 414.2 -27 298.1 80 c 128,-1,17
 182 187 182 187 182 369 c 0,18,19
 182 555 182 555 281.9 673 c 128,-1,20
 381.8 791 381.8 791 582.5 842 c 1,21,-1
 582.5 1096 l 1,22,-1
 693.2 1096 l 1,23,-1
 693.2 768 l 1,24,25
 533.9 725 533.9 725 452.9 624 c 128,-1,26
 371.9 523 371.9 523 371.9 367 c 0,27,28
 371.9 230 371.9 230 438.05 151 c 128,-1,29
 504.2 72 504.2 72 617.6 72 c 0,30,31
 719.3 72 719.3 72 785 137.5 c 128,-1,32
 850.7 203 850.7 203 869.6 326 c 1,33,-1
 956 326 l 1,34,-1
 956 66 l 1,12,13
EndSplineSet
EndChar
StartChar: Aring
Encoding: 197 197 99
Width: 1405
Flags: HW
Fore
872.65 1626 m 0,0,1
 872.65 1689 872.65 1689 832.6 1733.5 c 128,-1,2
 792.55 1778 792.55 1778 735.85 1778 c 0,3,4
 678.25 1778 678.25 1778 639.1 1734.5 c 128,-1,5
 599.95 1691 599.95 1691 599.95 1626 c 0,6,7
 599.95 1563 599.95 1563 639.1 1519 c 128,-1,8
 678.25 1475 678.25 1475 735.85 1475 c 0,9,10
 792.55 1475 792.55 1475 832.6 1519 c 128,-1,11
 872.65 1563 872.65 1563 872.65 1626 c 0,0,1
443.35 541 m 1,12,-1
 934.75 541 l 1,13,-1
 689.95 1251 l 1,14,-1
 443.35 541 l 1,12,-1
63.5498 0 m 1,15,-1
 63.5498 106 l 1,16,-1
 181.45 106 l 1,17,-1
 621.55 1384 l 1,18,19
 556.75 1421 556.75 1421 523 1482 c 128,-1,20
 489.25 1543 489.25 1543 489.25 1626 c 0,21,22
 489.25 1740 489.25 1740 561.25 1820.5 c 128,-1,23
 633.25 1901 633.25 1901 735.85 1901 c 0,24,25
 838.45 1901 838.45 1901 910.9 1820.5 c 128,-1,26
 983.35 1740 983.35 1740 983.35 1626 c 0,27,28
 983.35 1546 983.35 1546 948.25 1482.5 c 128,-1,29
 913.15 1419 913.15 1419 848.35 1384 c 1,30,-1
 1291.15 106 l 1,31,-1
 1423.45 106 l 1,32,-1
 1423.45 0 l 1,33,-1
 934.75 0 l 1,34,-1
 934.75 106 l 1,35,-1
 1084.15 106 l 1,36,-1
 971.65 434 l 1,37,-1
 406.45 434 l 1,38,-1
 293.95 106 l 1,39,-1
 441.55 106 l 1,40,-1
 441.55 0 l 1,41,-1
 63.5498 0 l 1,15,-1
EndSplineSet
Ligature: 0 0 'liga' A uni030A
EndChar
StartChar: AE
Encoding: 198 198 144
Width: 1940
Flags: HW
Fore
478.85 541 m 1,0,-1
 918.95 541 l 1,1,-1
 918.95 1386 l 1,2,-1
 828.95 1386 l 1,3,-1
 478.85 541 l 1,0,-1
747.95 0 m 1,4,-1
 747.95 106 l 1,5,-1
 918.95 106 l 1,6,-1
 918.95 434 l 1,7,-1
 434.75 434 l 1,8,-1
 297.95 106 l 1,9,-1
 445.55 106 l 1,10,-1
 445.55 0 l 1,11,-1
 63.9502 0 l 1,12,-1
 63.9502 106 l 1,13,-1
 181.85 106 l 1,14,-1
 712.85 1386 l 1,15,-1
 519.35 1386 l 1,16,-1
 519.35 1493 l 1,17,-1
 1829.75 1493 l 1,18,-1
 1829.75 1161 l 1,19,-1
 1719.05 1161 l 1,20,-1
 1719.05 1370 l 1,21,-1
 1099.85 1370 l 1,22,-1
 1099.85 870 l 1,23,-1
 1542.65 870 l 1,24,-1
 1542.65 1057 l 1,25,-1
 1653.35 1057 l 1,26,-1
 1653.35 561 l 1,27,-1
 1542.65 561 l 1,28,-1
 1542.65 748 l 1,29,-1
 1099.85 748 l 1,30,-1
 1099.85 123 l 1,31,-1
 1734.35 123 l 1,32,-1
 1734.35 332 l 1,33,-1
 1845.05 332 l 1,34,-1
 1845.05 0 l 1,35,-1
 747.95 0 l 1,4,-1
EndSplineSet
KernsSLIF: 45 38 0 0
EndChar
StartChar: Eth
Encoding: 208 208 232
Width: 1570
Flags: HW
Fore
544.95 106 m 1,0,-1
 714.15 106 l 2,1,2
 976.05 106 976.05 106 1116.45 272 c 128,-1,3
 1256.85 438 1256.85 438 1256.85 748 c 0,4,5
 1256.85 1058 1256.85 1058 1116.9 1222 c 128,-1,6
 976.95 1386 976.95 1386 714.15 1386 c 2,7,-1
 544.95 1386 l 1,8,-1
 544.95 844 l 1,9,-1
 847.35 844 l 1,10,-1
 847.35 719 l 1,11,-1
 544.95 719 l 1,12,-1
 544.95 106 l 1,0,-1
193.05 0 m 1,13,-1
 193.05 106 l 1,14,-1
 364.05 106 l 1,15,-1
 364.05 719 l 1,16,-1
 184.05 719 l 1,17,-1
 184.05 844 l 1,18,-1
 364.05 844 l 1,19,-1
 364.05 1386 l 1,20,-1
 193.05 1386 l 1,21,-1
 193.05 1493 l 1,22,-1
 727.65 1493 l 2,23,24
 1075.05 1493 1075.05 1493 1269 1296 c 128,-1,25
 1462.95 1099 1462.95 1099 1462.95 748 c 0,26,27
 1462.95 396 1462.95 396 1268.55 198 c 128,-1,28
 1074.15 0 1074.15 0 727.65 0 c 2,29,-1
 193.05 0 l 1,13,-1
EndSplineSet
KernsSLIF: 221 -36 0 0 193 -36 0 0 194 -36 0 0 376 -36 0 0 195 -36 0 0 192 -36 0 0 196 -36 0 0 89 -36 0 0 86 -36 0 0 65 -36 0 0 46 -73 0 0 45 75 0 0 44 -73 0 0
EndChar
StartChar: multiply
Encoding: 215 215 239
Width: 1630
Flags: HW
Fore
1376.45 1104 m 1,0,-1
 959.75 641 l 1,1,-1
 1376.45 180 l 1,2,-1
 1272.95 68 l 1,3,-1
 858.05 528 l 1,4,-1
 443.15 68 l 1,5,-1
 340.55 180 l 1,6,-1
 754.55 641 l 1,7,-1
 340.55 1104 l 1,8,-1
 443.15 1217 l 1,9,-1
 858.05 756 l 1,10,-1
 1272.95 1217 l 1,11,-1
 1376.45 1104 l 1,0,-1
EndSplineSet
EndChar
StartChar: Oslash
Encoding: 216 216 145
Width: 1594
Flags: HW
Fore
1176.35 1239 m 1,0,1
 1117.85 1327 1117.85 1327 1034.6 1370 c 128,-1,2
 951.35 1413 951.35 1413 839.75 1413 c 0,3,4
 618.35 1413 618.35 1413 505.85 1244.5 c 128,-1,5
 393.35 1076 393.35 1076 393.35 745 c 0,6,7
 393.35 626 393.35 626 407.75 529.5 c 128,-1,8
 422.15 433 422.15 433 452.75 352 c 1,9,-1
 1176.35 1239 l 1,0,1
500.45 256 m 1,10,11
 558.05 167 558.05 167 642.65 122.5 c 128,-1,12
 727.25 78 727.25 78 839.75 78 c 0,13,14
 1060.25 78 1060.25 78 1172.75 246.5 c 128,-1,15
 1285.25 415 1285.25 415 1285.25 745 c 0,16,17
 1285.25 862 1285.25 862 1270.4 960.5 c 128,-1,18
 1255.55 1059 1255.55 1059 1224.95 1141 c 1,19,-1
 500.45 256 l 1,10,11
1335.65 1276 m 1,20,21
 1413.95 1168 1413.95 1168 1453.1 1036.5 c 128,-1,22
 1492.25 905 1492.25 905 1492.25 745 c 0,23,24
 1492.25 400 1492.25 400 1311.8 185.5 c 128,-1,25
 1131.35 -29 1131.35 -29 839.75 -29 c 0,26,27
 712.85 -29 712.85 -29 605.75 14 c 128,-1,28
 498.65 57 498.65 57 407.75 143 c 1,29,-1
 243.95 -57 l 1,30,-1
 173.75 12 l 1,31,-1
 342.05 219 l 1,32,33
 263.75 324 263.75 324 225.5 454.5 c 128,-1,34
 187.25 585 187.25 585 187.25 745 c 0,35,36
 187.25 1091 187.25 1091 368.15 1305.5 c 128,-1,37
 549.05 1520 549.05 1520 839.75 1520 c 0,38,39
 966.65 1520 966.65 1520 1074.65 1477.5 c 128,-1,40
 1182.65 1435 1182.65 1435 1269.05 1352 c 1,41,-1
 1429.25 1550 l 1,42,-1
 1501.25 1479 l 1,43,-1
 1335.65 1276 l 1,20,21
EndSplineSet
KernsSLIF: 88 -36 0 0 86 -36 0 0 46 -120 0 0 45 75 0 0 44 -120 0 0
EndChar
StartChar: Thorn
Encoding: 222 222 236
Width: 1316
Flags: HW
Fore
526.3 434 m 1,0,-1
 763.9 434 l 2,1,2
 898 434 898 434 968.2 514.5 c 128,-1,3
 1038.4 595 1038.4 595 1038.4 748 c 0,4,5
 1038.4 900 1038.4 900 968.2 980.5 c 128,-1,6
 898 1061 898 1061 763.9 1061 c 2,7,-1
 526.3 1061 l 1,8,-1
 526.3 434 l 1,0,-1
172.6 0 m 1,9,-1
 172.6 106 l 1,10,-1
 343.6 106 l 1,11,-1
 343.6 1386 l 1,12,-1
 172.6 1386 l 1,13,-1
 172.6 1493 l 1,14,-1
 734.2 1493 l 1,15,-1
 734.2 1386 l 1,16,-1
 526.3 1386 l 1,17,-1
 526.3 1167 l 1,18,-1
 808 1167 l 2,19,20
 1009.6 1167 1009.6 1167 1127.5 1053.5 c 128,-1,21
 1245.4 940 1245.4 940 1245.4 748 c 0,22,23
 1245.4 554 1245.4 554 1127.05 440 c 128,-1,24
 1008.7 326 1008.7 326 808 326 c 2,25,-1
 526.3 326 l 1,26,-1
 526.3 106 l 1,27,-1
 734.2 106 l 1,28,-1
 734.2 0 l 1,29,-1
 172.6 0 l 1,9,-1
EndSplineSet
KernsSLIF: 46 -339 0 0 45 38 0 0 44 -339 0 0
EndChar
StartChar: germandbls
Encoding: 223 223 137
Width: 1298
Flags: HW
Fore
912.85 1210 m 1,0,1
 905.65 1329 905.65 1329 843.1 1393.5 c 128,-1,2
 780.55 1458 780.55 1458 673.45 1458 c 0,3,4
 554.65 1458 554.65 1458 499.75 1393.5 c 128,-1,5
 444.85 1329 444.85 1329 444.85 1190 c 2,6,-1
 444.85 0 l 1,7,-1
 119.95 0 l 1,8,-1
 119.95 106 l 1,9,-1
 279.25 106 l 1,10,-1
 279.25 1186 l 2,11,12
 279.25 1362 279.25 1362 382.3 1459 c 128,-1,13
 485.35 1556 485.35 1556 673.45 1556 c 0,14,15
 865.15 1556 865.15 1556 965.5 1452 c 128,-1,16
 1065.85 1348 1065.85 1348 1076.65 1137 c 1,17,-1
 1056.85 1137 l 2,18,19
 926.35 1137 926.35 1137 851.2 1083 c 128,-1,20
 776.05 1029 776.05 1029 776.05 936 c 0,21,22
 776.05 884 776.05 884 800.35 845.5 c 128,-1,23
 824.65 807 824.65 807 890.35 760 c 1,24,-1
 970.45 705 l 1,25,26
 1109.95 606 1109.95 606 1163.5 521 c 128,-1,27
 1217.05 436 1217.05 436 1217.05 322 c 0,28,29
 1217.05 167 1217.05 167 1113.1 69 c 128,-1,30
 1009.15 -29 1009.15 -29 842.65 -29 c 0,31,32
 766.15 -29 766.15 -29 690.55 -10.5 c 128,-1,33
 614.95 8 614.95 8 543.85 43 c 1,34,-1
 543.85 276 l 1,35,-1
 641.95 276 l 1,36,37
 645.55 175 645.55 175 695.5 122.5 c 128,-1,38
 745.45 70 745.45 70 837.25 70 c 0,39,40
 937.15 70 937.15 70 994.3 130.5 c 128,-1,41
 1051.45 191 1051.45 191 1051.45 295 c 0,42,43
 1051.45 379 1051.45 379 1015.45 437.5 c 128,-1,44
 979.45 496 979.45 496 874.15 569 c 2,45,-1
 796.75 623 l 2,46,47
 703.15 688 703.15 688 663.1 752.5 c 128,-1,48
 623.05 817 623.05 817 623.05 899 c 0,49,50
 623.05 1021 623.05 1021 699.1 1103 c 128,-1,51
 775.15 1185 775.15 1185 912.85 1210 c 1,0,1
EndSplineSet
EndChar
StartChar: ae
Encoding: 230 230 160
Width: 1828
Flags: HW
Fore
829.7 334 m 2,0,-1
 829.7 559 l 1,1,-1
 616.4 559 l 2,2,3
 493.1 559 493.1 559 432.8 500 c 128,-1,4
 372.5 441 372.5 441 372.5 319 c 0,5,6
 372.5 208 372.5 208 433.7 143 c 128,-1,7
 494.9 78 494.9 78 599.3 78 c 0,8,9
 702.8 78 702.8 78 766.25 149 c 128,-1,10
 829.7 220 829.7 220 829.7 334 c 2,0,-1
927.8 150 m 1,11,12
 853.1 59 853.1 59 762.2 15 c 128,-1,13
 671.3 -29 671.3 -29 558.8 -29 c 0,14,15
 381.5 -29 381.5 -29 284.75 62 c 128,-1,16
 188 153 188 153 188 319 c 0,17,18
 188 484 188 484 295.55 575 c 128,-1,19
 403.1 666 403.1 666 597.5 666 c 2,20,-1
 829.7 666 l 1,21,-1
 829.7 739 l 2,22,23
 829.7 859 829.7 859 764.9 926 c 128,-1,24
 700.1 993 700.1 993 584.9 993 c 0,25,26
 480.5 993 480.5 993 421.1 943.5 c 128,-1,27
 361.7 894 361.7 894 347.3 795 c 1,28,-1
 261.8 795 l 1,29,-1
 261.8 1010 l 1,30,31
 348.2 1051 348.2 1051 429.65 1071.5 c 128,-1,32
 511.1 1092 511.1 1092 588.5 1092 c 0,33,34
 715.4 1092 715.4 1092 802.25 1048.5 c 128,-1,35
 889.1 1005 889.1 1005 938.6 915 c 1,36,37
 1005.2 1003 1005.2 1003 1091.6 1047.5 c 128,-1,38
 1178 1092 1178 1092 1283.3 1092 c 0,39,40
 1500.2 1092 1500.2 1092 1616.3 943 c 128,-1,41
 1732.4 794 1732.4 794 1736 512 c 1,42,-1
 1023.2 512 l 1,43,-1
 1023.2 504 l 2,44,45
 1023.2 289 1023.2 289 1095.65 179.5 c 128,-1,46
 1168.1 70 1168.1 70 1311.2 70 c 0,47,48
 1420.1 70 1420.1 70 1489.85 133.5 c 128,-1,49
 1559.6 197 1559.6 197 1587.5 322 c 1,50,-1
 1719.8 322 l 1,51,52
 1681.1 147 1681.1 147 1574 59 c 128,-1,53
 1466.9 -29 1466.9 -29 1294.1 -29 c 0,54,55
 1184.3 -29 1184.3 -29 1091.15 16.5 c 128,-1,56
 998 62 998 62 927.8 150 c 1,11,12
1541.6 618 m 1,57,58
 1536.2 804 1536.2 804 1470.95 898.5 c 128,-1,59
 1405.7 993 1405.7 993 1283.3 993 c 0,60,61
 1169 993 1169 993 1102.85 898 c 128,-1,62
 1036.7 803 1036.7 803 1023.2 618 c 1,63,-1
 1541.6 618 l 1,57,58
EndSplineSet
EndChar
StartChar: eth
Encoding: 240 240 233
Width: 1171
Flags: HW
Fore
800.5 928 m 1,0,1
 760 937 760 937 723.55 941.5 c 128,-1,2
 687.1 946 687.1 946 651.1 946 c 0,3,4
 495.4 946 495.4 946 421.15 839 c 128,-1,5
 346.9 732 346.9 732 346.9 508 c 0,6,7
 346.9 298 346.9 298 417.55 184 c 128,-1,8
 488.2 70 488.2 70 616 70 c 0,9,10
 745.6 70 745.6 70 815.35 184.5 c 128,-1,11
 885.1 299 885.1 299 885.1 512 c 0,12,13
 885.1 624 885.1 624 863.95 729.5 c 128,-1,14
 842.8 835 842.8 835 800.5 928 c 1,0,1
745.6 1307 m 1,15,16
 910.3 1140 910.3 1140 994.45 944.5 c 128,-1,17
 1078.6 749 1078.6 749 1078.6 532 c 0,18,19
 1078.6 278 1078.6 278 952.15 124.5 c 128,-1,20
 825.7 -29 825.7 -29 616 -29 c 0,21,22
 409.9 -29 409.9 -29 281.65 122.5 c 128,-1,23
 153.4 274 153.4 274 153.4 518 c 0,24,25
 153.4 754 153.4 754 280.3 899 c 128,-1,26
 407.2 1044 407.2 1044 612.4 1044 c 0,27,28
 643.9 1044 643.9 1044 677.65 1041 c 128,-1,29
 711.4 1038 711.4 1038 758.2 1030 c 1,30,31
 738.4 1083 738.4 1083 705.55 1136.5 c 128,-1,32
 672.7 1190 672.7 1190 627.7 1245 c 1,33,-1
 337.9 1096 l 1,34,-1
 304.6 1174 l 1,35,-1
 568.3 1309 l 1,36,37
 513.4 1367 513.4 1367 442.75 1407.5 c 128,-1,38
 372.1 1448 372.1 1448 286.6 1470 c 1,39,-1
 302.8 1556 l 1,40,41
 409.9 1530 409.9 1530 503.95 1483 c 128,-1,42
 598 1436 598 1436 680.8 1368 c 1,43,-1
 970.6 1518 l 1,44,-1
 1003.9 1440 l 1,45,-1
 745.6 1307 l 1,15,16
EndSplineSet
KernsSLIF: 46 -36 0 0
EndChar
StartChar: divide
Encoding: 247 247 184
Width: 1630
Flags: HW
Fore
738.3 1012 m 0,0,1
 738.3 1068 738.3 1068 772.95 1106.5 c 128,-1,2
 807.6 1145 807.6 1145 858 1145 c 0,3,4
 907.5 1145 907.5 1145 942.6 1106 c 128,-1,5
 977.7 1067 977.7 1067 977.7 1012 c 0,6,7
 977.7 956 977.7 956 942.6 917.5 c 128,-1,8
 907.5 879 907.5 879 858 879 c 0,9,10
 806.7 879 806.7 879 772.5 917 c 128,-1,11
 738.3 955 738.3 955 738.3 1012 c 0,0,1
738.3 272 m 0,12,13
 738.3 328 738.3 328 772.95 367 c 128,-1,14
 807.6 406 807.6 406 858 406 c 0,15,16
 907.5 406 907.5 406 942.6 367 c 128,-1,17
 977.7 328 977.7 328 977.7 272 c 0,18,19
 977.7 217 977.7 217 942.6 178 c 128,-1,20
 907.5 139 907.5 139 858 139 c 0,21,22
 806.7 139 806.7 139 772.5 177.5 c 128,-1,23
 738.3 216 738.3 216 738.3 272 c 0,12,13
281.1 723 m 1,24,-1
 1434.9 723 l 1,25,-1
 1434.9 561 l 1,26,-1
 281.1 561 l 1,27,-1
 281.1 723 l 1,24,-1
EndSplineSet
EndChar
StartChar: oslash
Encoding: 248 248 161
Width: 1170
Flags: HW
Fore
817.25 879 m 1,0,1
 783.05 936 783.05 936 732.65 964.5 c 128,-1,2
 682.25 993 682.25 993 615.65 993 c 0,3,4
 483.35 993 483.35 993 414.95 876 c 128,-1,5
 346.55 759 346.55 759 346.55 532 c 0,6,7
 346.55 460 346.55 460 353.3 401 c 128,-1,8
 360.05 342 360.05 342 372.65 293 c 1,9,-1
 817.25 879 l 1,0,1
413.15 190 m 1,10,11
 449.15 129 449.15 129 499.1 99.5 c 128,-1,12
 549.05 70 549.05 70 615.65 70 c 0,13,14
 747.95 70 747.95 70 816.35 187.5 c 128,-1,15
 884.75 305 884.75 305 884.75 532 c 0,16,17
 884.75 608 884.75 608 878 668.5 c 128,-1,18
 871.25 729 871.25 729 857.75 780 c 1,19,-1
 413.15 190 l 1,10,11
964.85 922 m 1,20,21
 1020.65 848 1020.65 848 1049.45 749 c 128,-1,22
 1078.25 650 1078.25 650 1078.25 532 c 0,23,24
 1078.25 278 1078.25 278 951.8 124.5 c 128,-1,25
 825.35 -29 825.35 -29 615.65 -29 c 0,26,27
 531.05 -29 531.05 -29 459.05 -2.5 c 128,-1,28
 387.05 24 387.05 24 326.75 78 c 1,29,-1
 198.05 -94 l 1,30,-1
 129.65 -31 l 1,31,-1
 263.75 147 l 1,32,33
 208.85 224 208.85 224 180.95 320.5 c 128,-1,34
 153.05 417 153.05 417 153.05 532 c 0,35,36
 153.05 786 153.05 786 279.5 939 c 128,-1,37
 405.95 1092 405.95 1092 615.65 1092 c 0,38,39
 700.25 1092 700.25 1092 772.25 1066.5 c 128,-1,40
 844.25 1041 844.25 1041 901.85 991 c 1,41,-1
 1026.95 1157 l 1,42,-1
 1095.35 1094 l 1,43,-1
 964.85 922 l 1,20,21
EndSplineSet
KernsSLIF: 46 -36 0 0
EndChar
StartChar: thorn
Encoding: 254 254 237
Width: 1243
Flags: HW
Fore
441.35 584 m 2,0,-1
 441.35 479 l 2,1,2
 441.35 287 441.35 287 507.5 186.5 c 128,-1,3
 573.65 86 573.65 86 699.65 86 c 0,4,5
 826.55 86 826.55 86 891.8 199 c 128,-1,6
 957.05 312 957.05 312 957.05 532 c 0,7,8
 957.05 753 957.05 753 891.8 865 c 128,-1,9
 826.55 977 826.55 977 699.65 977 c 0,10,11
 573.65 977 573.65 977 507.5 876 c 128,-1,12
 441.35 775 441.35 775 441.35 584 c 2,0,-1
275.75 1450 m 1,13,-1
 116.45 1450 l 1,14,-1
 116.45 1556 l 1,15,-1
 441.35 1556 l 1,16,-1
 441.35 897 l 1,17,18
 489.95 997 489.95 997 565.1 1044.5 c 128,-1,19
 640.25 1092 640.25 1092 750.95 1092 c 0,20,21
 927.35 1092 927.35 1092 1038.95 937 c 128,-1,22
 1150.55 782 1150.55 782 1150.55 532 c 0,23,24
 1150.55 282 1150.55 282 1038.95 126.5 c 128,-1,25
 927.35 -29 927.35 -29 750.95 -29 c 0,26,27
 640.25 -29 640.25 -29 565.1 18.5 c 128,-1,28
 489.95 66 489.95 66 441.35 166 c 1,29,-1
 441.35 -319 l 1,30,-1
 597.95 -319 l 1,31,-1
 597.95 -426 l 1,32,-1
 116.45 -426 l 1,33,-1
 116.45 -319 l 1,34,-1
 275.75 -319 l 1,35,-1
 275.75 1450 l 1,13,-1
EndSplineSet
KernsSLIF: 46 -102 0 0 44 -36 0 0
EndChar
StartChar: Dcroat
Encoding: 272 272 257
Width: 1570
Flags: HW
Fore
544.95 106 m 1,0,-1
 714.15 106 l 2,1,2
 976.05 106 976.05 106 1116.45 272 c 128,-1,3
 1256.85 438 1256.85 438 1256.85 748 c 0,4,5
 1256.85 1058 1256.85 1058 1116.9 1222 c 128,-1,6
 976.95 1386 976.95 1386 714.15 1386 c 2,7,-1
 544.95 1386 l 1,8,-1
 544.95 844 l 1,9,-1
 847.35 844 l 1,10,-1
 847.35 719 l 1,11,-1
 544.95 719 l 1,12,-1
 544.95 106 l 1,0,-1
193.05 0 m 1,13,-1
 193.05 106 l 1,14,-1
 364.05 106 l 1,15,-1
 364.05 719 l 1,16,-1
 184.05 719 l 1,17,-1
 184.05 844 l 1,18,-1
 364.05 844 l 1,19,-1
 364.05 1386 l 1,20,-1
 193.05 1386 l 1,21,-1
 193.05 1493 l 1,22,-1
 727.65 1493 l 2,23,24
 1075.05 1493 1075.05 1493 1269 1296 c 128,-1,25
 1462.95 1099 1462.95 1099 1462.95 748 c 0,26,27
 1462.95 396 1462.95 396 1268.55 198 c 128,-1,28
 1074.15 0 1074.15 0 727.65 0 c 2,29,-1
 193.05 0 l 1,13,-1
EndSplineSet
EndChar
StartChar: dcroat
Encoding: 273 273 255
Width: 1247
Flags: HW
Fore
1035.15 106 m 1,0,-1
 1193.55 106 l 1,1,-1
 1193.55 0 l 1,2,-1
 869.55 0 l 1,3,-1
 869.55 166 l 1,4,5
 820.95 66 820.95 66 745.8 18.5 c 128,-1,6
 670.65 -29 670.65 -29 559.95 -29 c 0,7,8
 383.55 -29 383.55 -29 271.5 126.5 c 128,-1,9
 159.45 282 159.45 282 159.45 532 c 0,10,11
 159.45 782 159.45 782 271.05 937 c 128,-1,12
 382.65 1092 382.65 1092 559.95 1092 c 0,13,14
 670.65 1092 670.65 1092 745.8 1044.5 c 128,-1,15
 820.95 997 820.95 997 869.55 897 c 1,16,-1
 869.55 1227 l 1,17,-1
 576.15 1227 l 1,18,-1
 576.15 1333 l 1,19,-1
 869.55 1333 l 1,20,-1
 869.55 1450 l 1,21,-1
 712.95 1450 l 1,22,-1
 712.95 1556 l 1,23,-1
 1035.15 1556 l 1,24,-1
 1035.15 1333 l 1,25,-1
 1193.55 1333 l 1,26,-1
 1193.55 1227 l 1,27,-1
 1035.15 1227 l 1,28,-1
 1035.15 106 l 1,0,-1
869.55 479 m 2,29,-1
 869.55 584 l 2,30,31
 869.55 775 869.55 775 803.4 876 c 128,-1,32
 737.25 977 737.25 977 611.25 977 c 0,33,34
 483.45 977 483.45 977 418.2 865 c 128,-1,35
 352.95 753 352.95 753 352.95 532 c 0,36,37
 352.95 312 352.95 312 418.2 199 c 128,-1,38
 483.45 86 483.45 86 611.25 86 c 0,39,40
 737.25 86 737.25 86 803.4 186.5 c 128,-1,41
 869.55 287 869.55 287 869.55 479 c 2,29,-1
EndSplineSet
EndChar
StartChar: dotlessi
Encoding: 305 305 214
Width: 623
Flags: HW
Fore
424.7 106 m 1,0,-1
 581.3 106 l 1,1,-1
 581.3 0 l 1,2,-1
 100.7 0 l 1,3,-1
 100.7 106 l 1,4,-1
 259.1 106 l 1,5,-1
 259.1 956 l 1,6,-1
 100.7 956 l 1,7,-1
 100.7 1063 l 1,8,-1
 424.7 1063 l 1,9,-1
 424.7 106 l 1,0,-1
EndSplineSet
EndChar
StartChar: Lslash
Encoding: 321 321 225
Width: 1303
Flags: HW
Fore
181.05 0 m 1,0,-1
 181.05 106 l 1,1,-1
 352.05 106 l 1,2,-1
 352.05 586 l 1,3,-1
 210.75 473 l 1,4,-1
 147.75 565 l 1,5,-1
 352.05 727 l 1,6,-1
 352.05 1386 l 1,7,-1
 181.05 1386 l 1,8,-1
 181.05 1493 l 1,9,-1
 704.85 1493 l 1,10,-1
 704.85 1386 l 1,11,-1
 532.95 1386 l 1,12,-1
 532.95 870 l 1,13,-1
 809.25 1096 l 1,14,-1
 872.25 1004 l 1,15,-1
 532.95 729 l 1,16,-1
 532.95 123 l 1,17,-1
 1148.55 123 l 1,18,-1
 1148.55 373 l 1,19,-1
 1259.25 373 l 1,20,-1
 1259.25 0 l 1,21,-1
 181.05 0 l 1,0,-1
EndSplineSet
KernsSLIF: 366 -36 0 0 356 -167 0 0 253 -36 0 0 221 -206 0 0 217 -36 0 0 219 -36 0 0 218 -36 0 0 376 -206 0 0 255 -36 0 0 8217 -491 0 0 8221 -491 0 0 220 -36 0 0 121 -36 0 0 89 -206 0 0 87 -178 0 0 86 -243 0 0 85 -36 0 0 84 -167 0 0
EndChar
StartChar: lslash
Encoding: 322 322 226
Width: 631
Flags: HW
Fore
419.2 106 m 1,0,-1
 577.6 106 l 1,1,-1
 577.6 0 l 1,2,-1
 97 0 l 1,3,-1
 97 106 l 1,4,-1
 253.6 106 l 1,5,-1
 253.6 680 l 1,6,-1
 129.4 584 l 1,7,-1
 74.5 670 l 1,8,-1
 253.6 811 l 1,9,-1
 253.6 1450 l 1,10,-1
 97 1450 l 1,11,-1
 97 1556 l 1,12,-1
 419.2 1556 l 1,13,-1
 419.2 940 l 1,14,-1
 551.5 1038 l 1,15,-1
 605.5 952 l 1,16,-1
 419.2 811 l 1,17,-1
 419.2 106 l 1,0,-1
EndSplineSet
EndChar
StartChar: OE
Encoding: 338 338 176
Width: 2210
Flags: HW
Fore
1137.5 106 m 1,0,-1
 1137.5 1386 l 1,1,-1
 969.2 1386 l 2,2,3
 706.4 1386 706.4 1386 566.9 1222 c 128,-1,4
 427.4 1058 427.4 1058 427.4 750 c 0,5,6
 427.4 439 427.4 439 567.35 272.5 c 128,-1,7
 707.3 106 707.3 106 969.2 106 c 2,8,-1
 1137.5 106 l 1,0,-1
2062.7 0 m 1,9,-1
 956.6 0 l 2,10,11
 610.1 0 610.1 0 415.7 198 c 128,-1,12
 221.3 396 221.3 396 221.3 750 c 0,13,14
 221.3 1101 221.3 1101 415.25 1297 c 128,-1,15
 609.2 1493 609.2 1493 956.6 1493 c 2,16,-1
 2047.4 1493 l 1,17,-1
 2047.4 1161 l 1,18,-1
 1936.7 1161 l 1,19,-1
 1936.7 1370 l 1,20,-1
 1319.3 1370 l 1,21,-1
 1319.3 870 l 1,22,-1
 1762.1 870 l 1,23,-1
 1762.1 1057 l 1,24,-1
 1871 1057 l 1,25,-1
 1871 561 l 1,26,-1
 1762.1 561 l 1,27,-1
 1762.1 748 l 1,28,-1
 1319.3 748 l 1,29,-1
 1319.3 123 l 1,30,-1
 1952 123 l 1,31,-1
 1952 332 l 1,32,-1
 2062.7 332 l 1,33,-1
 2062.7 0 l 1,9,-1
EndSplineSet
KernsSLIF: 45 38 0 0
EndChar
StartChar: oe
Encoding: 339 339 177
Width: 1923
Flags: HW
Fore
655.65 70 m 0,0,1
 788.85 70 788.85 70 856.8 187 c 128,-1,2
 924.75 304 924.75 304 924.75 532 c 0,3,4
 924.75 760 924.75 760 856.8 876.5 c 128,-1,5
 788.85 993 788.85 993 655.65 993 c 0,6,7
 522.45 993 522.45 993 454.5 876.5 c 128,-1,8
 386.55 760 386.55 760 386.55 532 c 0,9,10
 386.55 304 386.55 304 454.95 187 c 128,-1,11
 523.35 70 523.35 70 655.65 70 c 0,0,1
1831.95 512 m 1,12,-1
 1118.25 512 l 1,13,-1
 1118.25 504 l 2,14,15
 1118.25 289 1118.25 289 1191.15 179.5 c 128,-1,16
 1264.05 70 1264.05 70 1406.25 70 c 0,17,18
 1515.15 70 1515.15 70 1584.9 133.5 c 128,-1,19
 1654.65 197 1654.65 197 1682.55 322 c 1,20,-1
 1815.75 322 l 1,21,22
 1776.15 147 1776.15 147 1669.5 59 c 128,-1,23
 1562.85 -29 1562.85 -29 1390.05 -29 c 0,24,25
 1273.05 -29 1273.05 -29 1179.9 20 c 128,-1,26
 1086.75 69 1086.75 69 1021.05 166 c 1,27,28
 958.95 70 958.95 70 865.8 20.5 c 128,-1,29
 772.65 -29 772.65 -29 655.65 -29 c 0,30,31
 446.85 -29 446.85 -29 319.95 124.5 c 128,-1,32
 193.05 278 193.05 278 193.05 532 c 0,33,34
 193.05 786 193.05 786 319.5 939 c 128,-1,35
 445.95 1092 445.95 1092 655.65 1092 c 0,36,37
 774.45 1092 774.45 1092 867.15 1042.5 c 128,-1,38
 959.85 993 959.85 993 1022.85 897 c 1,39,40
 1088.55 993 1088.55 993 1178.55 1042.5 c 128,-1,41
 1268.55 1092 1268.55 1092 1378.35 1092 c 0,42,43
 1596.15 1092 1596.15 1092 1711.8 943.5 c 128,-1,44
 1827.45 795 1827.45 795 1831.95 512 c 1,12,-1
1636.65 618 m 1,45,46
 1631.25 804 1631.25 804 1566 898.5 c 128,-1,47
 1500.75 993 1500.75 993 1378.35 993 c 0,48,49
 1264.05 993 1264.05 993 1198.35 898 c 128,-1,50
 1132.65 803 1132.65 803 1118.25 618 c 1,51,-1
 1636.65 618 l 1,45,46
EndSplineSet
EndChar
StartChar: florin
Encoding: 402 402 166
Width: 1236
Flags: HW
Fore
618.4 1135 m 1,0,1
 639.1 1321 639.1 1321 729.55 1420.5 c 128,-1,2
 820 1520 820 1520 969.4 1520 c 0,3,4
 1015.3 1520 1015.3 1520 1068.4 1508.5 c 128,-1,5
 1121.5 1497 1121.5 1497 1184.5 1475 c 1,6,-1
 1184.5 1253 l 1,7,-1
 1096.3 1253 l 1,8,9
 1090.9 1339 1090.9 1339 1057.15 1380 c 128,-1,10
 1023.4 1421 1023.4 1421 957.7 1421 c 0,11,12
 885.7 1421 885.7 1421 846.55 1351.5 c 128,-1,13
 807.4 1282 807.4 1282 788.5 1112 c 1,14,-1
 757 821 l 1,15,-1
 1031.5 821 l 1,16,-1
 1031.5 715 l 1,17,-1
 744.4 715 l 1,18,-1
 661.6 -47 l 1,19,20
 640.9 -233 640.9 -233 549.55 -332.5 c 128,-1,21
 458.2 -432 458.2 -432 308.8 -432 c 0,22,23
 263.8 -432 263.8 -432 211.6 -421 c 128,-1,24
 159.4 -410 159.4 -410 95.5 -387 c 1,25,-1
 95.5 -166 l 1,26,-1
 183.7 -166 l 1,27,28
 189.1 -252 189.1 -252 222.4 -293 c 128,-1,29
 255.7 -334 255.7 -334 320.5 -334 c 0,30,31
 392.5 -334 392.5 -334 431.65 -264 c 128,-1,32
 470.8 -194 470.8 -194 489.7 -25 c 2,33,-1
 572.5 715 l 1,34,-1
 345.7 715 l 1,35,-1
 345.7 821 l 1,36,-1
 584.2 821 l 1,37,-1
 618.4 1135 l 1,0,1
EndSplineSet
EndChar
StartChar: uni0237
Encoding: 567 567 173
Width: 583
Flags: HW
HStem: -455 99<64.05 94.65> 956 107<80.25 236.85>
VStem: 236.85 165.6<-104 956>
Fore
236.85 956 m 1,0,-1
 80.25 956 l 1,1,-1
 80.25 1063 l 1,2,-1
 402.45 1063 l 1,3,-1
 402.45 -104 l 2,4,5
 402.45 -268 402.45 -268 314.7 -361.5 c 128,-1,6
 226.95 -455 226.95 -455 73.0498 -455 c 0,7,8
 8.25 -455 8.25 -455 -50.7002 -438.5 c 128,-1,9
 -109.65 -422 -109.65 -422 -165.45 -389 c 1,10,-1
 -165.45 -170 l 1,11,-1
 -79.9502 -170 l 1,12,13
 -73.6504 -266 -73.6504 -266 -35.4004 -311 c 128,-1,14
 2.84961 -356 2.84961 -356 76.6504 -356 c 0,15,16
 158.55 -356 158.55 -356 197.7 -294.5 c 128,-1,17
 236.85 -233 236.85 -233 236.85 -104 c 2,18,-1
 236.85 956 l 1,0,-1
EndSplineSet
EndChar
StartChar: uni02BB
Encoding: 699 699 173
Width: 623
Flags: HW
Fore
532 1440 m 1,0,1
 462.7 1376 462.7 1376 431.65 1291 c 128,-1,2
 400.6 1206 400.6 1206 400.6 1077 c 2,3,-1
 400.6 1014 l 1,4,-1
 226 1014 l 1,5,6
 226.9 1188 226.9 1188 283.15 1308.5 c 128,-1,7
 339.4 1429 339.4 1429 461.8 1520 c 1,8,-1
 532 1440 l 1,0,1
EndSplineSet
KernsSLIF: 193 -264 0 0 194 -264 0 0 195 -264 0 0 192 -264 0 0 198 -225 0 0 196 -264 0 0 74 47 0 0 65 -264 0 0
EndChar
StartChar: circumflex
Encoding: 710 710 215
Width: 972
Flags: HW
Fore
436.4 1638 m 1,0,-1
 587.6 1638 l 1,1,-1
 799.1 1262 l 1,2,-1
 694.7 1262 l 1,3,-1
 512 1522 l 1,4,-1
 329.3 1262 l 1,5,-1
 224.9 1262 l 1,6,-1
 436.4 1638 l 1,0,-1
EndSplineSet
EndChar
StartChar: caron
Encoding: 711 711 224
Width: 972
Flags: HW
Fore
436.4 1262 m 1,0,-1
 224.9 1638 l 1,1,-1
 329.3 1638 l 1,2,-1
 512 1378 l 1,3,-1
 694.7 1638 l 1,4,-1
 799.1 1638 l 1,5,-1
 587.6 1262 l 1,6,-1
 436.4 1262 l 1,0,-1
EndSplineSet
EndChar
StartChar: breve
Encoding: 728 728 218
Width: 972
Flags: HW
Fore
230.3 1608 m 1,0,-1
 316.7 1608 l 1,1,2
 328.4 1529 328.4 1529 375.2 1493.5 c 128,-1,3
 422 1458 422 1458 512 1458 c 0,4,5
 602 1458 602 1458 648.8 1493.5 c 128,-1,6
 695.6 1529 695.6 1529 707.3 1608 c 1,7,-1
 793.7 1608 l 1,8,9
 784.7 1465 784.7 1465 713.6 1393 c 128,-1,10
 642.5 1321 642.5 1321 512 1321 c 0,11,12
 381.5 1321 381.5 1321 310.4 1393 c 128,-1,13
 239.3 1465 239.3 1465 230.3 1608 c 1,0,-1
EndSplineSet
Ligature: 0 1 'liga' space uni0306
EndChar
StartChar: dotaccent
Encoding: 729 729 219
Width: 972
Flags: HW
Fore
512 1569 m 0,0,1
 555.2 1569 555.2 1569 586.25 1534.5 c 128,-1,2
 617.3 1500 617.3 1500 617.3 1452 c 0,3,4
 617.3 1401 617.3 1401 587.6 1368 c 128,-1,5
 557.9 1335 557.9 1335 512 1335 c 0,6,7
 466.1 1335 466.1 1335 436.4 1368 c 128,-1,8
 406.7 1401 406.7 1401 406.7 1452 c 0,9,10
 406.7 1500 406.7 1500 437.75 1534.5 c 128,-1,11
 468.8 1569 468.8 1569 512 1569 c 0,0,1
EndSplineSet
Ligature: 0 1 'liga' space uni0307
EndChar
StartChar: ring
Encoding: 730 730 220
Width: 972
Flags: HW
Fore
758.6 1524 m 0,0,1
 758.6 1409 758.6 1409 687.05 1329 c 128,-1,2
 615.5 1249 615.5 1249 512 1249 c 0,3,4
 408.5 1249 408.5 1249 336.95 1329 c 128,-1,5
 265.4 1409 265.4 1409 265.4 1524 c 0,6,7
 265.4 1639 265.4 1639 336.95 1718.5 c 128,-1,8
 408.5 1798 408.5 1798 512 1798 c 0,9,10
 615.5 1798 615.5 1798 687.05 1718.5 c 128,-1,11
 758.6 1639 758.6 1639 758.6 1524 c 0,0,1
648.8 1524 m 0,12,13
 648.8 1587 648.8 1587 609.2 1631 c 128,-1,14
 569.6 1675 569.6 1675 512 1675 c 0,15,16
 453.5 1675 453.5 1675 414.35 1631.5 c 128,-1,17
 375.2 1588 375.2 1588 375.2 1524 c 0,18,19
 375.2 1459 375.2 1459 414.35 1415.5 c 128,-1,20
 453.5 1372 453.5 1372 512 1372 c 0,21,22
 569.6 1372 569.6 1372 609.2 1416 c 128,-1,23
 648.8 1460 648.8 1460 648.8 1524 c 0,12,13
EndSplineSet
LCarets: 0 65535 '    ' 1 0 
Ligature: 0 1 'liga' space uni030A
EndChar
StartChar: ogonek
Encoding: 731 731 223
Width: 973
Flags: HW
Fore
466.75 0 m 1,0,-1
 551.35 0 l 1,1,-1
 550.45 -2 l 2,2,3
 472.15 -125 472.15 -125 472.15 -172 c 0,4,5
 472.15 -218 472.15 -218 502.3 -246 c 128,-1,6
 532.45 -274 532.45 -274 582.85 -274 c 0,7,8
 607.15 -274 607.15 -274 633.25 -267.5 c 128,-1,9
 659.35 -261 659.35 -261 686.35 -248 c 1,10,-1
 685.45 -375 l 1,11,12
 653.05 -384 653.05 -384 622.9 -388.5 c 128,-1,13
 592.75 -393 592.75 -393 563.95 -393 c 0,14,15
 462.25 -393 462.25 -393 406.45 -348.5 c 128,-1,16
 350.65 -304 350.65 -304 350.65 -223 c 0,17,18
 350.65 -174 350.65 -174 377.65 -121.5 c 128,-1,19
 404.65 -69 404.65 -69 466.75 0 c 1,0,-1
EndSplineSet
Ligature: 0 1 'liga' space uni0328
EndChar
StartChar: tilde
Encoding: 732 732 216
Width: 972
Flags: HW
Fore
508.4 1370 m 1,0,-1
 457.1 1425 l 2,1,2
 433.7 1449 433.7 1449 418.85 1456.5 c 128,-1,3
 404 1464 404 1464 386.9 1464 c 0,4,5
 349.1 1464 349.1 1464 327.5 1424.5 c 128,-1,6
 305.9 1385 305.9 1385 301.4 1309 c 1,7,-1
 215 1309 l 1,8,9
 216.8 1444 216.8 1444 262.7 1517.5 c 128,-1,10
 308.6 1591 308.6 1591 390.5 1591 c 0,11,12
 424.7 1591 424.7 1591 453.5 1577 c 128,-1,13
 482.3 1563 482.3 1563 515.6 1530 c 1,14,-1
 566.9 1475 l 2,15,16
 587.6 1452 587.6 1452 602.9 1444 c 128,-1,17
 618.2 1436 618.2 1436 637.1 1436 c 0,18,19
 675.8 1436 675.8 1436 697.4 1476 c 128,-1,20
 719 1516 719 1516 722.6 1591 c 1,21,-1
 809 1591 l 1,22,23
 807.2 1456 807.2 1456 761.3 1382.5 c 128,-1,24
 715.4 1309 715.4 1309 633.5 1309 c 0,25,26
 599.3 1309 599.3 1309 570.5 1323 c 128,-1,27
 541.7 1337 541.7 1337 508.4 1370 c 1,0,-1
EndSplineSet
Ligature: 0 1 'liga' space tildecomb
EndChar
StartChar: hungarumlaut
Encoding: 733 733 222
Width: 980
Flags: HW
Fore
448 1638 m 1,0,-1
 601 1638 l 1,1,-1
 381.4 1262 l 1,2,-1
 278.8 1262 l 1,3,-1
 448 1638 l 1,0,-1
745 1638 m 1,4,-1
 905.2 1638 l 1,5,-1
 646.9 1262 l 1,6,-1
 542.5 1262 l 1,7,-1
 745 1638 l 1,4,-1
EndSplineSet
Ligature: 0 1 'liga' space uni030B
EndChar
StartChar: uni0326
Encoding: 806 806 223
Width: 968
Flags: HW
Fore
328.2 -409 m 1,0,1
 396.6 -367 396.6 -367 428.1 -311 c 128,-1,2
 459.6 -255 459.6 -255 459.6 -175 c 2,3,-1
 459.6 -153 l 1,4,-1
 601.8 -153 l 1,5,6
 595.5 -256 595.5 -256 543.3 -329 c 128,-1,7
 491.1 -403 491.1 -403 385.8 -457 c 1,8,-1
 328.2 -409 l 1,0,1
EndSplineSet
EndChar
StartChar: Omega
Encoding: 937 937 159
Width: 1613
Flags: HW
Fore
1093 164 m 1,0,-1
 1395.4 164 l 1,1,-1
 1395.4 301 l 1,2,-1
 1500.7 301 l 1,3,-1
 1500.7 0 l 1,4,-1
 967.9 0 l 1,5,-1
 967.9 182 l 1,6,7
 1129.9 252 1129.9 252 1213.15 407.5 c 128,-1,8
 1296.4 563 1296.4 563 1296.4 795 c 0,9,10
 1296.4 1074 1296.4 1074 1173.1 1243.5 c 128,-1,11
 1049.8 1413 1049.8 1413 850 1413 c 0,12,13
 650.2 1413 650.2 1413 526.9 1243.5 c 128,-1,14
 403.6 1074 403.6 1074 403.6 795 c 0,15,16
 403.6 562 403.6 562 486.4 407 c 128,-1,17
 569.2 252 569.2 252 730.3 182 c 1,18,-1
 730.3 0 l 1,19,-1
 199.3 0 l 1,20,-1
 199.3 301 l 1,21,-1
 304.6 301 l 1,22,-1
 304.6 164 l 1,23,-1
 605.2 164 l 1,24,25
 417.1 251 417.1 251 307.3 427 c 128,-1,26
 197.5 603 197.5 603 197.5 817 c 0,27,28
 197.5 968 197.5 968 249.25 1099 c 128,-1,29
 301 1230 301 1230 400 1333 c 0,30,31
 489.1 1424 489.1 1424 604.3 1472 c 128,-1,32
 719.5 1520 719.5 1520 850 1520 c 0,33,34
 980.5 1520 980.5 1520 1094.8 1472.5 c 128,-1,35
 1209.1 1425 1209.1 1425 1298.2 1333 c 0,36,37
 1398.1 1230 1398.1 1230 1450.3 1098.5 c 128,-1,38
 1502.5 967 1502.5 967 1502.5 817 c 0,39,40
 1502.5 604 1502.5 604 1392.25 427.5 c 128,-1,41
 1282 251 1282 251 1093 164 c 1,0,-1
EndSplineSet
EndChar
StartChar: pi
Encoding: 960 960 155
Width: 1278
Flags: HW
Fore
142.9 0 m 1,0,-1
 142.9 106 l 1,1,-1
 292.3 106 l 1,2,-1
 292.3 956 l 1,3,-1
 133.9 956 l 1,4,-1
 133.9 1063 l 1,5,-1
 1212.1 1063 l 1,6,-1
 1212.1 956 l 1,7,-1
 1055.5 956 l 1,8,-1
 1055.5 106 l 1,9,-1
 1203.1 106 l 1,10,-1
 1203.1 0 l 1,11,-1
 745.9 0 l 1,12,-1
 745.9 106 l 1,13,-1
 889 106 l 1,14,-1
 889 956 l 1,15,-1
 457.9 956 l 1,16,-1
 457.9 106 l 1,17,-1
 601.9 106 l 1,18,-1
 601.9 0 l 1,19,-1
 142.9 0 l 1,0,-1
EndSplineSet
EndChar
StartChar: afii10051
Encoding: 1026 1026 158
Width: 1542
Flags: HW
Fore
1224.9 463 m 2,0,1
 1224.9 643 1224.9 643 1154.7 696 c 0,2,3
 1046.7 777 1046.7 777 878.4 753 c 0,4,5
 777.6 739 777.6 739 696.6 648 c 0,6,7
 620.1 562 620.1 562 620.1 451 c 2,8,-1
 620.1 107 l 1,9,-1
 789.3 107 l 1,10,-1
 789.3 0 l 1,11,-1
 266.4 0 l 1,12,-1
 266.4 107 l 1,13,-1
 437.4 107 l 1,14,-1
 437.4 1374 l 1,15,-1
 109.8 1374 l 1,16,-1
 109.8 1141 l 1,17,-1
 -0.900391 1141 l 1,18,-1
 -0.900391 1493 l 1,19,-1
 1207.8 1493 l 1,20,-1
 1207.8 1141 l 1,21,-1
 1097.1 1141 l 1,22,-1
 1097.1 1374 l 1,23,-1
 620.1 1374 l 1,24,-1
 620.1 714 l 1,25,26
 671.4 854 671.4 854 901.8 892 c 0,27,28
 1162.8 935 1162.8 935 1305.9 769 c 0,29,30
 1404.9 655 1404.9 655 1404.9 463 c 2,31,-1
 1404.9 24 l 2,32,33
 1404.9 -223 1404.9 -223 1315.8 -333 c 0,34,35
 1226.7 -443 1226.7 -443 1031.4 -443 c 0,36,37
 967.5 -443 967.5 -443 901.35 -426 c 128,-1,38
 835.2 -409 835.2 -409 769.5 -375 c 1,39,-1
 769.5 -140 l 1,40,-1
 872.1 -140 l 1,41,42
 874.8 -239 874.8 -239 914.4 -287.5 c 128,-1,43
 954 -336 954 -336 1033.2 -336 c 0,44,45
 1140.3 -336 1140.3 -336 1182.6 -261 c 0,46,47
 1224.9 -186 1224.9 -186 1224.9 32 c 2,48,-1
 1224.9 463 l 2,0,1
EndSplineSet
EndChar
StartChar: afii10053
Encoding: 1028 1028 160
Width: 1488
Flags: HW
Fore
388.45 694 m 1,0,1
 396.55 404 396.55 404 498.25 248 c 0,2,3
 608.95 78 608.95 78 824.05 78 c 0,4,5
 974.35 78 974.35 78 1071.55 157.5 c 128,-1,6
 1168.75 237 1168.75 237 1211.95 395 c 1,7,-1
 1377.55 395 l 1,8,9
 1318.15 186 1318.15 186 1178.2 78.5 c 128,-1,10
 1038.25 -29 1038.25 -29 824.05 -29 c 0,11,12
 692.65 -29 692.65 -29 580.15 21 c 128,-1,13
 467.65 71 467.65 71 380.35 168 c 0,14,15
 279.55 280 279.55 280 230.95 422 c 0,16,17
 181.45 565 181.45 565 181.45 745 c 0,18,19
 181.45 1093 181.45 1093 362.35 1306.5 c 128,-1,20
 543.25 1520 543.25 1520 839.35 1520 c 0,21,22
 949.15 1520 949.15 1520 1073.35 1488 c 128,-1,23
 1197.55 1456 1197.55 1456 1340.65 1391 c 1,24,-1
 1340.65 1047 l 1,25,-1
 1238.95 1047 l 1,26,27
 1205.65 1235 1205.65 1235 1105.3 1324 c 128,-1,28
 1004.95 1413 1004.95 1413 824.05 1413 c 0,29,30
 608.95 1413 608.95 1413 498.25 1244 c 0,31,32
 400.15 1093 400.15 1093 389.35 816 c 1,33,-1
 925.75 816 l 1,34,-1
 925.75 940 l 1,35,-1
 1036.45 940 l 1,36,-1
 1036.45 574 l 1,37,-1
 925.75 574 l 1,38,-1
 925.75 694 l 1,39,-1
 388.45 694 l 1,0,1
EndSplineSet
EndChar
StartChar: afii10054
Encoding: 1029 1029 161
Width: 1333
Flags: HW
Fore
242.25 72 m 1,0,-1
 242.25 412 l 1,1,-1
 345.75 411 l 1,2,3
 350.25 241 350.25 241 434.85 160 c 0,4,5
 518.55 78 518.55 78 690.45 78 c 0,6,7
 850.65 78 850.65 78 934.8 148.5 c 128,-1,8
 1018.95 219 1018.95 219 1018.95 354 c 0,9,10
 1018.95 462 1018.95 462 968.1 520 c 128,-1,11
 917.25 578 917.25 578 753.45 633 c 2,12,-1
 576.15 692 l 2,13,14
 383.55 757 383.55 757 304.8 854 c 128,-1,15
 226.05 951 226.05 951 226.05 1120 c 0,16,17
 226.05 1310 226.05 1310 347.55 1415 c 128,-1,18
 469.05 1520 469.05 1520 688.65 1520 c 0,19,20
 782.25 1520 782.25 1520 893.85 1497.5 c 128,-1,21
 1005.45 1475 1005.45 1475 1131.45 1432 c 1,22,-1
 1131.45 1114 l 1,23,-1
 1029.75 1114 l 1,24,25
 1014.45 1272 1014.45 1272 934.8 1342.5 c 128,-1,26
 855.15 1413 855.15 1413 692.25 1413 c 0,27,28
 550.05 1413 550.05 1413 475.8 1348.5 c 128,-1,29
 401.55 1284 401.55 1284 401.55 1161 c 0,30,31
 401.55 1054 401.55 1054 457.35 993 c 128,-1,32
 513.15 932 513.15 932 694.05 872 c 2,33,-1
 860.55 817 l 2,34,35
 1043.25 756 1043.25 756 1121.1 661.5 c 128,-1,36
 1198.95 567 1198.95 567 1198.95 408 c 0,37,38
 1198.95 191 1198.95 191 1073.85 81 c 0,39,40
 948.75 -29 948.75 -29 701.25 -29 c 0,41,42
 590.55 -29 590.55 -29 475.8 -4 c 128,-1,43
 361.05 21 361.05 21 242.25 72 c 1,0,-1
EndSplineSet
EndChar
StartChar: afii10055
Encoding: 1030 1030 162
Width: 768
Flags: HW
Fore
495.85 106 m 1,0,-1
 666.85 106 l 1,1,-1
 666.85 0 l 1,2,-1
 142.15 0 l 1,3,-1
 142.15 106 l 1,4,-1
 313.15 106 l 1,5,-1
 313.15 1386 l 1,6,-1
 142.15 1386 l 1,7,-1
 142.15 1493 l 1,8,-1
 666.85 1493 l 1,9,-1
 666.85 1386 l 1,10,-1
 495.85 1386 l 1,11,-1
 495.85 106 l 1,0,-1
EndSplineSet
EndChar
StartChar: afii10057
Encoding: 1032 1032 164
Width: 766
Flags: HW
Fore
-127.05 -358 m 1,0,-1
 -127.05 -123 l 1,1,-1
 -24.4502 -123 l 1,2,3
 -21.75 -222 -21.75 -222 17.8496 -270.5 c 128,-1,4
 57.4502 -319 57.4502 -319 136.65 -319 c 0,5,6
 243.75 -319 243.75 -319 286.05 -244 c 128,-1,7
 328.35 -169 328.35 -169 328.35 49 c 2,8,-1
 328.35 1386 l 1,9,-1
 119.55 1386 l 1,10,-1
 119.55 1493 l 1,11,-1
 682.05 1493 l 1,12,-1
 682.05 1386 l 1,13,-1
 511.05 1386 l 1,14,-1
 511.05 41 l 2,15,16
 511.05 -206 511.05 -206 421.95 -316 c 128,-1,17
 332.85 -426 332.85 -426 134.85 -426 c 0,18,19
 70.9502 -426 70.9502 -426 4.7998 -409 c 128,-1,20
 -61.3496 -392 -61.3496 -392 -127.05 -358 c 1,0,-1
EndSplineSet
EndChar
StartChar: afii10058
Encoding: 1033 1033 165
Width: 2064
Flags: HW
Fore
984.9 0 m 1,0,-1
 984.9 106 l 1,1,-1
 1155.9 106 l 1,2,-1
 1155.9 1370 l 1,3,-1
 611.4 1370 l 1,4,-1
 613.2 431 l 1,5,6
 614.1 185 614.1 185 524.1 74 c 0,7,8
 435 -36 435 -36 267.6 -36 c 0,9,10
 232.5 -36 232.5 -36 166.35 -19 c 128,-1,11
 100.2 -2 100.2 -2 34.5 32 c 1,12,-1
 34.5 199 l 1,13,-1
 137.1 199 l 1,14,15
 137.1 171 137.1 171 179.4 120 c 0,16,17
 219 71 219 71 269.4 71 c 0,18,19
 345.9 71 345.9 71 388.2 146 c 0,20,21
 430.5 222 430.5 222 430.5 439 c 2,22,-1
 430.5 1386 l 1,23,-1
 259.5 1386 l 1,24,-1
 259.5 1493 l 1,25,-1
 1509.6 1493 l 1,26,-1
 1509.6 1386 l 1,27,-1
 1338.6 1386 l 1,28,-1
 1338.6 870 l 1,29,-1
 1446.6 870 l 1,30,31
 1755.3 848 1755.3 848 1880.4 710 c 0,32,33
 1969.5 612 1969.5 612 1969.5 432 c 0,34,35
 1969.5 210 1969.5 210 1843.5 105 c 128,-1,36
 1717.5 0 1717.5 0 1485.3 0 c 2,37,-1
 984.9 0 l 1,0,-1
1384.5 106 m 1,38,-1
 1487.1 106 l 2,39,40
 1614 106 1614 106 1688.7 184 c 128,-1,41
 1763.4 262 1763.4 262 1763.4 432 c 0,42,43
 1763.4 593 1763.4 593 1689.15 670.5 c 128,-1,44
 1614.9 748 1614.9 748 1487.1 748 c 2,45,-1
 1338.6 748 l 1,46,-1
 1338.6 106 l 1,47,-1
 1384.5 106 l 1,38,-1
EndSplineSet
EndChar
StartChar: afii10059
Encoding: 1034 1034 166
Width: 2175
Flags: HW
Fore
1095.85 0 m 1,0,-1
 1095.85 106 l 1,1,-1
 1266.85 106 l 1,2,-1
 1266.85 748 l 1,3,-1
 570.25 748 l 1,4,-1
 570.25 106 l 1,5,-1
 741.25 106 l 1,6,-1
 741.25 0 l 1,7,-1
 216.55 0 l 1,8,-1
 216.55 106 l 1,9,-1
 387.55 106 l 1,10,-1
 387.55 1386 l 1,11,-1
 216.55 1386 l 1,12,-1
 216.55 1493 l 1,13,-1
 741.25 1493 l 1,14,-1
 741.25 1386 l 1,15,-1
 570.25 1386 l 1,16,-1
 570.25 870 l 1,17,-1
 1266.85 870 l 1,18,-1
 1266.85 1386 l 1,19,-1
 1095.85 1386 l 1,20,-1
 1095.85 1493 l 1,21,-1
 1620.55 1493 l 1,22,-1
 1620.55 1386 l 1,23,-1
 1449.55 1386 l 1,24,-1
 1449.55 870 l 1,25,-1
 1557.55 870 l 1,26,27
 1866.25 848 1866.25 848 1992.25 710 c 0,28,29
 2080.45 612 2080.45 612 2080.45 432 c 0,30,31
 2080.45 210 2080.45 210 1954.45 105 c 128,-1,32
 1828.45 0 1828.45 0 1596.25 0 c 2,33,-1
 1495.45 0 l 1,34,-1
 1095.85 0 l 1,0,-1
1495.45 106 m 1,35,-1
 1598.05 106 l 2,36,37
 1724.95 106 1724.95 106 1799.65 184 c 128,-1,38
 1874.35 262 1874.35 262 1874.35 432 c 0,39,40
 1874.35 593 1874.35 593 1800.1 670.5 c 128,-1,41
 1725.85 748 1725.85 748 1598.05 748 c 2,42,-1
 1449.55 748 l 1,43,-1
 1449.55 106 l 1,44,-1
 1495.45 106 l 1,35,-1
EndSplineSet
EndChar
StartChar: afii10060
Encoding: 1035 1035 167
Width: 1687
Flags: HW
Fore
1217.3 1493 m 1,0,-1
 1217.3 1141 l 1,1,-1
 1106.6 1141 l 1,2,-1
 1106.6 1374 l 1,3,-1
 629.6 1374 l 1,4,-1
 629.6 714 l 1,5,6
 680.9 854 680.9 854 911.3 892 c 0,7,8
 1172.3 935 1172.3 935 1315.4 769 c 0,9,10
 1414.4 655 1414.4 655 1414.4 463 c 2,11,-1
 1414.4 107 l 1,12,-1
 1585.4 107 l 1,13,-1
 1585.4 0 l 1,14,-1
 1067.9 0 l 1,15,-1
 1067.9 107 l 1,16,-1
 1234.4 107 l 1,17,-1
 1234.4 463 l 2,18,19
 1234.4 643 1234.4 643 1164.2 696 c 0,20,21
 1058 775 1058 775 887.9 753 c 0,22,23
 787.1 739 787.1 739 706.1 648 c 0,24,25
 629.6 562 629.6 562 629.6 451 c 2,26,-1
 629.6 107 l 1,27,-1
 798.8 107 l 1,28,-1
 798.8 0 l 1,29,-1
 275.9 0 l 1,30,-1
 275.9 107 l 1,31,-1
 446.9 107 l 1,32,-1
 446.9 1374 l 1,33,-1
 119.3 1374 l 1,34,-1
 119.3 1141 l 1,35,-1
 8.59961 1141 l 1,36,-1
 8.59961 1493 l 1,37,-1
 1217.3 1493 l 1,0,-1
EndSplineSet
EndChar
StartChar: afii10145
Encoding: 1039 1039 171
Width: 1696
Flags: HW
Fore
802.1 0 m 1,0,-1
 191 0 l 1,1,-1
 191 107 l 1,2,-1
 362 107 l 1,3,-1
 362 1387 l 1,4,-1
 191 1387 l 1,5,-1
 191 1493 l 1,6,-1
 715.7 1493 l 1,7,-1
 715.7 1387 l 1,8,-1
 544.7 1387 l 1,9,-1
 544.7 123 l 1,10,-1
 1241.3 123 l 1,11,-1
 1241.3 1387 l 1,12,-1
 1070.3 1387 l 1,13,-1
 1070.3 1493 l 1,14,-1
 1595 1493 l 1,15,-1
 1595 1387 l 1,16,-1
 1424 1387 l 1,17,-1
 1424 107 l 1,18,-1
 1595 107 l 1,19,-1
 1595 0 l 1,20,-1
 983.9 0 l 1,21,-1
 983.9 -321 l 1,22,-1
 802.1 -321 l 1,23,-1
 802.1 0 l 1,0,-1
EndSplineSet
EndChar
StartChar: afii10017
Encoding: 1040 1040 172
Width: 1405
Flags: HW
Fore
443.35 541 m 1,0,-1
 936.55 541 l 1,1,-1
 689.95 1251 l 1,2,-1
 443.35 541 l 1,0,-1
63.5498 0 m 1,3,-1
 63.5498 106 l 1,4,-1
 181.45 106 l 1,5,-1
 660.25 1493 l 1,6,-1
 811.45 1493 l 1,7,-1
 1291.15 106 l 1,8,-1
 1423.45 106 l 1,9,-1
 1423.45 0 l 1,10,-1
 934.75 0 l 1,11,-1
 934.75 106 l 1,12,-1
 1084.15 106 l 1,13,-1
 971.65 434 l 1,14,-1
 406.45 434 l 1,15,-1
 293.95 106 l 1,16,-1
 441.55 106 l 1,17,-1
 441.55 0 l 1,18,-1
 63.5498 0 l 1,3,-1
EndSplineSet
EndChar
StartChar: afii10018
Encoding: 1041 1041 173
Width: 1429
Flags: HW
Fore
530.05 106 m 1,0,-1
 799.15 106 l 2,1,2
 961.15 106 961.15 106 1035.85 184 c 128,-1,3
 1110.55 262 1110.55 262 1110.55 432 c 0,4,5
 1110.55 601 1110.55 601 1036.3 678.5 c 128,-1,6
 962.05 756 962.05 756 799.15 756 c 2,7,-1
 530.05 756 l 1,8,-1
 530.05 106 l 1,0,-1
176.35 1493 m 1,9,-1
 1257.25 1493 l 1,10,-1
 1257.25 1161 l 1,11,-1
 1146.55 1161 l 1,12,-1
 1146.55 1370 l 1,13,-1
 530.05 1370 l 1,14,-1
 530.05 862 l 1,15,-1
 758.65 862 l 2,16,17
 1100.65 862 1100.65 862 1228.45 694 c 1,18,19
 1316.65 576 1316.65 576 1316.65 432 c 0,20,21
 1316.65 210 1316.65 210 1190.65 105 c 128,-1,22
 1064.65 0 1064.65 0 797.35 0 c 2,23,-1
 176.35 0 l 1,24,-1
 176.35 106 l 1,25,-1
 347.35 106 l 1,26,-1
 347.35 1386 l 1,27,-1
 176.35 1386 l 1,28,-1
 176.35 1493 l 1,9,-1
EndSplineSet
EndChar
StartChar: afii10019
Encoding: 1042 1042 174
Width: 1429
Flags: HW
Fore
530.05 106 m 1,0,-1
 799.15 106 l 2,1,2
 961.15 106 961.15 106 1035.85 184 c 128,-1,3
 1110.55 262 1110.55 262 1110.55 432 c 0,4,5
 1110.55 601 1110.55 601 1036.3 678.5 c 128,-1,6
 962.05 756 962.05 756 799.15 756 c 2,7,-1
 530.05 756 l 1,8,-1
 530.05 106 l 1,0,-1
530.05 862 m 1,9,-1
 758.65 862 l 2,10,11
 906.25 862 906.25 862 974.2 925 c 128,-1,12
 1042.15 988 1042.15 988 1042.15 1124 c 0,13,14
 1042.15 1261 1042.15 1261 974.2 1323.5 c 128,-1,15
 906.25 1386 906.25 1386 758.65 1386 c 2,16,-1
 530.05 1386 l 1,17,-1
 530.05 862 l 1,9,-1
176.35 0 m 1,18,-1
 176.35 106 l 1,19,-1
 347.35 106 l 1,20,-1
 347.35 1386 l 1,21,-1
 176.35 1386 l 1,22,-1
 176.35 1493 l 1,23,-1
 839.65 1493 l 2,24,25
 1043.05 1493 1043.05 1493 1146.1 1400.5 c 128,-1,26
 1249.15 1308 1249.15 1308 1249.15 1124 c 0,27,28
 1249.15 991 1249.15 991 1178.05 912 c 0,29,30
 1106.05 833 1106.05 833 968.35 815 c 1,31,32
 1139.35 791 1139.35 791 1228 693.5 c 128,-1,33
 1316.65 596 1316.65 596 1316.65 432 c 0,34,35
 1316.65 210 1316.65 210 1190.65 105 c 128,-1,36
 1064.65 0 1064.65 0 797.35 0 c 2,37,-1
 176.35 0 l 1,18,-1
EndSplineSet
EndChar
StartChar: afii10020
Encoding: 1043 1043 175
Width: 1351
Flags: HW
Fore
527.8 106 m 1,0,-1
 742.9 106 l 1,1,-1
 742.9 0 l 1,2,-1
 174.1 0 l 1,3,-1
 174.1 106 l 1,4,-1
 345.1 106 l 1,5,-1
 345.1 1386 l 1,6,-1
 174.1 1386 l 1,7,-1
 174.1 1493 l 1,8,-1
 1273.9 1493 l 1,9,-1
 1273.9 1161 l 1,10,-1
 1163.2 1161 l 1,11,-1
 1163.2 1370 l 1,12,-1
 527.8 1370 l 1,13,-1
 527.8 106 l 1,0,-1
EndSplineSet
EndChar
StartChar: afii10021
Encoding: 1044 1044 176
Width: 1692
Flags: HW
Fore
449.25 0 m 2,0,1
 346.83 -0 346.83 -0 325.05 -198 c 0,2,3
 315.15 -288 315.15 -288 315.15 -420 c 1,4,-1
 158.55 -420 l 1,5,-1
 158.55 107 l 1,6,-1
 257.55 108 l 2,7,8
 436.65 109.809 436.65 109.809 436.65 439 c 2,9,-1
 436.65 1386 l 1,10,-1
 265.65 1386 l 1,11,-1
 265.65 1493 l 1,12,-1
 1494.15 1493 l 1,13,-1
 1494.15 1386 l 1,14,-1
 1323.15 1386 l 1,15,-1
 1323.15 295 l 1,16,17
 1314.15 229 1314.15 229 1360.05 174 c 0,18,19
 1407.14 117 1407.14 117 1536.45 107 c 1,20,-1
 1536.45 -420 l 1,21,-1
 1379.85 -420 l 1,22,23
 1379.85 -282 1379.85 -282 1369.95 -198 c 0,24,25
 1349.38 0.000976562 1349.38 0.000976562 1245.75 0 c 2,26,-1
 449.25 0 l 2,0,1
1140.45 295 m 1,27,-1
 1140.45 1370 l 1,28,-1
 595.95 1370 l 1,29,-1
 597.75 431 l 1,30,31
 597.75 274 597.75 274 558.15 162 c 0,32,33
 545.55 127 545.55 127 553.65 117 c 0,34,35
 561.75 107 561.75 107 592.35 107 c 2,36,-1
 1013.55 108 l 2,37,38
 1136.85 108 1136.85 108 1140.45 295 c 1,27,-1
EndSplineSet
EndChar
StartChar: afii10022
Encoding: 1045 1045 177
Width: 1417
Flags: HW
Fore
173.9 0 m 1,0,-1
 173.9 106 l 1,1,-1
 344.9 106 l 1,2,-1
 344.9 1386 l 1,3,-1
 173.9 1386 l 1,4,-1
 173.9 1493 l 1,5,-1
 1255.7 1493 l 1,6,-1
 1255.7 1161 l 1,7,-1
 1145 1161 l 1,8,-1
 1145 1370 l 1,9,-1
 527.6 1370 l 1,10,-1
 527.6 870 l 1,11,-1
 967.7 870 l 1,12,-1
 967.7 1057 l 1,13,-1
 1078.4 1057 l 1,14,-1
 1078.4 561 l 1,15,-1
 967.7 561 l 1,16,-1
 967.7 748 l 1,17,-1
 527.6 748 l 1,18,-1
 527.6 123 l 1,19,-1
 1159.4 123 l 1,20,-1
 1159.4 332 l 1,21,-1
 1270.1 332 l 1,22,-1
 1270.1 0 l 1,23,-1
 173.9 0 l 1,0,-1
EndSplineSet
EndChar
StartChar: afii10024
Encoding: 1046 1046 178
Width: 2152
Flags: HW
Fore
1236.85 709 m 1,0,-1
 1236.85 106 l 1,1,-1
 1407.85 106 l 1,2,-1
 1407.85 0 l 1,3,-1
 883.15 0 l 1,4,-1
 883.15 106 l 1,5,-1
 1054.15 106 l 1,6,-1
 1054.15 709 l 1,7,-1
 545.65 0 l 1,8,-1
 233.35 0 l 1,9,-1
 233.35 106 l 1,10,-1
 386.35 106 l 1,11,-1
 902.95 823 l 1,12,-1
 454.75 1386 l 1,13,-1
 303.55 1386 l 1,14,-1
 303.55 1493 l 1,15,-1
 749.95 1493 l 1,16,-1
 749.95 1386 l 1,17,-1
 604.15 1386 l 1,18,-1
 1054.15 821 l 1,19,-1
 1054.15 1386 l 1,20,-1
 883.15 1386 l 1,21,-1
 883.15 1493 l 1,22,-1
 1407.85 1493 l 1,23,-1
 1407.85 1386 l 1,24,-1
 1236.85 1386 l 1,25,-1
 1236.85 821 l 1,26,-1
 1686.85 1386 l 1,27,-1
 1541.05 1386 l 1,28,-1
 1541.05 1493 l 1,29,-1
 1987.45 1493 l 1,30,-1
 1987.45 1386 l 1,31,-1
 1836.25 1386 l 1,32,-1
 1388.05 823 l 1,33,-1
 1904.65 106 l 1,34,-1
 2057.65 106 l 1,35,-1
 2057.65 0 l 1,36,-1
 1745.35 0 l 1,37,-1
 1236.85 709 l 1,0,-1
EndSplineSet
EndChar
StartChar: afii10025
Encoding: 1047 1047 179
Width: 1238
Flags: HW
Fore
244.45 1430 m 1,0,1
 349.75 1474 349.75 1474 446.5 1497 c 128,-1,2
 543.25 1520 543.25 1520 627.85 1520 c 0,3,4
 824.95 1520 824.95 1520 935.65 1425.5 c 128,-1,5
 1046.35 1331 1046.35 1331 1046.35 1163 c 0,6,7
 1046.35 1028 1046.35 1028 969.85 937.5 c 128,-1,8
 893.35 847 893.35 847 752.95 815 c 1,9,10
 918.55 789 918.55 789 1009.9 681.5 c 128,-1,11
 1101.25 574 1101.25 574 1101.25 403 c 0,12,13
 1101.25 194 1101.25 194 974.35 82 c 0,14,15
 848.35 -29 848.35 -29 610.75 -29 c 0,16,17
 505.45 -29 505.45 -29 405.1 -4 c 128,-1,18
 304.75 21 304.75 21 205.75 72 c 1,19,-1
 205.75 362 l 1,20,-1
 306.55 362 l 1,21,22
 315.55 218 315.55 218 393.85 144 c 128,-1,23
 472.15 70 472.15 70 614.35 70 c 0,24,25
 752.05 70 752.05 70 831.7 158.5 c 128,-1,26
 911.35 247 911.35 247 911.35 401 c 0,27,28
 911.35 577 911.35 577 829.45 667.5 c 128,-1,29
 747.55 758 747.55 758 589.15 758 c 2,30,-1
 503.65 758 l 1,31,-1
 503.65 860 l 1,32,-1
 548.65 860 l 2,33,34
 706.15 860 706.15 860 784.9 932.5 c 128,-1,35
 863.65 1005 863.65 1005 863.65 1151 c 0,36,37
 863.65 1282 863.65 1282 798.85 1351.5 c 128,-1,38
 734.05 1421 734.05 1421 612.55 1421 c 128,-1,39
 491.05 1421 491.05 1421 424 1357 c 128,-1,40
 356.95 1293 356.95 1293 345.25 1167 c 1,41,-1
 244.45 1167 l 1,42,-1
 244.45 1430 l 1,0,1
EndSplineSet
EndChar
StartChar: afii10026
Encoding: 1048 1048 180
Width: 1696
Flags: HW
Fore
191 0 m 1,0,-1
 191 106 l 1,1,-1
 362 106 l 1,2,-1
 362 1386 l 1,3,-1
 191 1386 l 1,4,-1
 191 1493 l 1,5,-1
 715.7 1493 l 1,6,-1
 715.7 1386 l 1,7,-1
 544.7 1386 l 1,8,-1
 544.7 463 l 1,9,-1
 1241.3 1217 l 1,10,-1
 1241.3 1386 l 1,11,-1
 1070.3 1386 l 1,12,-1
 1070.3 1493 l 1,13,-1
 1595 1493 l 1,14,-1
 1595 1386 l 1,15,-1
 1424 1386 l 1,16,-1
 1424 106 l 1,17,-1
 1595 106 l 1,18,-1
 1595 0 l 1,19,-1
 1070.3 0 l 1,20,-1
 1070.3 106 l 1,21,-1
 1241.3 106 l 1,22,-1
 1241.3 1029 l 1,23,-1
 544.7 275 l 1,24,-1
 544.7 106 l 1,25,-1
 715.7 106 l 1,26,-1
 715.7 0 l 1,27,-1
 191 0 l 1,0,-1
EndSplineSet
EndChar
StartChar: afii10028
Encoding: 1050 1050 182
Width: 1460
Flags: HW
Fore
185.4 0 m 1,0,-1
 185.4 106 l 1,1,-1
 356.4 106 l 1,2,-1
 356.4 1386 l 1,3,-1
 185.4 1386 l 1,4,-1
 185.4 1493 l 1,5,-1
 710.1 1493 l 1,6,-1
 710.1 1386 l 1,7,-1
 539.1 1386 l 1,8,-1
 539.1 821 l 1,9,-1
 1117.8 1386 l 1,10,-1
 972 1386 l 1,11,-1
 972 1493 l 1,12,-1
 1418.4 1493 l 1,13,-1
 1418.4 1386 l 1,14,-1
 1267.2 1386 l 1,15,-1
 690.3 823 l 1,16,-1
 1335.6 106 l 1,17,-1
 1488.6 106 l 1,18,-1
 1488.6 0 l 1,19,-1
 1176.3 0 l 1,20,-1
 539.1 709 l 1,21,-1
 539.1 106 l 1,22,-1
 710.1 106 l 1,23,-1
 710.1 0 l 1,24,-1
 185.4 0 l 1,0,-1
EndSplineSet
EndChar
StartChar: afii10029
Encoding: 1051 1051 183
Width: 1682
Flags: HW
Fore
404.95 1386 m 1,0,-1
 233.95 1386 l 1,1,-1
 233.95 1493 l 1,2,-1
 1484.05 1493 l 1,3,-1
 1484.05 1386 l 1,4,-1
 1313.05 1386 l 1,5,-1
 1313.05 106 l 1,6,-1
 1484.05 106 l 1,7,-1
 1484.05 0 l 1,8,-1
 959.35 0 l 1,9,-1
 959.35 106 l 1,10,-1
 1130.35 106 l 1,11,-1
 1130.35 1370 l 1,12,-1
 585.85 1370 l 1,13,-1
 587.65 431 l 1,14,15
 588.55 185 588.55 185 498.55 74 c 0,16,17
 409.45 -36 409.45 -36 242.05 -36 c 0,18,19
 206.95 -36 206.95 -36 140.8 -19 c 128,-1,20
 74.6504 -2 74.6504 -2 8.9502 32 c 1,21,-1
 8.9502 199 l 1,22,-1
 111.55 199 l 1,23,24
 111.55 171 111.55 171 153.85 120 c 0,25,26
 193.45 71 193.45 71 243.85 71 c 0,27,28
 320.35 71 320.35 71 362.65 146 c 0,29,30
 404.95 222 404.95 222 404.95 439 c 2,31,-1
 404.95 1386 l 1,0,-1
EndSplineSet
EndChar
StartChar: afii10030
Encoding: 1052 1052 184
Width: 1992
Flags: HW
Fore
206.45 0 m 1,0,-1
 206.45 106 l 1,1,-1
 377.45 106 l 1,2,-1
 377.45 1386 l 1,3,-1
 196.55 1386 l 1,4,-1
 196.55 1493 l 1,5,-1
 588.05 1493 l 1,6,-1
 1059.65 430 l 1,7,-1
 1531.25 1493 l 1,8,-1
 1898.45 1493 l 1,9,-1
 1898.45 1386 l 1,10,-1
 1719.35 1386 l 1,11,-1
 1719.35 106 l 1,12,-1
 1891.25 106 l 1,13,-1
 1891.25 0 l 1,14,-1
 1365.65 0 l 1,15,-1
 1365.65 106 l 1,16,-1
 1536.65 106 l 1,17,-1
 1536.65 1260 l 1,18,-1
 1075.85 219 l 1,19,-1
 948.95 219 l 1,20,-1
 488.15 1260 l 1,21,-1
 488.15 106 l 1,22,-1
 659.15 106 l 1,23,-1
 659.15 0 l 1,24,-1
 206.45 0 l 1,0,-1
EndSplineSet
EndChar
StartChar: afii10031
Encoding: 1053 1053 185
Width: 1696
Flags: HW
Fore
191 0 m 1,0,-1
 191 106 l 1,1,-1
 362 106 l 1,2,-1
 362 1386 l 1,3,-1
 191 1386 l 1,4,-1
 191 1493 l 1,5,-1
 715.7 1493 l 1,6,-1
 715.7 1386 l 1,7,-1
 544.7 1386 l 1,8,-1
 544.7 870 l 1,9,-1
 1241.3 870 l 1,10,-1
 1241.3 1386 l 1,11,-1
 1070.3 1386 l 1,12,-1
 1070.3 1493 l 1,13,-1
 1595 1493 l 1,14,-1
 1595 1386 l 1,15,-1
 1424 1386 l 1,16,-1
 1424 106 l 1,17,-1
 1595 106 l 1,18,-1
 1595 0 l 1,19,-1
 1070.3 0 l 1,20,-1
 1070.3 106 l 1,21,-1
 1241.3 106 l 1,22,-1
 1241.3 748 l 1,23,-1
 544.7 748 l 1,24,-1
 544.7 106 l 1,25,-1
 715.7 106 l 1,26,-1
 715.7 0 l 1,27,-1
 191 0 l 1,0,-1
EndSplineSet
EndChar
StartChar: afii10032
Encoding: 1054 1054 186
Width: 1595
Flags: HW
Fore
840 78 m 0,0,1
 1060.5 78 1060.5 78 1173 246.5 c 128,-1,2
 1285.5 415 1285.5 415 1285.5 745 c 0,3,4
 1285.5 1076 1285.5 1076 1173 1244.5 c 128,-1,5
 1060.5 1413 1060.5 1413 840 1413 c 0,6,7
 618.6 1413 618.6 1413 506.1 1244.5 c 128,-1,8
 393.6 1076 393.6 1076 393.6 745 c 0,9,10
 393.6 415 393.6 415 506.1 246.5 c 128,-1,11
 618.6 78 618.6 78 840 78 c 0,0,1
840 -29 m 0,12,13
 703.2 -29 703.2 -29 588.45 21 c 128,-1,14
 473.7 71 473.7 71 386.4 168 c 0,15,16
 285.6 280 285.6 280 237 422 c 0,17,18
 187.5 564 187.5 564 187.5 745 c 0,19,20
 187.5 926 187.5 926 236.55 1068.5 c 128,-1,21
 285.6 1211 285.6 1211 386.4 1323 c 0,22,23
 474.6 1421 474.6 1421 588 1470.5 c 128,-1,24
 701.4 1520 701.4 1520 840 1520 c 0,25,26
 1132.5 1520 1132.5 1520 1312.5 1307 c 128,-1,27
 1492.5 1094 1492.5 1094 1492.5 745 c 0,28,29
 1492.5 566 1492.5 566 1443 422.5 c 128,-1,30
 1393.5 279 1393.5 279 1292.7 168 c 0,31,32
 1204.5 70 1204.5 70 1091.1 20.5 c 128,-1,33
 977.7 -29 977.7 -29 840 -29 c 0,12,13
EndSplineSet
EndChar
StartChar: afii10033
Encoding: 1055 1055 187
Width: 1696
Flags: HW
Fore
1595 1493 m 1,0,-1
 1595 1386 l 1,1,-1
 1424 1386 l 1,2,-1
 1424 106 l 1,3,-1
 1595 106 l 1,4,-1
 1595 0 l 1,5,-1
 1070.3 0 l 1,6,-1
 1070.3 106 l 1,7,-1
 1241.3 106 l 1,8,-1
 1241.3 1370 l 1,9,-1
 544.7 1370 l 1,10,-1
 544.7 106 l 1,11,-1
 715.7 106 l 1,12,-1
 715.7 0 l 1,13,-1
 191 0 l 1,14,-1
 191 106 l 1,15,-1
 362 106 l 1,16,-1
 362 1386 l 1,17,-1
 191 1386 l 1,18,-1
 191 1493 l 1,19,-1
 1595 1493 l 1,0,-1
EndSplineSet
EndChar
StartChar: afii10034
Encoding: 1056 1056 188
Width: 1311
Flags: HW
Fore
526.3 760 m 1,0,-1
 763.9 760 l 2,1,2
 898 760 898 760 968.2 840.5 c 128,-1,3
 1038.4 921 1038.4 921 1038.4 1073 c 0,4,5
 1038.4 1226 1038.4 1226 968.2 1306 c 128,-1,6
 898 1386 898 1386 763.9 1386 c 2,7,-1
 526.3 1386 l 1,8,-1
 526.3 760 l 1,0,-1
172.6 0 m 1,9,-1
 172.6 106 l 1,10,-1
 343.6 106 l 1,11,-1
 343.6 1386 l 1,12,-1
 172.6 1386 l 1,13,-1
 172.6 1493 l 1,14,-1
 808 1493 l 2,15,16
 1009.6 1493 1009.6 1493 1127.5 1379.5 c 128,-1,17
 1245.4 1266 1245.4 1266 1245.4 1073 c 0,18,19
 1245.4 881 1245.4 881 1127.5 767 c 128,-1,20
 1009.6 653 1009.6 653 808 653 c 2,21,-1
 526.3 653 l 1,22,-1
 526.3 106 l 1,23,-1
 734.2 106 l 1,24,-1
 734.2 0 l 1,25,-1
 172.6 0 l 1,9,-1
EndSplineSet
EndChar
StartChar: afii10035
Encoding: 1057 1057 189
Width: 1488
Flags: HW
Fore
1377.55 395 m 1,0,1
 1318.15 186 1318.15 186 1178.2 78.5 c 128,-1,2
 1038.25 -29 1038.25 -29 824.05 -29 c 0,3,4
 692.65 -29 692.65 -29 580.15 21 c 128,-1,5
 467.65 71 467.65 71 380.35 168 c 0,6,7
 279.55 280 279.55 280 230.95 422 c 0,8,9
 181.45 565 181.45 565 181.45 745 c 0,10,11
 181.45 1093 181.45 1093 362.35 1306.5 c 128,-1,12
 543.25 1520 543.25 1520 839.35 1520 c 0,13,14
 949.15 1520 949.15 1520 1073.35 1488 c 128,-1,15
 1197.55 1456 1197.55 1456 1340.65 1391 c 1,16,-1
 1340.65 1047 l 1,17,-1
 1238.95 1047 l 1,18,19
 1205.65 1235 1205.65 1235 1105.3 1324 c 128,-1,20
 1004.95 1413 1004.95 1413 824.05 1413 c 0,21,22
 608.95 1413 608.95 1413 498.25 1243.5 c 128,-1,23
 387.55 1074 387.55 1074 387.55 745 c 0,24,25
 387.55 417 387.55 417 498.25 248 c 0,26,27
 608.95 78 608.95 78 824.05 78 c 0,28,29
 974.35 78 974.35 78 1071.55 157.5 c 128,-1,30
 1168.75 237 1168.75 237 1211.95 395 c 1,31,-1
 1377.55 395 l 1,0,1
EndSplineSet
EndChar
StartChar: afii10036
Encoding: 1058 1058 190
Width: 1297
Flags: HW
Fore
420.2 0 m 1,0,-1
 420.2 106 l 1,1,-1
 592.1 106 l 1,2,-1
 592.1 1374 l 1,3,-1
 197 1374 l 1,4,-1
 197 1141 l 1,5,-1
 86.2998 1141 l 1,6,-1
 86.2998 1493 l 1,7,-1
 1279.7 1493 l 1,8,-1
 1279.7 1141 l 1,9,-1
 1169 1141 l 1,10,-1
 1169 1374 l 1,11,-1
 773.9 1374 l 1,12,-1
 773.9 106 l 1,13,-1
 945.8 106 l 1,14,-1
 945.8 0 l 1,15,-1
 420.2 0 l 1,0,-1
EndSplineSet
EndChar
StartChar: afii10037
Encoding: 1059 1059 191
Width: 1450
Flags: HW
Fore
539.35 192 m 2,0,-1
 681.55 570 l 1,1,-1
 265.75 1386 l 1,2,-1
 94.75 1386 l 1,3,-1
 94.75 1493 l 1,4,-1
 561.85 1493 l 1,5,-1
 561.85 1386 l 1,6,-1
 416.05 1386 l 1,7,-1
 745.45 740 l 1,8,-1
 989.35 1386 l 1,9,-1
 843.55 1386 l 1,10,-1
 843.55 1493 l 1,11,-1
 1368.25 1493 l 1,12,-1
 1368.25 1386 l 1,13,-1
 1197.25 1386 l 1,14,-1
 695.95 78 l 2,15,16
 666.25 0 666.25 0 564.55 0 c 2,17,-1
 317.05 0 l 1,18,-1
 317.05 118 l 1,19,-1
 402.55 118 l 2,20,21
 511.45 118 511.45 118 539.35 192 c 2,0,-1
EndSplineSet
EndChar
StartChar: afii10038
Encoding: 1060 1060 192
Width: 1908
Flags: HW
Fore
1108.85 1520 m 1,0,-1
 1178.15 1520 l 2,1,2
 1316.75 1520 1316.75 1520 1430.15 1470.5 c 128,-1,3
 1543.55 1421 1543.55 1421 1631.75 1323 c 0,4,5
 1755.95 1185 1755.95 1185 1782.05 1068 c 0,6,7
 1812.65 926 1812.65 926 1812.65 745 c 0,8,9
 1812.65 512 1812.65 512 1782.05 422 c 0,10,11
 1732.55 280 1732.55 280 1631.75 168 c 0,12,13
 1544.45 71 1544.45 71 1429.7 21 c 128,-1,14
 1314.95 -29 1314.95 -29 1178.15 -29 c 2,15,-1
 1108.85 -29 l 1,16,-1
 1108.85 -215 l 1,17,-1
 1279.85 -215 l 1,18,-1
 1279.85 -321 l 1,19,-1
 755.15 -321 l 1,20,-1
 755.15 -215 l 1,21,-1
 926.15 -215 l 1,22,-1
 926.15 -29 l 1,23,-1
 856.85 -29 l 2,24,25
 720.05 -29 720.05 -29 605.3 21 c 128,-1,26
 490.55 71 490.55 71 403.25 168 c 0,27,28
 302.45 280 302.45 280 253.85 422 c 0,29,30
 204.35 564 204.35 564 204.35 745 c 0,31,32
 204.35 926 204.35 926 253.4 1068.5 c 128,-1,33
 302.45 1211 302.45 1211 403.25 1323 c 0,34,35
 491.45 1421 491.45 1421 604.85 1470.5 c 128,-1,36
 718.25 1520 718.25 1520 856.85 1520 c 2,37,-1
 926.15 1520 l 1,38,-1
 926.15 1707 l 1,39,-1
 755.15 1707 l 1,40,-1
 755.15 1814 l 1,41,-1
 1279.85 1814 l 1,42,-1
 1279.85 1707 l 1,43,-1
 1108.85 1707 l 1,44,-1
 1108.85 1520 l 1,0,-1
1108.85 78 m 1,45,-1
 1178.15 78 l 2,46,47
 1399.55 78 1399.55 78 1512.05 246.5 c 128,-1,48
 1624.55 415 1624.55 415 1624.55 745 c 0,49,50
 1624.55 1076 1624.55 1076 1512.05 1244.5 c 128,-1,51
 1399.55 1413 1399.55 1413 1178.15 1413 c 2,52,-1
 1108.85 1413 l 1,53,-1
 1108.85 78 l 1,45,-1
926.15 78 m 1,54,-1
 926.15 1413 l 1,55,-1
 856.85 1413 l 2,56,57
 635.45 1413 635.45 1413 522.95 1244.5 c 128,-1,58
 410.45 1076 410.45 1076 410.45 745 c 0,59,60
 410.45 415 410.45 415 522.95 246.5 c 128,-1,61
 635.45 78 635.45 78 856.85 78 c 2,62,-1
 926.15 78 l 1,54,-1
EndSplineSet
EndChar
StartChar: afii10039
Encoding: 1061 1061 193
Width: 1385
Flags: HW
Fore
683.2 639 m 1,0,-1
 354.7 106 l 1,1,-1
 528.4 106 l 1,2,-1
 528.4 0 l 1,3,-1
 83.7998 0 l 1,4,-1
 83.7998 106 l 1,5,-1
 238.6 106 l 1,6,-1
 625.6 733 l 1,7,-1
 233.2 1386 l 1,8,-1
 89.2002 1386 l 1,9,-1
 89.2002 1493 l 1,10,-1
 622 1493 l 1,11,-1
 622 1386 l 1,12,-1
 463.6 1386 l 1,13,-1
 751.6 905 l 1,14,-1
 1047.7 1386 l 1,15,-1
 874.9 1386 l 1,16,-1
 874.9 1493 l 1,17,-1
 1315 1493 l 1,18,-1
 1315 1386 l 1,19,-1
 1163.8 1386 l 1,20,-1
 808.3 811 l 1,21,-1
 1232.2 106 l 1,22,-1
 1376.2 106 l 1,23,-1
 1376.2 0 l 1,24,-1
 843.4 0 l 1,25,-1
 843.4 106 l 1,26,-1
 1003.6 106 l 1,27,-1
 683.2 639 l 1,0,-1
EndSplineSet
EndChar
StartChar: afii10040
Encoding: 1062 1062 194
Width: 1698
Flags: HW
Fore
1633.95 107 m 1,0,-1
 1426.05 107 l 1,1,-1
 1426.05 1387 l 1,2,-1
 1597.05 1387 l 1,3,-1
 1597.05 1493 l 1,4,-1
 1072.35 1493 l 1,5,-1
 1072.35 1387 l 1,6,-1
 1243.35 1387 l 1,7,-1
 1243.35 123 l 1,8,-1
 546.75 123 l 1,9,-1
 546.75 1387 l 1,10,-1
 717.75 1387 l 1,11,-1
 717.75 1493 l 1,12,-1
 193.05 1493 l 1,13,-1
 193.05 1387 l 1,14,-1
 364.05 1387 l 1,15,-1
 364.05 107 l 1,16,-1
 193.05 107 l 1,17,-1
 193.05 0 l 1,18,-1
 1452.15 0 l 1,19,-1
 1452.15 -321 l 1,20,-1
 1633.95 -321 l 1,21,-1
 1633.95 107 l 1,0,-1
EndSplineSet
EndChar
StartChar: afii10041
Encoding: 1063 1063 195
Width: 1449
Flags: HW
Fore
1327.7 1493 m 1,0,-1
 1327.7 1386 l 1,1,-1
 1156.7 1386 l 1,2,-1
 1156.7 106 l 1,3,-1
 1353.8 106 l 1,4,-1
 1353.8 0 l 1,5,-1
 805.7 0 l 1,6,-1
 805.7 106 l 1,7,-1
 974 106 l 1,8,-1
 974 653 l 1,9,-1
 692.3 653 l 2,10,11
 425 653 425 653 307.1 767 c 128,-1,12
 189.2 881 189.2 881 189.2 1073 c 2,13,-1
 189.2 1386 l 1,14,-1
 18.2002 1386 l 1,15,-1
 18.2002 1493 l 1,16,-1
 535.7 1493 l 1,17,-1
 535.7 1386 l 1,18,-1
 369.2 1386 l 1,19,-1
 369.2 1073 l 2,20,21
 369.2 921 369.2 921 439.4 840.5 c 128,-1,22
 509.6 760 509.6 760 736.4 760 c 2,23,-1
 974 760 l 1,24,-1
 975.8 1386 l 1,25,-1
 804.8 1386 l 1,26,-1
 804.8 1493 l 1,27,-1
 1327.7 1493 l 1,0,-1
EndSplineSet
EndChar
StartChar: afii10042
Encoding: 1064 1064 196
Width: 1993
Flags: HW
Fore
1136.3 123 m 1,0,-1
 1537.7 123 l 1,1,-1
 1537.7 1387 l 1,2,-1
 1366.7 1387 l 1,3,-1
 1366.7 1493 l 1,4,-1
 1891.4 1493 l 1,5,-1
 1891.4 1387 l 1,6,-1
 1720.4 1387 l 1,7,-1
 1720.4 107 l 1,8,-1
 1891.4 107 l 1,9,-1
 1891.4 0 l 1,10,-1
 206.6 0 l 1,11,-1
 206.6 107 l 1,12,-1
 377.6 107 l 1,13,-1
 377.6 1387 l 1,14,-1
 206.6 1387 l 1,15,-1
 206.6 1493 l 1,16,-1
 731.3 1493 l 1,17,-1
 731.3 1387 l 1,18,-1
 560.3 1387 l 1,19,-1
 560.3 123 l 1,20,-1
 961.7 123 l 1,21,-1
 961.7 1251 l 1,22,-1
 1136.3 1251 l 1,23,-1
 1136.3 123 l 1,0,-1
EndSplineSet
EndChar
StartChar: afii10043
Encoding: 1065 1065 197
Width: 2038
Flags: HW
Fore
1930.35 107 m 1,0,-1
 1722.45 107 l 1,1,-1
 1722.45 1387 l 1,2,-1
 1893.45 1387 l 1,3,-1
 1893.45 1493 l 1,4,-1
 1368.75 1493 l 1,5,-1
 1368.75 1387 l 1,6,-1
 1539.75 1387 l 1,7,-1
 1539.75 123 l 1,8,-1
 1138.35 123 l 1,9,-1
 1138.35 1251 l 1,10,-1
 963.75 1251 l 1,11,-1
 963.75 123 l 1,12,-1
 562.35 123 l 1,13,-1
 562.35 1387 l 1,14,-1
 733.35 1387 l 1,15,-1
 733.35 1493 l 1,16,-1
 208.65 1493 l 1,17,-1
 208.65 1387 l 1,18,-1
 379.65 1387 l 1,19,-1
 379.65 107 l 1,20,-1
 208.65 107 l 1,21,-1
 208.65 0 l 1,22,-1
 1748.55 0 l 1,23,-1
 1748.55 -321 l 1,24,-1
 1930.35 -321 l 1,25,-1
 1930.35 107 l 1,0,-1
EndSplineSet
EndChar
StartChar: afii10044
Encoding: 1066 1066 198
Width: 1478
Flags: HW
Fore
902.4 106 m 2,0,1
 1029.3 106 1029.3 106 1104 184 c 128,-1,2
 1178.7 262 1178.7 262 1178.7 432 c 0,3,4
 1178.7 593 1178.7 593 1104.45 670.5 c 128,-1,5
 1030.2 748 1030.2 748 902.4 748 c 2,6,-1
 758.4 748 l 1,7,-1
 758.4 106 l 1,8,-1
 902.4 106 l 2,0,1
571.2 106 m 1,9,-1
 571.2 1370 l 1,10,-1
 249.9 1370 l 1,11,-1
 249.9 1161 l 1,12,-1
 139.2 1161 l 1,13,-1
 139.2 1493 l 1,14,-1
 927.6 1493 l 1,15,-1
 927.6 1386 l 1,16,-1
 758.4 1386 l 1,17,-1
 758.4 870 l 1,18,-1
 861.9 870 l 1,19,20
 1170.6 848 1170.6 848 1296.6 710 c 0,21,22
 1384.8 612 1384.8 612 1384.8 432 c 0,23,24
 1384.8 210 1384.8 210 1258.8 105 c 128,-1,25
 1132.8 0 1132.8 0 900.6 0 c 2,26,-1
 360.6 0 l 1,27,-1
 360.6 106 l 1,28,-1
 571.2 106 l 1,9,-1
EndSplineSet
EndChar
StartChar: afii10045
Encoding: 1067 1067 199
Width: 2019
Flags: HW
Fore
1644.9 106 m 1,0,-1
 1815.9 106 l 1,1,-1
 1815.9 0 l 1,2,-1
 1291.2 0 l 1,3,-1
 1291.2 106 l 1,4,-1
 1462.2 106 l 1,5,-1
 1462.2 1386 l 1,6,-1
 1291.2 1386 l 1,7,-1
 1291.2 1493 l 1,8,-1
 1815.9 1493 l 1,9,-1
 1815.9 1386 l 1,10,-1
 1644.9 1386 l 1,11,-1
 1644.9 106 l 1,0,-1
437.1 106 m 1,12,-1
 437.1 1386 l 1,13,-1
 266.1 1386 l 1,14,-1
 266.1 1493 l 1,15,-1
 790.8 1493 l 1,16,-1
 790.8 1386 l 1,17,-1
 619.8 1386 l 1,18,-1
 619.8 870 l 1,19,-1
 727.8 870 l 1,20,21
 1036.5 848 1036.5 848 1162.5 710 c 0,22,23
 1250.7 612 1250.7 612 1250.7 432 c 0,24,25
 1250.7 210 1250.7 210 1124.7 105 c 0,26,27
 998.7 0 998.7 0 766.5 0 c 2,28,-1
 665.7 0 l 1,29,-1
 266.1 0 l 1,30,-1
 266.1 106 l 1,31,-1
 437.1 106 l 1,12,-1
665.7 106 m 1,32,-1
 768.3 106 l 2,33,34
 895.2 106 895.2 106 969.9 184 c 128,-1,35
 1044.6 262 1044.6 262 1044.6 432 c 0,36,37
 1044.6 593 1044.6 593 970.35 670.5 c 128,-1,38
 896.1 748 896.1 748 768.3 748 c 2,39,-1
 619.8 748 l 1,40,-1
 619.8 106 l 1,41,-1
 665.7 106 l 1,32,-1
EndSplineSet
EndChar
StartChar: afii10046
Encoding: 1068 1068 200
Width: 1345
Flags: HW
Fore
405.7 106 m 1,0,-1
 405.7 1386 l 1,1,-1
 234.7 1386 l 1,2,-1
 234.7 1493 l 1,3,-1
 759.4 1493 l 1,4,-1
 759.4 1386 l 1,5,-1
 588.4 1386 l 1,6,-1
 588.4 870 l 1,7,-1
 696.4 870 l 1,8,9
 1005.1 848 1005.1 848 1131.1 710 c 0,10,11
 1219.3 612 1219.3 612 1219.3 432 c 0,12,13
 1219.3 210 1219.3 210 1093.3 105 c 0,14,15
 967.3 0 967.3 0 735.1 0 c 2,16,-1
 634.3 0 l 1,17,-1
 234.7 0 l 1,18,-1
 234.7 106 l 1,19,-1
 405.7 106 l 1,0,-1
634.3 106 m 1,20,-1
 736.9 106 l 2,21,22
 863.8 106 863.8 106 938.5 184 c 128,-1,23
 1013.2 262 1013.2 262 1013.2 432 c 0,24,25
 1013.2 593 1013.2 593 938.95 670.5 c 128,-1,26
 864.7 748 864.7 748 736.9 748 c 2,27,-1
 588.4 748 l 1,28,-1
 588.4 106 l 1,29,-1
 634.3 106 l 1,20,-1
EndSplineSet
EndChar
StartChar: afii10047
Encoding: 1069 1069 201
Width: 1488
Flags: HW
Fore
1170.55 694 m 1,0,1
 1162.45 404 1162.45 404 1060.75 248 c 0,2,3
 950.05 78 950.05 78 734.95 78 c 0,4,5
 584.65 78 584.65 78 487.45 157.5 c 128,-1,6
 390.25 237 390.25 237 347.05 395 c 1,7,-1
 181.45 395 l 1,8,9
 240.85 186 240.85 186 380.8 78.5 c 128,-1,10
 520.75 -29 520.75 -29 734.95 -29 c 0,11,12
 866.35 -29 866.35 -29 978.85 21 c 128,-1,13
 1091.35 71 1091.35 71 1178.65 168 c 0,14,15
 1279.45 280 1279.45 280 1328.5 422.5 c 128,-1,16
 1377.55 565 1377.55 565 1377.55 745 c 0,17,18
 1377.55 1093 1377.55 1093 1196.65 1306.5 c 128,-1,19
 1015.75 1520 1015.75 1520 719.65 1520 c 0,20,21
 609.85 1520 609.85 1520 485.65 1488 c 128,-1,22
 361.45 1456 361.45 1456 218.35 1391 c 1,23,-1
 218.35 1047 l 1,24,-1
 320.05 1047 l 1,25,26
 353.35 1235 353.35 1235 453.7 1324 c 128,-1,27
 554.05 1413 554.05 1413 734.95 1413 c 0,28,29
 950.05 1413 950.05 1413 1060.75 1244 c 0,30,31
 1158.85 1093 1158.85 1093 1169.65 816 c 1,32,-1
 633.25 816 l 1,33,-1
 633.25 940 l 1,34,-1
 522.55 940 l 1,35,-1
 522.55 574 l 1,36,-1
 633.25 574 l 1,37,-1
 633.25 694 l 1,38,-1
 1170.55 694 l 1,0,1
EndSplineSet
EndChar
StartChar: afii10048
Encoding: 1070 1070 202
Width: 2320
Flags: HW
Fore
576.55 106 m 1,0,-1
 747.55 106 l 1,1,-1
 747.55 0 l 1,2,-1
 222.85 0 l 1,3,-1
 222.85 106 l 1,4,-1
 393.85 106 l 1,5,-1
 393.85 1386 l 1,6,-1
 222.85 1386 l 1,7,-1
 222.85 1493 l 1,8,-1
 747.55 1493 l 1,9,-1
 747.55 1386 l 1,10,-1
 576.55 1386 l 1,11,-1
 576.55 850 l 1,12,-1
 899.65 850 l 1,13,14
 909.55 969 909.55 969 943.75 1068 c 0,15,16
 993.25 1211 993.25 1211 1094.05 1323 c 0,17,18
 1182.25 1421 1182.25 1421 1295.65 1470 c 0,19,20
 1409.05 1520 1409.05 1520 1547.65 1520 c 0,21,22
 1840.15 1520 1840.15 1520 2020.15 1307 c 128,-1,23
 2200.15 1094 2200.15 1094 2200.15 745 c 0,24,25
 2200.15 566 2200.15 566 2150.65 422 c 0,26,27
 2101.15 279 2101.15 279 2000.35 168 c 0,28,29
 1912.15 70 1912.15 70 1798.75 20 c 0,30,31
 1685.35 -29 1685.35 -29 1547.65 -29 c 0,32,33
 1410.85 -29 1410.85 -29 1296.55 21 c 0,34,35
 1181.35 71 1181.35 71 1094.05 168 c 0,36,37
 993.25 280 993.25 280 943.75 422 c 0,38,39
 902.35 544 902.35 544 896.05 694 c 1,40,-1
 576.55 694 l 1,41,-1
 576.55 106 l 1,0,-1
1547.65 78 m 0,42,43
 1768.15 78 1768.15 78 1880.65 246 c 0,44,45
 1993.15 415 1993.15 415 1993.15 745 c 0,46,47
 1993.15 1076 1993.15 1076 1880.65 1244 c 0,48,49
 1768.15 1413 1768.15 1413 1547.65 1413 c 0,50,51
 1326.25 1413 1326.25 1413 1213.75 1244 c 0,52,53
 1101.25 1076 1101.25 1076 1101.25 745 c 0,54,55
 1101.25 415 1101.25 415 1213.75 246 c 0,56,57
 1326.25 78 1326.25 78 1547.65 78 c 0,42,43
EndSplineSet
EndChar
StartChar: afii10049
Encoding: 1071 1071 203
Width: 1640
Flags: HW
Fore
735.9 741 m 1,0,1
 672.9 722 672.9 722 627.45 676.5 c 128,-1,2
 582 631 582 631 546 549 c 2,3,-1
 350.7 106 l 1,4,-1
 186.9 106 l 1,5,-1
 186.9 0 l 1,6,-1
 503.7 0 l 1,7,-1
 713.4 475 l 1,8,9
 773.7 613 773.7 613 824.1 653.5 c 128,-1,10
 874.5 694 874.5 694 962.7 694 c 2,11,-1
 1163.4 694 l 1,12,-1
 1163.4 106 l 1,13,-1
 973.5 106 l 1,14,-1
 973.5 0 l 1,15,-1
 1517.1 0 l 1,16,-1
 1517.1 106 l 1,17,-1
 1346.1 106 l 1,18,-1
 1346.1 1386 l 1,19,-1
 1517.1 1386 l 1,20,-1
 1517.1 1493 l 1,21,-1
 835.8 1493 l 2,22,23
 639.6 1493 639.6 1493 532.95 1389 c 128,-1,24
 426.3 1285 426.3 1285 426.3 1094 c 0,25,26
 426.3 940 426.3 940 504.15 851.5 c 128,-1,27
 582 763 582 763 735.9 741 c 1,0,1
1163.4 801 m 1,28,-1
 897.9 801 l 2,29,30
 762 801 762 801 697.2 872.5 c 128,-1,31
 632.4 944 632.4 944 632.4 1094 c 128,-1,32
 632.4 1244 632.4 1244 697.2 1315 c 128,-1,33
 762 1386 762 1386 897.9 1386 c 2,34,-1
 1163.4 1386 l 1,35,-1
 1163.4 801 l 1,28,-1
EndSplineSet
EndChar
StartChar: afii10065
Encoding: 1072 1072 204
Width: 1162
Flags: HW
Fore
796.75 334 m 2,0,-1
 796.75 559 l 1,1,-1
 583.45 559 l 2,2,3
 460.15 559 460.15 559 399.85 500 c 128,-1,4
 339.55 441 339.55 441 339.55 319 c 0,5,6
 339.55 208 339.55 208 400.75 143 c 128,-1,7
 461.95 78 461.95 78 566.35 78 c 0,8,9
 669.85 78 669.85 78 733.3 149 c 128,-1,10
 796.75 220 796.75 220 796.75 334 c 2,0,-1
962.35 664 m 2,11,-1
 962.35 106 l 1,12,-1
 1109.95 106 l 1,13,-1
 1109.95 0 l 1,14,-1
 796.75 0 l 1,15,-1
 796.75 115 l 1,16,17
 741.85 41 741.85 41 669.85 6 c 128,-1,18
 597.85 -29 597.85 -29 501.55 -29 c 0,19,20
 342.25 -29 342.25 -29 248.65 65 c 0,21,22
 155.05 159 155.05 159 155.05 319 c 0,23,24
 155.05 484 155.05 484 262.15 575 c 128,-1,25
 369.25 666 369.25 666 564.55 666 c 2,26,-1
 796.75 666 l 1,27,-1
 796.75 739 l 2,28,29
 796.75 860 796.75 860 730.6 926.5 c 128,-1,30
 664.45 993 664.45 993 544.75 993 c 0,31,32
 445.75 993 445.75 993 387.25 943 c 128,-1,33
 328.75 893 328.75 893 314.35 795 c 1,34,-1
 228.85 795 l 1,35,-1
 228.85 1010 l 1,36,37
 315.25 1051 315.25 1051 396.7 1071.5 c 128,-1,38
 478.15 1092 478.15 1092 555.55 1092 c 0,39,40
 754.45 1092 754.45 1092 858.4 982.5 c 128,-1,41
 962.35 873 962.35 873 962.35 664 c 2,11,-1
EndSplineSet
EndChar
StartChar: afii10066
Encoding: 1073 1073 205
Width: 1171
Flags: HW
Fore
616 -29 m 0,0,1
 407.2 -29 407.2 -29 280.3 124.5 c 128,-1,2
 153.4 278 153.4 278 153.4 532 c 128,-1,3
 153.4 786 153.4 786 279.4 939 c 0,4,5
 316.3 983 316.3 983 358.6 1014 c 1,6,7
 329.8 1016 329.8 1016 287.5 1057 c 2,8,-1
 280.3 1064 l 2,9,10
 226.3 1123 226.3 1123 229.9 1211 c 0,11,12
 230.8 1216 230.8 1216 230.8 1220 c 0,13,14
 244.3 1406 244.3 1406 419.8 1470 c 0,15,16
 481.9 1493 481.9 1493 565.6 1502 c 0,17,18
 676.3 1514 676.3 1514 825.7 1505 c 0,19,20
 840.1 1504 840.1 1504 849.1 1503 c 0,21,22
 879.7 1500 879.7 1500 963.4 1521 c 0,23,24
 986.8 1527 986.8 1527 1002.1 1530 c 1,25,-1
 988.6 1380 l 1,26,-1
 909.4 1369 l 1,27,28
 855.4 1364 855.4 1364 799.6 1364 c 1,29,-1
 632.2 1372 l 1,30,31
 596.2 1372 596.2 1372 559.3 1366 c 0,32,33
 454 1350 454 1350 395.5 1281 c 0,34,35
 364.9 1245 364.9 1245 364.9 1212 c 0,36,37
 364.9 1155 364.9 1155 429.7 1114 c 0,38,39
 466.6 1090 466.6 1090 511.6 1081 c 1,40,41
 561.1 1092 561.1 1092 616 1092 c 0,42,43
 825.7 1092 825.7 1092 952.15 939 c 128,-1,44
 1078.6 786 1078.6 786 1078.6 532 c 128,-1,45
 1078.6 278 1078.6 278 952.15 124.5 c 128,-1,46
 825.7 -29 825.7 -29 616 -29 c 0,0,1
616 70 m 0,47,48
 749.2 70 749.2 70 817.15 187 c 128,-1,49
 885.1 304 885.1 304 885.1 532 c 128,-1,50
 885.1 760 885.1 760 817.15 876.5 c 128,-1,51
 749.2 993 749.2 993 616 993 c 0,52,53
 482.8 993 482.8 993 414.4 876 c 0,54,55
 346.9 760 346.9 760 346.9 532 c 128,-1,56
 346.9 304 346.9 304 415.3 187 c 128,-1,57
 483.7 70 483.7 70 616 70 c 0,47,48
EndSplineSet
EndChar
StartChar: afii10067
Encoding: 1074 1074 206
Width: 1090
Flags: HW
Fore
434.8 103 m 1,0,-1
 618.4 103 l 2,1,2
 723.7 103 723.7 103 781.3 159 c 0,3,4
 838 215 838 215 838 308 c 0,5,6
 838 400 838 400 781.3 455 c 0,7,8
 724.6 510 724.6 510 618.4 510 c 2,9,-1
 434.8 510 l 1,10,-1
 434.8 103 l 1,0,-1
434.8 642 m 1,11,-1
 586.9 642 l 2,12,13
 682.3 642 682.3 642 734.05 686.5 c 128,-1,14
 785.8 731 785.8 731 785.8 800 c 0,15,16
 785.8 870 785.8 870 734.05 914.5 c 128,-1,17
 682.3 959 682.3 959 586.9 959 c 2,18,-1
 434.8 959 l 1,19,-1
 434.8 642 l 1,11,-1
122.5 0 m 1,20,-1
 122.5 103 l 1,21,-1
 272.8 103 l 1,22,-1
 272.8 959 l 1,23,-1
 122.5 959 l 1,24,-1
 122.5 1063 l 1,25,-1
 649 1063 l 2,26,27
 804.7 1063 804.7 1063 883 997 c 0,28,29
 962.2 931 962.2 931 962.2 800 c 0,30,31
 962.2 706 962.2 706 907.3 649 c 0,32,33
 852.4 593 852.4 593 747.1 580 c 1,34,35
 877.6 563 877.6 563 946 494 c 0,36,37
 1013.5 424 1013.5 424 1013.5 308 c 0,38,39
 1013.5 150 1013.5 150 917.2 75 c 0,40,41
 820.9 0 820.9 0 616.6 0 c 2,42,-1
 122.5 0 l 1,20,-1
EndSplineSet
EndChar
StartChar: afii10068
Encoding: 1075 1075 207
Width: 1044
Flags: HW
Fore
964.35 1063 m 1,0,-1
 106.65 1063 l 1,1,-1
 106.65 958 l 1,2,-1
 265.95 958 l 1,3,-1
 265.95 106 l 1,4,-1
 116.55 106 l 1,5,-1
 116.55 0 l 1,6,-1
 560.25 0 l 1,7,-1
 560.25 106 l 1,8,-1
 431.55 106 l 1,9,-1
 431.55 940 l 1,10,-1
 869.85 940 l 1,11,-1
 869.85 796 l 1,12,-1
 964.35 796 l 1,13,-1
 964.35 1063 l 1,0,-1
EndSplineSet
EndChar
StartChar: afii10069
Encoding: 1076 1076 208
Width: 1325
Flags: HW
Fore
335.85 0 m 2,0,1
 264.514 0 264.514 0 241.35 -163 c 0,2,3
 233.25 -220 233.25 -220 233.25 -340 c 1,4,-1
 96.4502 -340 l 1,5,-1
 96.4502 104 l 1,6,-1
 172.05 105 l 2,7,8
 308.85 106.81 308.85 106.81 308.85 313 c 2,9,-1
 308.85 962 l 1,10,-1
 189.15 962 l 1,11,-1
 189.15 1063 l 1,12,-1
 1127.85 1063 l 1,13,-1
 1127.85 962 l 1,14,-1
 1021.65 962 l 1,15,-1
 1021.65 238 l 1,16,17
 1014.45 191 1014.45 191 1049.55 152 c 0,18,19
 1085.16 112 1085.16 112 1184.55 104 c 1,20,-1
 1184.55 -340 l 1,21,-1
 1043.25 -340 l 1,22,23
 1043.25 -178.75 1043.25 -178.75 1040.55 -163 c 0,24,25
 1009.52 0 1009.52 0 940.65 0 c 2,26,-1
 335.85 0 l 2,0,1
856.95 238 m 1,27,-1
 856.95 942 l 1,28,-1
 458.25 942 l 1,29,-1
 458.25 307 l 1,30,31
 458.25 222 458.25 222 427.65 143 c 0,32,33
 418.65 119 418.65 119 424.95 111 c 0,34,35
 431.315 103.927 431.315 103.927 453.75 104 c 2,36,-1
 759.75 105 l 2,37,38
 854.256 105.309 854.256 105.309 856.95 238 c 1,27,-1
EndSplineSet
EndChar
StartChar: afii10070
Encoding: 1077 1077 209
Width: 1151
Flags: HW
Fore
1059.6 512 m 1,0,-1
 345.9 512 l 1,1,-1
 345.9 504 l 2,2,3
 345.9 289 345.9 289 418.8 179.5 c 128,-1,4
 491.7 70 491.7 70 633.9 70 c 0,5,6
 742.8 70 742.8 70 812.55 133.5 c 128,-1,7
 882.3 197 882.3 197 910.2 322 c 1,8,-1
 1043.4 322 l 1,9,10
 1003.8 147 1003.8 147 897.15 59 c 128,-1,11
 790.5 -29 790.5 -29 616.8 -29 c 0,12,13
 407.1 -29 407.1 -29 279.75 124.5 c 128,-1,14
 152.4 278 152.4 278 152.4 532 c 0,15,16
 152.4 784 152.4 784 277.5 938 c 128,-1,17
 402.6 1092 402.6 1092 606 1092 c 0,18,19
 822.9 1092 822.9 1092 939 943.5 c 128,-1,20
 1055.1 795 1055.1 795 1059.6 512 c 1,0,-1
864.3 618 m 1,21,22
 858.9 804 858.9 804 793.65 898.5 c 128,-1,23
 728.4 993 728.4 993 606 993 c 0,24,25
 491.7 993 491.7 993 426 898 c 0,26,27
 360.3 803 360.3 803 345.9 618 c 1,28,-1
 864.3 618 l 1,21,22
EndSplineSet
EndChar
StartChar: afii10072
Encoding: 1078 1078 210
Width: 1653
Flags: HW
Fore
953.45 505 m 1,0,-1
 953.45 102 l 1,1,-1
 1063.25 102 l 1,2,-1
 1063.25 0 l 1,3,-1
 671.75 0 l 1,4,-1
 671.75 102 l 1,5,-1
 781.55 102 l 1,6,-1
 781.55 505 l 1,7,-1
 434.15 0 l 1,8,-1
 186.65 0 l 1,9,-1
 186.65 102 l 1,10,-1
 286.55 102 l 1,11,-1
 639.35 586 l 1,12,-1
 337.85 961 l 1,13,-1
 238.85 961 l 1,14,-1
 238.85 1063 l 1,15,-1
 572.75 1063 l 1,16,-1
 572.75 961 l 1,17,-1
 478.25 961 l 1,18,-1
 781.55 585 l 1,19,-1
 781.55 961 l 1,20,-1
 671.75 961 l 1,21,-1
 671.75 1063 l 1,22,-1
 1063.25 1063 l 1,23,-1
 1063.25 961 l 1,24,-1
 953.45 961 l 1,25,-1
 953.45 585 l 1,26,-1
 1257.65 961 l 1,27,-1
 1163.15 961 l 1,28,-1
 1163.15 1063 l 1,29,-1
 1496.15 1063 l 1,30,-1
 1496.15 961 l 1,31,-1
 1398.05 961 l 1,32,-1
 1077.65 586 l 1,33,-1
 1448.45 102 l 1,34,-1
 1548.35 102 l 1,35,-1
 1548.35 0 l 1,36,-1
 1300.85 0 l 1,37,-1
 953.45 505 l 1,0,-1
EndSplineSet
EndChar
StartChar: afii10073
Encoding: 1079 1079 211
Width: 1042
Flags: HW
Fore
182.1 1010 m 1,0,1
 282.9 1041 282.9 1041 376.5 1058 c 0,2,3
 470.1 1074 470.1 1074 518.7 1074 c 0,4,5
 695.1 1074 695.1 1074 783.3 1007 c 0,6,7
 871.5 939 871.5 939 871.5 810 c 0,8,9
 871.5 683 871.5 683 797.7 641 c 2,10,-1
 657.3 562 l 1,11,12
 790.5 542 790.5 542 836.4 503 c 0,13,14
 923.7 426 923.7 426 923.7 269 c 0,15,16
 923.7 120 923.7 120 802.2 40 c 0,17,18
 679.8 -39 679.8 -39 502.5 -39 c 0,19,20
 433.2 -39 433.2 -39 336.9 -21 c 0,21,22
 239.7 -3 239.7 -3 144.3 33 c 1,23,-1
 144.3 239 l 1,24,-1
 241.5 264 l 1,25,26
 250.5 162 250.5 162 326.1 109 c 0,27,28
 401.7 56 401.7 56 506.1 56 c 0,29,30
 606 56 606 56 683.4 120 c 0,31,32
 759.9 183 759.9 183 759.9 267 c 0,33,34
 759.9 376 759.9 376 680.7 441 c 0,35,36
 602.4 505 602.4 505 481.8 505 c 2,37,-1
 399 505 l 1,38,-1
 399 610 l 1,39,-1
 442.2 610 l 2,40,41
 561.9 610 561.9 610 638.4 662 c 0,42,43
 714 713 714 713 714 801 c 0,44,45
 714 869 714 869 651 919 c 0,46,47
 588.9 968 588.9 968 504.3 968 c 0,48,49
 419.7 968 419.7 968 354.9 923 c 0,50,51
 290.1 877 290.1 877 279.3 788 c 1,52,-1
 182.1 813 l 1,53,-1
 182.1 1010 l 1,0,1
EndSplineSet
EndChar
StartChar: afii10074
Encoding: 1080 1080 212
Width: 1294
Flags: HW
Fore
1048.25 957 m 1,0,-1
 1197.65 957 l 1,1,-1
 1197.65 1063 l 1,2,-1
 733.25 1063 l 1,3,-1
 733.25 957 l 1,4,-1
 882.65 957 l 1,5,-1
 882.65 862 l 1,6,-1
 444.35 347 l 1,7,-1
 444.35 957 l 1,8,-1
 593.75 957 l 1,9,-1
 593.75 1063 l 1,10,-1
 129.35 1063 l 1,11,-1
 129.35 957 l 1,12,-1
 278.75 957 l 1,13,-1
 278.75 106 l 1,14,-1
 129.35 106 l 1,15,-1
 129.35 0 l 1,16,-1
 593.75 0 l 1,17,-1
 593.75 106 l 1,18,-1
 444.35 106 l 1,19,-1
 445.25 185 l 1,20,-1
 883.55 700 l 1,21,-1
 882.65 106 l 1,22,-1
 733.25 106 l 1,23,-1
 733.25 0 l 1,24,-1
 1197.65 0 l 1,25,-1
 1197.65 106 l 1,26,-1
 1048.25 106 l 1,27,-1
 1048.25 957 l 1,0,-1
EndSplineSet
EndChar
StartChar: afii10076
Encoding: 1082 1082 214
Width: 1182
Flags: HW
Fore
585.9 1063 m 1,0,-1
 585.9 956 l 1,1,-1
 443.7 956 l 1,2,-1
 443.7 543 l 1,3,-1
 846.9 956 l 1,4,-1
 709.2 956 l 1,5,-1
 709.2 1063 l 1,6,-1
 1142.1 1063 l 1,7,-1
 1142.1 956 l 1,8,-1
 978.3 956 l 1,9,-1
 693.9 664 l 1,10,-1
 1057.5 106 l 1,11,-1
 1195.2 106 l 1,12,-1
 1195.2 0 l 1,13,-1
 723.6 0 l 1,14,-1
 723.6 106 l 1,15,-1
 860.4 106 l 1,16,-1
 574.2 543 l 1,17,-1
 443.7 408 l 1,18,-1
 443.7 106 l 1,19,-1
 593.1 106 l 1,20,-1
 593.1 0 l 1,21,-1
 128.7 0 l 1,22,-1
 128.7 106 l 1,23,-1
 278.1 106 l 1,24,-1
 278.1 958 l 1,25,-1
 118.8 958 l 1,26,-1
 118.8 1063 l 1,27,-1
 585.9 1063 l 1,0,-1
EndSplineSet
EndChar
StartChar: afii10077
Encoding: 1083 1083 215
Width: 1206
Flags: HW
Fore
32.4004 0 m 1,0,1
 36 0 36 0 136.8 -12 c 0,2,3
 261 -28 261 -28 363.6 82 c 0,4,5
 451.8 175 451.8 175 451.8 339 c 2,6,-1
 451.8 940 l 1,7,-1
 850.5 940 l 1,8,-1
 850.5 106 l 1,9,-1
 746.1 106 l 1,10,-1
 746.1 0 l 1,11,-1
 1118.7 0 l 1,12,-1
 1118.7 106 l 1,13,-1
 1016.1 106 l 1,14,-1
 1016.1 958 l 1,15,-1
 1125 958 l 1,16,-1
 1125 1063 l 1,17,-1
 185.4 1063 l 1,18,-1
 185.4 958 l 1,19,-1
 300.6 958 l 1,20,-1
 300.6 339 l 2,21,22
 300.6 228 300.6 228 261 166 c 0,23,24
 222.3 104 222.3 104 140.4 104 c 0,25,26
 89.0996 104 89.0996 104 27 132 c 1,27,-1
 32.4004 0 l 1,0,1
EndSplineSet
EndChar
StartChar: afii10078
Encoding: 1084 1084 216
Width: 1633
Flags: HW
Fore
890.15 188 m 1,0,-1
 785.75 188 l 1,1,-1
 428.45 739 l 1,2,-1
 428.45 106 l 1,3,-1
 577.85 106 l 1,4,-1
 577.85 0 l 1,5,-1
 148.55 0 l 1,6,-1
 148.55 106 l 1,7,-1
 297.95 106 l 1,8,-1
 297.95 957 l 1,9,-1
 148.55 957 l 1,10,-1
 148.55 1063 l 1,11,-1
 378.95 1063 l 1,12,-1
 837.95 392 l 1,13,-1
 1296.95 1063 l 1,14,15
 1562.45 1063 l 1,16,-1
 1562.45 957 l 1,17,-1
 1413.05 957 l 1,18,-1
 1413.05 106 l 1,19,-1
 1562.45 106 l 1,20,-1
 1562.45 0 l 1,21,-1
 1098.05 0 l 1,22,-1
 1098.05 106 l 1,23,-1
 1247.45 106 l 1,24,-1
 1247.45 739 l 1,25,-1
 890.15 188 l 1,0,-1
EndSplineSet
EndChar
StartChar: afii10079
Encoding: 1085 1085 217
Width: 1294
Flags: HW
Fore
1048.25 957 m 1,0,-1
 1197.65 957 l 1,1,-1
 1197.65 1063 l 1,2,-1
 733.25 1063 l 1,3,-1
 733.25 957 l 1,4,-1
 882.65 957 l 1,5,-1
 882.65 640 l 1,6,-1
 444.35 640 l 1,7,-1
 444.35 957 l 1,8,-1
 593.75 957 l 1,9,-1
 593.75 1063 l 1,10,-1
 129.35 1063 l 1,11,-1
 129.35 957 l 1,12,-1
 278.75 957 l 1,13,-1
 278.75 106 l 1,14,-1
 129.35 106 l 1,15,-1
 129.35 0 l 1,16,-1
 593.75 0 l 1,17,-1
 593.75 106 l 1,18,-1
 444.35 106 l 1,19,-1
 445.25 516 l 1,20,-1
 883.55 516 l 1,21,-1
 882.65 106 l 1,22,-1
 733.25 106 l 1,23,-1
 733.25 0 l 1,24,-1
 1197.65 0 l 1,25,-1
 1197.65 106 l 1,26,-1
 1048.25 106 l 1,27,-1
 1048.25 957 l 1,0,-1
EndSplineSet
EndChar
StartChar: afii10080
Encoding: 1086 1086 218
Width: 1171
Flags: HW
Fore
616 70 m 0,0,1
 749.2 70 749.2 70 817.15 187 c 128,-1,2
 885.1 304 885.1 304 885.1 532 c 128,-1,3
 885.1 760 885.1 760 817.15 876.5 c 128,-1,4
 749.2 993 749.2 993 616 993 c 0,5,6
 482.8 993 482.8 993 414.4 876 c 0,7,8
 346.9 760 346.9 760 346.9 532 c 128,-1,9
 346.9 304 346.9 304 415.3 187 c 128,-1,10
 483.7 70 483.7 70 616 70 c 0,0,1
616 -29 m 0,11,12
 407.2 -29 407.2 -29 280.3 124.5 c 128,-1,13
 153.4 278 153.4 278 153.4 532 c 128,-1,14
 153.4 786 153.4 786 279.85 939 c 128,-1,15
 406.3 1092 406.3 1092 616 1092 c 128,-1,16
 825.7 1092 825.7 1092 952.15 939 c 128,-1,17
 1078.6 786 1078.6 786 1078.6 532 c 128,-1,18
 1078.6 278 1078.6 278 952.15 124.5 c 128,-1,19
 825.7 -29 825.7 -29 616 -29 c 0,11,12
EndSplineSet
EndChar
StartChar: afii10081
Encoding: 1087 1087 219
Width: 1294
Flags: HW
Fore
1207.55 1063 m 1,0,-1
 1207.55 958 l 1,1,-1
 1048.25 958 l 1,2,-1
 1048.25 106 l 1,3,-1
 1197.65 106 l 1,4,-1
 1197.65 0 l 1,5,-1
 733.25 0 l 1,6,-1
 733.25 106 l 1,7,-1
 882.65 106 l 1,8,-1
 882.65 940 l 1,9,-1
 444.35 940 l 1,10,-1
 444.35 106 l 1,11,-1
 593.75 106 l 1,12,-1
 593.75 0 l 1,13,-1
 129.35 0 l 1,14,-1
 129.35 106 l 1,15,-1
 278.75 106 l 1,16,-1
 278.75 958 l 1,17,-1
 119.45 958 l 1,18,-1
 119.45 1063 l 1,19,-1
 1207.55 1063 l 1,0,-1
EndSplineSet
EndChar
StartChar: afii10082
Encoding: 1088 1088 220
Width: 1243
Flags: HW
Fore
441.35 584 m 2,0,-1
 441.35 479 l 2,1,2
 441.35 287 441.35 287 507.5 186.5 c 128,-1,3
 573.65 86 573.65 86 699.65 86 c 0,4,5
 826.55 86 826.55 86 891.8 199 c 128,-1,6
 957.05 312 957.05 312 957.05 532 c 0,7,8
 957.05 753 957.05 753 891.8 865 c 128,-1,9
 826.55 977 826.55 977 699.65 977 c 0,10,11
 573.65 977 573.65 977 507.5 876 c 128,-1,12
 441.35 775 441.35 775 441.35 584 c 2,0,-1
275.75 956 m 1,13,-1
 116.45 956 l 1,14,-1
 116.45 1063 l 1,15,-1
 441.35 1063 l 1,16,-1
 441.35 897 l 1,17,18
 489.95 997 489.95 997 565.1 1044.5 c 128,-1,19
 640.25 1092 640.25 1092 750.95 1092 c 0,20,21
 927.35 1092 927.35 1092 1038.95 937 c 128,-1,22
 1150.55 782 1150.55 782 1150.55 532 c 128,-1,23
 1150.55 282 1150.55 282 1038.95 126.5 c 128,-1,24
 927.35 -29 927.35 -29 750.95 -29 c 0,25,26
 640.25 -29 640.25 -29 565.1 18.5 c 128,-1,27
 489.95 66 489.95 66 441.35 166 c 1,28,-1
 441.35 -319 l 1,29,-1
 597.95 -319 l 1,30,-1
 597.95 -426 l 1,31,-1
 116.45 -426 l 1,32,-1
 116.45 -319 l 1,33,-1
 275.75 -319 l 1,34,-1
 275.75 956 l 1,13,-1
EndSplineSet
EndChar
StartChar: afii10083
Encoding: 1089 1089 221
Width: 1090
Flags: HW
Fore
1005.45 319 m 1,0,1
 970.35 149 970.35 149 870.45 60 c 128,-1,2
 770.55 -29 770.55 -29 612.15 -29 c 0,3,4
 403.35 -29 403.35 -29 276.45 124.5 c 128,-1,5
 149.55 278 149.55 278 149.55 532 c 0,6,7
 149.55 787 149.55 787 276.45 939.5 c 128,-1,8
 403.35 1092 403.35 1092 612.15 1092 c 0,9,10
 703.05 1092 703.05 1092 793.05 1068.5 c 128,-1,11
 883.05 1045 883.05 1045 973.95 997 c 1,12,-1
 973.95 725 l 1,13,-1
 877.65 725 l 1,14,15
 858.75 865 858.75 865 795.3 929 c 128,-1,16
 731.85 993 731.85 993 613.95 993 c 0,17,18
 479.85 993 479.85 993 411.45 878 c 0,19,20
 343.05 762 343.05 762 343.05 532 c 128,-1,21
 343.05 302 343.05 302 411 186 c 128,-1,22
 478.95 70 478.95 70 613.95 70 c 0,23,24
 721.05 70 721.05 70 784.95 132 c 128,-1,25
 848.85 194 848.85 194 872.25 319 c 1,26,-1
 1005.45 319 l 1,0,1
EndSplineSet
EndChar
StartChar: afii10084
Encoding: 1090 1090 222
Width: 1076
Flags: HW
Fore
1006.4 1063 m 1,0,-1
 1006.4 796 l 1,1,-1
 911.9 796 l 1,2,-1
 911.9 940 l 1,3,-1
 651.8 940 l 1,4,-1
 651.8 106 l 1,5,-1
 801.2 106 l 1,6,-1
 801.2 0 l 1,7,-1
 336.8 0 l 1,8,-1
 336.8 106 l 1,9,-1
 486.2 106 l 1,10,-1
 486.2 940 l 1,11,-1
 226.1 940 l 1,12,-1
 226.1 796 l 1,13,-1
 131.6 796 l 1,14,-1
 131.6 1063 l 1,15,-1
 1006.4 1063 l 1,0,-1
EndSplineSet
EndChar
StartChar: afii10085
Encoding: 1091 1091 223
Width: 1098
Flags: HW
Fore
455.05 -195 m 1,0,-1
 518.05 -18 l 1,1,-1
 160.75 956 l 1,2,-1
 51.8496 956 l 1,3,-1
 51.8496 1063 l 1,4,-1
 491.95 1063 l 1,5,-1
 491.95 956 l 1,6,-1
 338.95 956 l 1,7,-1
 608.05 225 l 1,8,-1
 877.15 956 l 1,9,-1
 734.05 956 l 1,10,-1
 734.05 1063 l 1,11,-1
 1093.15 1063 l 1,12,-1
 1093.15 956 l 1,13,-1
 986.05 956 l 1,14,-1
 547.75 -240 l 1,15,16
 502.75 -364 502.75 -364 447.85 -409.5 c 128,-1,17
 392.95 -455 392.95 -455 293.05 -455 c 0,18,19
 250.75 -455 250.75 -455 206.2 -447 c 128,-1,20
 161.65 -439 161.65 -439 116.65 -424 c 1,21,-1
 116.65 -221 l 1,22,-1
 201.25 -221 l 1,23,24
 206.65 -289 206.65 -289 232.3 -318.5 c 128,-1,25
 257.95 -348 257.95 -348 311.95 -348 c 0,26,27
 361.45 -348 361.45 -348 391.6 -317.5 c 128,-1,28
 421.75 -287 421.75 -287 455.05 -195 c 1,0,-1
EndSplineSet
EndChar
StartChar: afii10086
Encoding: 1092 1092 224
Width: 1435
Flags: HW
Fore
679.15 1092 m 1,0,-1
 679.15 1276 l 1,1,-1
 519.85 1276 l 1,2,-1
 519.85 1381 l 1,3,-1
 994.15 1381 l 1,4,-1
 994.15 1276 l 1,5,-1
 844.75 1276 l 1,6,-1
 844.75 1092 l 1,7,-1
 914.05 1092 l 2,8,9
 1123.75 1092 1123.75 1092 1250.2 939 c 128,-1,10
 1376.65 786 1376.65 786 1376.65 532 c 128,-1,11
 1376.65 278 1376.65 278 1249.75 124.5 c 128,-1,12
 1122.85 -29 1122.85 -29 914.05 -29 c 2,13,-1
 844.75 -30 l 1,14,-1
 844.75 -210 l 1,15,-1
 994.15 -210 l 1,16,-1
 994.15 -316 l 1,17,-1
 529.75 -316 l 1,18,-1
 529.75 -210 l 1,19,-1
 679.15 -210 l 1,20,-1
 679.15 -29 l 1,21,-1
 608.95 -29 l 2,22,23
 400.15 -29 400.15 -29 273.25 124.5 c 128,-1,24
 146.35 278 146.35 278 146.35 532 c 128,-1,25
 146.35 786 146.35 786 272.8 939 c 128,-1,26
 399.25 1092 399.25 1092 608.95 1092 c 2,27,-1
 679.15 1092 l 1,0,-1
679.15 993 m 1,28,-1
 608.95 993 l 2,29,30
 475.75 993 475.75 993 407.8 876.5 c 128,-1,31
 339.85 760 339.85 760 339.85 532 c 128,-1,32
 339.85 304 339.85 304 408.25 187 c 128,-1,33
 476.65 70 476.65 70 608.95 70 c 2,34,-1
 679.15 70 l 1,35,-1
 679.15 993 l 1,28,-1
844.75 993 m 1,36,-1
 844.75 70 l 1,37,-1
 914.05 70 l 2,38,39
 1046.35 70 1046.35 70 1114.75 187 c 128,-1,40
 1183.15 304 1183.15 304 1183.15 532 c 128,-1,41
 1183.15 760 1183.15 760 1115.2 876.5 c 128,-1,42
 1047.25 993 1047.25 993 914.05 993 c 2,43,-1
 844.75 993 l 1,36,-1
EndSplineSet
EndChar
StartChar: afii10087
Encoding: 1093 1093 225
Width: 1097
Flags: HW
Fore
594.15 649 m 1,0,-1
 794.85 956 l 1,1,-1
 666.15 956 l 1,2,-1
 666.15 1063 l 1,3,-1
 1034.25 1063 l 1,4,-1
 1034.25 956 l 1,5,-1
 907.35 956 l 1,6,-1
 650.85 563 l 1,7,-1
 949.65 106 l 1,8,-1
 1074.75 106 l 1,9,-1
 1074.75 0 l 1,10,-1
 632.85 0 l 1,11,-1
 632.85 106 l 1,12,-1
 754.35 106 l 1,13,-1
 546.45 424 l 1,14,-1
 337.65 106 l 1,15,-1
 461.85 106 l 1,16,-1
 461.85 0 l 1,17,-1
 98.25 0 l 1,18,-1
 98.25 106 l 1,19,-1
 225.15 106 l 1,20,-1
 488.85 510 l 1,21,-1
 198.15 956 l 1,22,-1
 80.25 956 l 1,23,-1
 80.25 1063 l 1,24,-1
 507.75 1063 l 1,25,-1
 507.75 956 l 1,26,-1
 393.45 956 l 1,27,-1
 594.15 649 l 1,0,-1
EndSplineSet
EndChar
StartChar: afii10088
Encoding: 1094 1094 226
Width: 1343
Flags: HW
Fore
1308.25 -283 m 1,0,-1
 1308.25 123 l 1,1,-1
 1053.55 123 l 1,2,-1
 1053.55 957 l 1,3,-1
 1202.95 957 l 1,4,-1
 1202.95 1063 l 1,5,-1
 738.55 1063 l 1,6,-1
 738.55 957 l 1,7,-1
 887.95 957 l 1,8,-1
 887.95 123 l 1,9,-1
 449.65 123 l 1,10,-1
 449.65 957 l 1,11,-1
 599.05 957 l 1,12,-1
 599.05 1063 l 1,13,-1
 134.65 1063 l 1,14,-1
 134.65 957 l 1,15,-1
 284.05 957 l 1,16,-1
 284.05 105 l 1,17,-1
 124.75 105 l 1,18,-1
 124.75 0 l 1,19,-1
 1142.65 0 l 1,20,-1
 1142.65 -283 l 1,21,-1
 1308.25 -283 l 1,0,-1
EndSplineSet
EndChar
StartChar: afii10089
Encoding: 1095 1095 227
Width: 1294
Flags: HW
Fore
278.75 617 m 2,0,-1
 278.75 957 l 1,1,-1
 129.35 957 l 1,2,-1
 129.35 1063 l 1,3,-1
 593.75 1063 l 1,4,-1
 593.75 957 l 1,5,-1
 444.35 957 l 1,6,-1
 444.35 768 l 2,7,8
 444.35 653 444.35 653 462.35 608 c 0,9,10
 476.75 572 476.75 572 533.45 573 c 2,11,-1
 882.65 573 l 1,12,-1
 882.65 957 l 1,13,-1
 733.25 957 l 1,14,-1
 733.25 1063 l 1,15,-1
 1197.65 1063 l 1,16,-1
 1197.65 957 l 1,17,-1
 1048.25 957 l 1,18,-1
 1048.25 106 l 1,19,-1
 1197.65 106 l 1,20,-1
 1197.65 0 l 1,21,-1
 733.25 0 l 1,22,-1
 733.25 106 l 1,23,-1
 882.65 106 l 1,24,-1
 883.55 449 l 1,25,-1
 445.25 449 l 2,26,27
 369.65 449 369.65 449 315.65 503 c 0,28,29
 278.75 540 278.75 540 278.75 617 c 2,0,-1
EndSplineSet
EndChar
StartChar: afii10090
Encoding: 1096 1096 228
Width: 1651
Flags: HW
Fore
1561.9 0 m 1,0,-1
 1561.9 105 l 1,1,-1
 1402.6 105 l 1,2,-1
 1402.6 957 l 1,3,-1
 1552 957 l 1,4,-1
 1552 1063 l 1,5,-1
 1138 1063 l 1,6,-1
 1138 957 l 1,7,-1
 1237 957 l 1,8,-1
 1237 123 l 1,9,-1
 930.1 123 l 1,10,-1
 930.1 848 l 1,11,-1
 1020.1 848 l 1,12,-1
 1020.1 954 l 1,13,-1
 675.4 954 l 1,14,-1
 675.4 848 l 1,15,-1
 764.5 848 l 1,16,-1
 764.5 123 l 1,17,-1
 463 123 l 1,18,-1
 463 957 l 1,19,-1
 562 957 l 1,20,-1
 562 1063 l 1,21,-1
 148 1063 l 1,22,-1
 148 957 l 1,23,-1
 297.4 957 l 1,24,-1
 297.4 105 l 1,25,-1
 138.1 105 l 1,26,-1
 138.1 0 l 1,27,-1
 1561.9 0 l 1,0,-1
EndSplineSet
EndChar
StartChar: afii10091
Encoding: 1097 1097 229
Width: 1756
Flags: HW
Fore
143.4 0 m 1,0,-1
 143.4 105 l 1,1,-1
 302.7 105 l 1,2,-1
 302.7 957 l 1,3,-1
 153.3 957 l 1,4,-1
 153.3 1063 l 1,5,-1
 567.3 1063 l 1,6,-1
 567.3 957 l 1,7,-1
 468.3 957 l 1,8,-1
 468.3 123 l 1,9,-1
 769.8 123 l 1,10,-1
 769.8 848 l 1,11,-1
 680.7 848 l 1,12,-1
 680.7 954 l 1,13,-1
 1025.4 954 l 1,14,-1
 1025.4 848 l 1,15,-1
 935.4 848 l 1,16,-1
 935.4 123 l 1,17,-1
 1242.3 123 l 1,18,-1
 1242.3 957 l 1,19,-1
 1143.3 957 l 1,20,-1
 1143.3 1063 l 1,21,-1
 1557.3 1063 l 1,22,-1
 1557.3 957 l 1,23,-1
 1407.9 957 l 1,24,-1
 1407.9 123 l 1,25,-1
 1662.6 123 l 1,26,-1
 1662.6 -283 l 1,27,-1
 1497 -283 l 1,28,-1
 1497 0 l 1,29,-1
 143.4 0 l 1,0,-1
EndSplineSet
EndChar
StartChar: afii10092
Encoding: 1098 1098 230
Width: 1072
Flags: HW
Fore
382 102 m 1,0,-1
 382 961 l 1,1,-1
 216.4 961 l 1,2,-1
 216.4 795 l 1,3,-1
 108.4 795 l 1,4,-1
 108.4 1063 l 1,5,-1
 694.3 1063 l 1,6,-1
 694.3 961 l 1,7,-1
 548.5 961 l 1,8,-1
 548.5 623 l 1,9,-1
 607 623 l 1,10,11
 832.9 607 832.9 607 916.6 515 c 0,12,13
 979.6 446 979.6 446 979.6 308 c 0,14,15
 979.6 150 979.6 150 889.6 75 c 0,16,17
 800.5 0 800.5 0 634.9 0 c 2,18,-1
 562.9 0 l 1,19,-1
 223.6 0 l 1,20,-1
 223.6 102 l 1,21,-1
 382 102 l 1,0,-1
580.9 102 m 1,22,-1
 635.8 102 l 2,23,24
 726.7 102 726.7 102 779.8 158 c 0,25,26
 832.9 214 832.9 214 832.9 308 c 0,27,28
 832.9 402 832.9 402 779.8 457 c 0,29,30
 726.7 513 726.7 513 635.8 513 c 2,31,-1
 548.5 513 l 1,32,-1
 548.5 102 l 1,33,-1
 580.9 102 l 1,22,-1
EndSplineSet
EndChar
StartChar: afii10093
Encoding: 1099 1099 231
Width: 1436
Flags: HW
Fore
287.4 102 m 1,0,-1
 287.4 961 l 1,1,-1
 129 961 l 1,2,-1
 129 1063 l 1,3,-1
 599.7 1063 l 1,4,-1
 599.7 961 l 1,5,-1
 453.9 961 l 1,6,-1
 453.9 623 l 1,7,-1
 512.4 623 l 1,8,9
 738.3 607 738.3 607 822 515 c 0,10,11
 885 446 885 446 885 308 c 0,12,13
 885 150 885 150 795 75 c 0,14,15
 705.9 0 705.9 0 540.3 0 c 2,16,-1
 468.3 0 l 1,17,-1
 129 0 l 1,18,-1
 129 102 l 1,19,-1
 287.4 102 l 1,0,-1
486.3 102 m 1,20,-1
 541.2 102 l 2,21,22
 632.1 102 632.1 102 685.2 158 c 0,23,24
 738.3 214 738.3 214 738.3 308 c 0,25,26
 738.3 402 738.3 402 685.2 457 c 0,27,28
 632.1 513 632.1 513 541.2 513 c 2,29,-1
 453.9 513 l 1,30,-1
 453.9 102 l 1,31,-1
 486.3 102 l 1,20,-1
1221.6 956 m 1,32,-1
 1371 956 l 1,33,-1
 1371 1063 l 1,34,-1
 896.7 1063 l 1,35,-1
 896.7 958 l 1,36,-1
 1056 958 l 1,37,-1
 1056 106 l 1,38,-1
 906.6 106 l 1,39,-1
 906.6 0 l 1,40,-1
 1371 0 l 1,41,-1
 1371 106 l 1,42,-1
 1221.6 106 l 1,43,-1
 1221.6 956 l 1,32,-1
EndSplineSet
EndChar
StartChar: afii10094
Encoding: 1100 1100 232
Width: 954
Flags: HW
Fore
260.4 102 m 1,0,-1
 260.4 961 l 1,1,-1
 102 961 l 1,2,-1
 102 1063 l 1,3,-1
 572.7 1063 l 1,4,-1
 572.7 961 l 1,5,-1
 426.9 961 l 1,6,-1
 426.9 623 l 1,7,-1
 485.4 623 l 1,8,9
 711.3 607 711.3 607 795 515 c 0,10,11
 858 446 858 446 858 308 c 0,12,13
 858 150 858 150 768 75 c 0,14,15
 678.9 0 678.9 0 513.3 0 c 2,16,-1
 441.3 0 l 1,17,-1
 102 0 l 1,18,-1
 102 102 l 1,19,-1
 260.4 102 l 1,0,-1
459.3 102 m 1,20,-1
 514.2 102 l 2,21,22
 605.1 102 605.1 102 658.2 158 c 0,23,24
 711.3 214 711.3 214 711.3 308 c 0,25,26
 711.3 402 711.3 402 658.2 457 c 0,27,28
 605.1 513 605.1 513 514.2 513 c 2,29,-1
 426.9 513 l 1,30,-1
 426.9 102 l 1,31,-1
 459.3 102 l 1,20,-1
EndSplineSet
EndChar
StartChar: afii10095
Encoding: 1101 1101 233
Width: 1090
Flags: HW
Fore
541.05 70 m 1,0,1
 329.55 73 329.55 73 282.75 319 c 1,2,-1
 149.55 319 l 1,3,4
 179.25 176 179.25 176 244.05 101 c 0,5,6
 261.15 81 261.15 81 284.55 60 c 1,7,8
 365.55 -5 365.55 -5 446.55 -21 c 0,9,10
 487.95 -29 487.95 -29 542.85 -29 c 0,11,12
 710.25 -28 710.25 -28 827.25 71 c 0,13,14
 856.05 95 856.05 95 878.55 124 c 0,15,16
 978.45 254 978.45 254 999.15 424 c 0,17,18
 1004.55 474 1004.55 474 1005.45 532 c 1,19,20
 1002.75 785 1002.75 785 878.55 940 c 1,21,22
 758.85 1071 758.85 1071 588.75 1089 c 0,23,24
 566.25 1091 566.25 1091 542.85 1092 c 0,25,26
 440.25 1093 440.25 1093 349.35 1068 c 0,27,28
 263.85 1044 263.85 1044 181.05 997 c 1,29,-1
 181.05 725 l 1,30,-1
 277.35 725 l 1,31,32
 290.85 863 290.85 863 359.25 929 c 1,33,34
 424.05 994 424.05 994 541.05 993 c 0,35,36
 738.15 992 738.15 992 792.15 744 c 0,37,38
 803.85 690 803.85 690 809.25 625 c 0,39,40
 809.25 615 809.25 615 810.15 604 c 1,41,-1
 383.55 604 l 1,42,-1
 383.55 499 l 1,43,-1
 811.95 499 l 1,44,45
 802.05 70 802.05 70 541.05 70 c 1,0,1
EndSplineSet
EndChar
StartChar: afii10096
Encoding: 1102 1102 234
Width: 1692
Flags: HW
Fore
465.45 463 m 1,0,-1
 465.45 106 l 1,1,-1
 614.85 106 l 1,2,-1
 614.85 0 l 1,3,-1
 150.45 0 l 1,4,-1
 150.45 106 l 1,5,-1
 299.85 106 l 1,6,-1
 299.85 958 l 1,7,-1
 140.55 958 l 1,8,-1
 140.55 1063 l 1,9,-1
 614.85 1063 l 1,10,-1
 614.85 956 l 1,11,-1
 465.45 956 l 1,12,-1
 465.45 582 l 1,13,-1
 685.95 582 l 1,14,15
 695.85 799 695.85 799 809.25 939 c 1,16,17
 936.15 1092 936.15 1092 1145.85 1092 c 128,-1,18
 1355.55 1092 1355.55 1092 1482 939 c 128,-1,19
 1608.45 786 1608.45 786 1608.45 532 c 128,-1,20
 1608.45 278 1608.45 278 1482 124.5 c 128,-1,21
 1355.55 -29 1355.55 -29 1145.85 -29 c 0,22,23
 935.25 -29 935.25 -29 810.15 124 c 0,24,25
 700.35 259 700.35 259 686.85 463 c 1,26,-1
 465.45 463 l 1,0,-1
1145.85 70 m 0,27,28
 1279.05 70 1279.05 70 1347 187 c 128,-1,29
 1414.95 304 1414.95 304 1414.95 532 c 128,-1,30
 1414.95 760 1414.95 760 1347 876.5 c 128,-1,31
 1279.05 993 1279.05 993 1145.85 993 c 128,-1,32
 1012.65 993 1012.65 993 944.7 876.5 c 128,-1,33
 876.75 760 876.75 760 876.75 532 c 128,-1,34
 876.75 304 876.75 304 945.15 187 c 128,-1,35
 1013.55 70 1013.55 70 1145.85 70 c 0,27,28
EndSplineSet
EndChar
StartChar: afii10097
Encoding: 1103 1103 235
Width: 1255
Flags: HW
Fore
546.2 528 m 1,0,1
 501.2 514 501.2 514 468.8 482 c 0,2,3
 436.4 449 436.4 449 411.2 391 c 2,4,-1
 271.7 75 l 1,5,-1
 155.6 75 l 1,6,-1
 155.6 0 l 1,7,-1
 380.6 0 l 1,8,-1
 530 338 l 2,9,10
 573.2 436 573.2 436 609.2 465 c 128,-1,11
 645.2 494 645.2 494 707.3 494 c 2,12,-1
 850.4 494 l 1,13,-1
 850.4 75 l 1,14,-1
 715.4 75 l 1,15,-1
 715.4 0 l 1,16,-1
 1102.4 0 l 1,17,-1
 1102.4 75 l 1,18,-1
 980.9 75 l 1,19,-1
 980.9 987 l 1,20,-1
 1102.4 987 l 1,21,-1
 1102.4 1063 l 1,22,-1
 617.3 1063 l 2,23,24
 477.8 1063 477.8 1063 401.3 989 c 0,25,26
 325.7 915 325.7 915 325.7 779 c 0,27,28
 325.7 669 325.7 669 381.5 606 c 0,29,30
 436.4 543 436.4 543 546.2 528 c 1,0,1
850.4 570 m 1,31,-1
 661.4 570 l 2,32,33
 565.1 570 565.1 570 518.75 621 c 128,-1,34
 472.4 672 472.4 672 472.4 779 c 128,-1,35
 472.4 886 472.4 886 518.3 936 c 0,36,37
 565.1 987 565.1 987 661.4 987 c 2,38,-1
 850.4 987 l 1,39,-1
 850.4 570 l 1,31,-1
EndSplineSet
EndChar
StartChar: afii10099
Encoding: 1106 1106 238
Width: 1203
Flags: HW
Fore
765.3 -455 m 0,0,1
 638.4 -455 638.4 -455 526.8 -389 c 1,2,-1
 526.8 -170 l 1,3,-1
 612.3 -170 l 1,4,5
 618.6 -266 618.6 -266 656.85 -311 c 128,-1,6
 695.1 -356 695.1 -356 768.9 -356 c 0,7,8
 850.8 -356 850.8 -356 889.95 -294.5 c 128,-1,9
 929.1 -233 929.1 -233 929.1 -104 c 2,10,-1
 929.1 569 l 2,11,12
 929.1 764 929.1 764 886.35 835.5 c 128,-1,13
 843.6 907 843.6 907 719.4 907 c 0,14,15
 570.9 907 570.9 907 510.6 814 c 128,-1,16
 450.3 721 450.3 721 450.3 543 c 2,17,-1
 450.3 106 l 1,18,-1
 594.3 106 l 1,19,-1
 594.3 0 l 1,20,-1
 135.3 0 l 1,21,-1
 135.3 106 l 1,22,-1
 284.7 106 l 1,23,-1
 284.7 1216 l 1,24,-1
 98.4004 1216 l 1,25,-1
 98.4004 1335 l 1,26,-1
 284.7 1335 l 1,27,-1
 284.7 1450 l 1,28,-1
 126.3 1450 l 1,29,-1
 126.3 1556 l 1,30,-1
 450.3 1556 l 1,31,-1
 450.3 1335 l 1,32,-1
 858.9 1335 l 1,33,-1
 858.9 1216 l 1,34,-1
 450.3 1216 l 1,35,-1
 450.3 825 l 1,36,37
 496.2 933 496.2 933 569.55 988 c 128,-1,38
 642.9 1043 642.9 1043 773.4 1043 c 0,39,40
 946.2 1043 946.2 1043 1020.9 942 c 0,41,42
 1095.6 841 1095.6 841 1095.6 627 c 2,43,-1
 1095.6 -104 l 2,44,45
 1095.6 -267 1095.6 -267 1006.5 -362 c 0,46,47
 919.2 -455 919.2 -455 765.3 -455 c 0,0,1
EndSplineSet
EndChar
StartChar: afii10101
Encoding: 1108 1108 240
Width: 1090
Flags: HW
Fore
613.95 70 m 1,0,1
 825.45 73 825.45 73 872.25 319 c 1,2,-1
 1005.45 319 l 1,3,4
 975.75 176 975.75 176 910.95 101 c 0,5,6
 893.85 81 893.85 81 870.45 60 c 1,7,8
 789.45 -5 789.45 -5 708.45 -21 c 0,9,10
 667.05 -29 667.05 -29 612.15 -29 c 0,11,12
 444.75 -28 444.75 -28 327.75 71 c 0,13,14
 298.95 95 298.95 95 276.45 124 c 0,15,16
 176.55 254 176.55 254 155.85 424 c 0,17,18
 150.45 474 150.45 474 149.55 532 c 1,19,20
 152.25 785 152.25 785 276.45 940 c 1,21,22
 396.15 1071 396.15 1071 566.25 1089 c 0,23,24
 588.75 1091 588.75 1091 612.15 1092 c 0,25,26
 714.75 1093 714.75 1093 805.65 1068 c 0,27,28
 891.15 1044 891.15 1044 973.95 997 c 1,29,-1
 973.95 725 l 1,30,-1
 877.65 725 l 1,31,32
 864.15 863 864.15 863 795.75 929 c 1,33,34
 730.95 994 730.95 994 613.95 993 c 0,35,36
 416.85 992 416.85 992 362.85 744 c 0,37,38
 348.45 682 348.45 682 344.85 604 c 1,39,-1
 771.45 604 l 1,40,-1
 771.45 499 l 1,41,-1
 343.05 499 l 1,42,43
 352.95 70 352.95 70 613.95 70 c 1,0,1
EndSplineSet
EndChar
StartChar: afii10102
Encoding: 1109 1109 241
Width: 998
Flags: HW
Fore
156.55 59 m 1,0,-1
 156.55 307 l 1,1,-1
 251.95 307 l 1,2,3
 255.55 188 255.55 188 319 129 c 128,-1,4
 382.45 70 382.45 70 506.65 70 c 0,5,6
 618.25 70 618.25 70 676.75 116.5 c 128,-1,7
 735.25 163 735.25 163 735.25 252 c 0,8,9
 735.25 322 735.25 322 692.5 365 c 128,-1,10
 649.75 408 649.75 408 512.05 457 c 1,11,-1
 392.35 502 l 1,12,13
 269.05 546 269.05 546 213.25 612 c 0,14,15
 158.35 678 158.35 678 158.35 780 c 0,16,17
 158.35 926 158.35 926 254.65 1009 c 128,-1,18
 350.95 1092 350.95 1092 521.05 1092 c 0,19,20
 596.65 1092 596.65 1092 680.35 1070 c 128,-1,21
 764.05 1048 764.05 1048 853.15 1006 c 1,22,-1
 853.15 774 l 1,23,-1
 757.75 774 l 1,24,25
 754.15 877 754.15 877 692.95 935 c 128,-1,26
 631.75 993 631.75 993 526.45 993 c 0,27,28
 422.05 993 422.05 993 368.5 952 c 128,-1,29
 314.95 911 314.95 911 314.95 829 c 0,30,31
 314.95 762 314.95 762 355.45 721.5 c 128,-1,32
 395.95 681 395.95 681 517.45 639 c 2,33,-1
 648.85 594 l 2,34,35
 784.75 547 784.75 547 844.6 476.5 c 128,-1,36
 904.45 406 904.45 406 904.45 295 c 0,37,38
 904.45 144 904.45 144 800.5 57.5 c 128,-1,39
 696.55 -29 696.55 -29 513.85 -29 c 0,40,41
 421.15 -29 421.15 -29 332.95 -7 c 128,-1,42
 244.75 15 244.75 15 156.55 59 c 1,0,-1
EndSplineSet
EndChar
